<svg width="240" height="240" viewBox="0 0 240 240" fill="none" xmlns="http://www.w3.org/2000/svg">
<mask id="mask0_5836_19415" style="mask-type:alpha" maskUnits="userSpaceOnUse" x="0" y="0" width="240" height="240">
<circle cx="120" cy="120" r="120" fill="#C4C4C4"/>
</mask>
<g mask="url(#mask0_5836_19415)">
<mask id="mask1_5836_19415" style="mask-type:alpha" maskUnits="userSpaceOnUse" x="0" y="0" width="240" height="240">
<circle cx="120" cy="120" r="120" fill="#C4C4C4"/>
</mask>
<g mask="url(#mask1_5836_19415)">
<rect x="-11.0449" y="-3.25024" width="281.609" height="275.682" fill="url(#paint0_linear_5836_19415)"/>
<path d="M95.5331 15.3803C96.0586 11.6054 90.6987 8.45954 86.6525 8.14496C84.7083 7.98767 82.764 8.30225 80.9248 7.67309C76.9837 6.3099 75.4073 1.22417 71.5713 -0.401165C68.6811 -1.60706 65.3706 -0.558455 62.5856 0.857161C59.8006 2.27278 57.0681 4.00297 53.9152 4.2127C51.1827 4.36999 48.2926 3.37381 45.8754 4.68457C44.0887 5.68074 43.1954 7.67309 41.5664 8.87898C39.99 10.0324 37.8881 10.2946 35.9438 10.3995C33.947 10.5043 31.8976 10.5043 30.111 11.3432C28.3244 12.1821 26.8005 14.0696 27.2209 16.0095L95.5331 15.3803Z" fill="#EBEBEB"/>
<path d="M44.6656 43.9025C44.613 43.9549 43.0892 41.1761 41.25 37.7157C39.4634 34.2553 38.0446 31.4241 38.0971 31.4241C38.1497 31.3716 39.6736 34.1504 41.5127 37.6108C43.3519 41.0188 44.7707 43.85 44.6656 43.9025Z" fill="#EBEBEB"/>
<path d="M71.152 53.183C71.0994 53.2354 69.5755 50.4566 67.7364 46.9962C65.8972 43.5358 64.5309 40.7046 64.5835 40.7046C64.636 40.6522 66.1599 43.431 67.9991 46.8914C69.8383 50.2993 71.2571 53.1306 71.152 53.183Z" fill="#EBEBEB"/>
<path d="M97.6344 62.4625C97.5818 62.5149 96.0579 59.7361 94.2187 56.2757C92.4321 52.8154 91.0133 49.9841 91.0659 49.9841C91.1184 49.9317 92.6423 52.7105 94.4815 56.1709C96.3207 59.5789 97.7395 62.4101 97.6344 62.4625Z" fill="#EBEBEB"/>
<path d="M124.119 71.6906C124.066 71.743 122.542 68.9642 120.703 65.5038C118.916 62.0434 117.498 59.2122 117.55 59.2122C117.603 59.1597 119.127 61.9385 120.966 65.3989C122.805 68.8593 124.224 71.6906 124.119 71.6906Z" fill="#EBEBEB"/>
<path d="M150.603 80.9713C150.551 81.0238 149.027 78.2449 147.187 74.7846C145.401 71.3242 143.982 68.4929 144.035 68.4929C144.087 68.4405 145.611 71.2193 147.45 74.6797C149.289 78.1401 150.708 80.9189 150.603 80.9713Z" fill="#EBEBEB"/>
<path d="M177.087 90.2506C177.035 90.303 175.511 87.5242 173.672 84.0638C171.885 80.6034 170.466 77.7722 170.519 77.7722C170.572 77.7198 172.095 80.4986 173.935 83.959C175.774 87.3669 177.193 90.1982 177.087 90.2506Z" fill="#EBEBEB"/>
<path d="M156.908 61.5192C156.855 61.5716 155.331 58.7928 153.492 55.3324C151.706 51.872 150.287 49.0408 150.339 49.0408C150.392 48.9883 151.916 51.7671 153.755 55.2275C155.542 58.6879 156.96 61.5192 156.908 61.5192Z" fill="#EBEBEB"/>
<path d="M102.468 97.3287C102.416 97.3812 100.892 94.6024 99.0527 91.142C97.2661 87.6816 95.8473 84.8503 95.8999 84.8503C95.9524 84.7979 97.4763 87.5767 99.3155 91.0371C101.155 94.4451 102.573 97.2763 102.468 97.3287Z" fill="#EBEBEB"/>
<path d="M67.8394 80.3944C67.7869 80.4468 66.263 77.668 64.4238 74.2076C62.6372 70.7472 61.2184 67.916 61.2709 67.916C61.3235 67.8636 62.8474 70.6424 64.6866 74.1028C66.5257 77.5108 67.9445 80.342 67.8394 80.3944Z" fill="#EBEBEB"/>
<path d="M128.06 48.1495C128.008 48.202 126.484 45.4232 124.645 41.9628C122.858 38.5024 121.439 35.6711 121.492 35.6711C121.544 35.6187 123.068 38.3975 124.907 41.8579C126.694 45.2659 128.113 48.0971 128.06 48.1495Z" fill="#EBEBEB"/>
<path d="M160.168 37.0865C160.115 37.139 158.591 34.3602 156.752 30.8998C154.913 27.4394 153.547 24.6082 153.599 24.6082C153.652 24.5557 155.176 27.3345 157.015 30.7949C158.854 34.2029 160.273 37.0341 160.168 37.0865Z" fill="#EBEBEB"/>
<path d="M187.019 34.8839C186.967 34.9363 185.443 32.1575 183.604 28.6971C181.817 25.2367 180.398 22.4055 180.451 22.4055C180.503 22.3531 182.027 25.1319 183.866 28.5923C185.705 32.0003 187.124 34.8315 187.019 34.8839Z" fill="#EBEBEB"/>
<path d="M161.533 9.82288C161.48 9.87531 159.956 7.09651 158.117 3.63611C156.331 0.175714 154.912 -2.65552 154.964 -2.65552C155.017 -2.70795 156.541 0.0708525 158.38 3.53125C160.167 6.99164 161.585 9.82288 161.533 9.82288Z" fill="#EBEBEB"/>
<path d="M99.2125 34.7272C99.1599 34.7796 97.636 32.0008 95.7969 28.5404C94.0102 25.08 92.5914 22.2488 92.644 22.2488C92.6965 22.1963 94.2204 24.9751 96.0596 28.4355C97.8462 31.8959 99.265 34.7272 99.2125 34.7272Z" fill="#EBEBEB"/>
<path d="M115.554 13.8602C115.502 13.9127 113.978 11.1339 112.139 7.67346C110.352 4.21307 108.933 1.38183 108.986 1.38183C109.038 1.3294 110.562 4.1082 112.401 7.5686C114.188 11.029 115.607 13.8602 115.554 13.8602Z" fill="#EBEBEB"/>
<path d="M71.152 28.4881C71.0994 28.5406 69.5755 25.7618 67.7364 22.3014C65.8972 18.841 64.5309 16.0098 64.5835 16.0098C64.636 15.9573 66.1599 18.7361 67.9991 22.1965C69.8383 25.6569 71.2571 28.4357 71.152 28.4881Z" fill="#EBEBEB"/>
<path d="M162.322 25.3946C162.689 22.7731 159.011 20.6759 156.226 20.4138C154.912 20.3089 153.546 20.5186 152.285 20.0992C149.605 19.1554 148.501 15.6951 145.874 14.5416C143.877 13.7027 141.618 14.4367 139.726 15.4329C137.834 16.3766 135.943 17.5825 133.788 17.7398C131.949 17.8447 129.9 17.1631 128.271 18.0544C127.062 18.736 126.431 20.0992 125.328 20.9381C124.224 21.7245 122.806 21.9343 121.439 21.9867C120.073 22.0391 118.707 22.0915 117.446 22.6158C116.237 23.1926 115.186 24.5033 115.449 25.8141L162.322 25.3946Z" fill="#FAFAFA"/>
<path opacity="0.22" d="M44.824 197.419C49.3956 204.392 59.0644 207.485 66.8415 204.444C70.5199 203.029 73.6202 200.46 77.246 198.939C82.1855 196.842 87.8607 196.789 93.168 197.681C98.4754 198.572 103.625 200.407 108.775 201.875C120.388 205.178 132.421 206.961 144.455 207.171C151.969 207.275 159.641 206.699 166.63 203.92C173.619 201.141 179.819 195.741 182.237 188.663C182.237 188.663 40.6201 187.876 39.8319 188.663C39.0437 189.449 38.1504 190.341 38.1504 190.341L44.824 197.419Z" fill="#00B1FF"/>
<path d="M46.1905 177.704C57.1205 172.566 61.482 160.297 63.0584 148.867C63.3212 146.98 63.8466 144.988 63.2686 143.153C62.638 141.318 60.7463 139.849 58.9071 140.374C57.3832 140.793 56.4899 142.314 55.4915 143.572C54.1253 145.197 52.3386 146.403 50.2893 147.085C48.9756 147.504 47.3991 147.609 46.3482 146.77C44.8768 145.564 45.0345 143.31 45.4023 141.422C46.0329 137.91 46.6635 134.397 47.294 130.884C47.6093 128.996 47.9772 127.057 47.6619 125.169C47.3991 123.282 46.3482 121.394 44.6667 120.608C42.9326 119.821 40.5679 120.45 39.8848 122.233C39.5695 122.967 39.6221 123.806 39.4119 124.592C39.2017 125.379 38.7287 126.165 37.9405 126.27C37.1523 126.375 36.4692 125.693 35.9962 125.064C34.3673 122.81 33.4739 120.136 32.6332 117.514C31.7924 114.84 31.0567 112.166 29.638 109.807C28.2192 107.448 26.0647 105.35 23.3848 104.774C20.7048 104.144 17.5519 105.35 16.3959 107.867C15.2398 110.384 16.3433 113.372 17.657 115.836C19.6013 119.454 22.1236 122.81 25.0137 125.693C25.5392 126.218 26.1172 126.794 26.2223 127.528C26.4325 128.839 25.0137 129.888 23.7 130.097C22.2287 130.307 20.7048 129.94 19.1809 129.835C17.657 129.783 15.9755 130.15 15.1873 131.408C14.0838 133.191 15.3449 135.498 16.7112 137.071C19.4437 140.269 22.7016 142.995 26.38 145.04C27.6937 145.774 29.0599 146.456 30.0058 147.662C30.9516 148.815 31.372 150.65 30.4262 151.856C29.5329 153.062 27.6937 153.219 26.2749 152.695C24.8561 152.171 23.7 151.174 22.3863 150.388C19.9691 148.972 16.5535 148.553 14.5042 150.545C13.1379 151.856 12.7175 153.848 12.9803 155.736C13.243 157.571 14.0838 159.301 15.0296 160.874C18.3402 166.432 23.0169 171.308 28.6921 174.401C34.3147 177.337 39.7797 178.858 46.1905 177.704Z" fill="#F5F5F5"/>
<path d="M44.4565 170.049C43.7734 164.019 42.4597 157.518 40.8307 150.702C40.4103 149.024 40.0425 147.346 39.6221 145.669C39.2017 144.043 38.8339 142.366 38.361 140.793C37.4151 137.647 36.2591 134.658 35.0505 131.932C33.8419 129.153 32.6333 126.584 31.4772 124.172C30.3211 121.761 29.1651 119.558 28.0616 117.566C25.802 113.581 23.6476 110.593 22.0711 108.601C21.2829 107.604 20.6523 106.87 20.232 106.346C20.0218 106.084 19.8641 105.927 19.7065 105.769C19.6014 105.664 19.5488 105.56 19.5488 105.56C19.5488 105.56 19.6014 105.612 19.7065 105.769C19.8116 105.927 19.9692 106.136 20.1794 106.346C20.5998 106.87 21.2304 107.657 21.966 108.653C23.4899 110.645 25.6444 113.686 27.8514 117.671C28.9549 119.663 30.0584 121.865 31.267 124.277C32.4231 126.689 33.6317 129.258 34.8403 132.037C36.0489 134.816 37.1524 137.752 38.1508 140.898C38.6237 142.47 39.0441 144.096 39.4119 145.721C39.8323 147.346 40.2001 149.024 40.6205 150.754C42.2495 157.518 43.5632 164.072 44.2463 170.049" fill="#E0E0E0"/>
<path d="M38.2553 140.793C38.2553 140.793 38.4129 140.531 38.5706 140.007C38.7808 139.482 38.991 138.748 39.3062 137.857C39.8843 136.022 40.6199 133.453 41.4082 130.621C42.1964 127.79 42.932 125.274 43.5626 123.439C43.8779 122.547 44.1406 121.813 44.2983 121.289C44.4559 120.765 44.561 120.502 44.561 120.502C44.561 120.502 44.4034 120.765 44.1932 121.236C43.983 121.708 43.6677 122.442 43.3524 123.334C42.6693 125.116 41.8811 127.685 41.0929 130.517C40.3046 133.295 39.6215 135.812 39.096 137.752C38.8333 138.643 38.6231 139.377 38.4655 139.954C38.2553 140.531 38.2027 140.793 38.2553 140.793Z" fill="#E0E0E0"/>
<path d="M14.7148 132.142C14.7148 132.142 15.0301 132.247 15.6607 132.404C16.2913 132.562 17.1846 132.771 18.2356 133.139C20.4426 133.768 23.3853 134.711 26.6432 135.917C29.9012 137.123 32.7913 138.329 34.8407 139.273C35.8917 139.745 36.7324 140.112 37.2579 140.426C37.8359 140.688 38.1512 140.846 38.1512 140.846C38.1512 140.846 37.8359 140.636 37.3104 140.321C36.7324 140.007 35.9442 139.587 34.8932 139.063C32.8439 138.067 29.9537 136.809 26.6958 135.603C23.4378 134.397 20.4426 133.453 18.2356 132.929C17.132 132.667 16.2387 132.457 15.6082 132.352C15.0827 132.195 14.7148 132.142 14.7148 132.142Z" fill="#E0E0E0"/>
<path d="M44.2463 169.577C44.2463 169.577 44.3514 169.472 44.4565 169.315C44.6141 169.105 44.7717 168.843 45.0345 168.528C45.5074 167.847 46.1905 166.798 47.0313 165.487C48.6603 162.918 50.8148 159.3 53.1794 155.211C55.4915 151.174 57.646 147.504 59.2224 144.935C60.0106 143.676 60.6412 142.628 61.1142 141.841C61.3243 141.527 61.482 141.212 61.6396 141.002C61.7447 140.793 61.7973 140.688 61.7973 140.688C61.7973 140.688 61.6922 140.793 61.5871 140.95C61.4294 141.16 61.2718 141.422 61.0091 141.736C60.5361 142.418 59.853 143.467 59.0122 144.777C57.3833 147.346 55.2288 150.964 52.8641 155.054C50.552 159.091 48.3976 162.761 46.8211 165.33C46.0329 166.588 45.4023 167.637 44.9294 168.423C44.7192 168.738 44.5616 169.052 44.4039 169.262C44.2463 169.472 44.1937 169.577 44.2463 169.577Z" fill="#E0E0E0"/>
<path d="M13.7148 153.691C13.7148 153.691 13.8199 153.744 14.0301 153.901C14.2929 154.006 14.5556 154.163 14.9234 154.373C15.7642 154.792 16.8677 155.369 18.1814 156.103C20.9139 157.519 24.7499 159.564 28.9012 161.818C33.105 164.073 36.8885 166.065 39.6735 167.481C41.0923 168.162 42.1958 168.739 42.984 169.106C43.3519 169.263 43.6671 169.42 43.8773 169.525C44.0875 169.63 44.1926 169.683 44.1926 169.63C44.1926 169.63 44.0875 169.578 43.8773 169.42C43.6146 169.316 43.3519 169.158 42.984 168.949C42.1433 168.529 41.0397 167.952 39.7261 167.218C36.941 165.803 33.1576 163.758 29.0063 161.504C24.8025 159.249 21.019 157.257 18.234 155.841C16.8152 155.159 15.7117 154.583 14.9234 154.216C14.5556 154.058 14.2403 153.901 14.0301 153.796C13.8199 153.691 13.7148 153.691 13.7148 153.691Z" fill="#E0E0E0"/>
<path d="M229.792 187.772C229.792 187.824 178.348 187.929 114.87 187.929C51.4444 187.929 0 187.877 0 187.772C0 187.719 51.4444 187.615 114.922 187.615C178.348 187.667 229.792 187.719 229.792 187.772Z" fill="#263238"/>
<path d="M47.3394 149.558L36.7247 165.968C36.7247 165.968 16.4412 160.725 14.1816 163.609L45.3951 185.263L62.9461 160.358L47.3394 149.558Z" fill="#00B1FF"/>
<path opacity="0.3" d="M47.3394 149.558L36.7247 165.968C36.7247 165.968 16.4412 160.725 14.1816 163.609L45.3951 185.263L62.9461 160.358L47.3394 149.558Z" fill="black"/>
<path d="M47.3392 171.317C47.8122 171.893 47.7596 172.89 47.2341 173.361C46.6561 173.886 45.6577 173.833 45.1848 173.257C44.7118 172.68 44.7118 171.526 45.3424 171.055C45.973 170.635 47.129 170.74 47.4443 171.422" fill="#E0E0E0"/>
<path d="M45.3951 185.262L47.1292 182.798L16.4937 162.927C16.4937 162.927 14.7071 162.56 14.1816 163.661L45.3951 185.262Z" fill="#E0E0E0"/>
<path d="M36.3578 165.496C36.2527 165.654 36.9884 166.23 37.3562 167.279C37.7766 168.275 37.7241 169.219 37.8817 169.219C38.0394 169.271 38.4597 168.223 37.9343 167.017C37.4613 165.758 36.4104 165.287 36.3578 165.496Z" fill="#263238"/>
<path d="M32.0997 164.553C31.9421 164.658 32.4675 165.392 32.5201 166.388C32.6252 167.384 32.2573 168.171 32.415 168.276C32.5201 168.381 33.2558 167.594 33.1507 166.336C33.0981 165.077 32.2048 164.396 32.0997 164.553Z" fill="#263238"/>
<path d="M27.5289 167.174C27.634 167.279 28.3697 166.702 28.5799 165.601C28.7901 164.5 28.2646 163.661 28.1595 163.766C28.0019 163.818 28.1595 164.605 27.9493 165.496C27.7917 166.387 27.3713 167.069 27.5289 167.174Z" fill="#263238"/>
<path d="M39.141 161.983C39.0885 162.14 39.9292 162.455 40.77 163.084C41.6108 163.713 42.0837 164.5 42.2413 164.395C42.399 164.342 42.1362 163.346 41.1904 162.56C40.2445 161.826 39.1936 161.826 39.141 161.983Z" fill="#263238"/>
<path d="M41.3493 158.733C41.2967 158.785 41.8222 159.309 42.9257 159.834C43.4512 160.096 44.1343 160.306 44.9225 160.463C45.2904 160.515 45.7108 160.568 46.1311 160.62C46.3413 160.62 46.5515 160.673 46.8668 160.568C47.1296 160.515 47.4974 160.201 47.4974 159.781C47.4974 159.414 47.2872 159.152 47.077 158.995C46.8668 158.838 46.6566 158.733 46.4464 158.68C46.026 158.523 45.6582 158.418 45.2378 158.313C44.4496 158.156 43.7139 158.156 43.1359 158.261C41.9273 158.418 41.2967 158.838 41.3493 158.89C41.4018 158.995 42.085 158.733 43.1885 158.733C43.7665 158.733 44.3971 158.733 45.1327 158.89C45.5006 158.995 45.8684 159.1 46.2362 159.257C46.6041 159.414 46.9194 159.572 46.8668 159.781C46.8668 159.834 46.8668 159.886 46.7092 159.939C46.5515 159.991 46.3939 159.991 46.1837 159.991C45.7633 159.991 45.3955 159.939 45.0276 159.886C44.292 159.781 43.6614 159.624 43.1359 159.414C42.0324 158.995 41.4018 158.628 41.3493 158.733Z" fill="#263238"/>
<path d="M41.4007 159.099C41.4532 159.152 42.1363 158.837 42.872 157.893C43.2398 157.422 43.6077 156.792 43.8704 156.058C43.9755 155.691 44.0806 155.272 44.1331 154.852C44.1857 154.433 44.2382 153.856 43.6602 153.384C43.3449 153.175 42.9245 153.227 42.7144 153.384C42.4516 153.542 42.294 153.699 42.1363 153.856C41.821 154.171 41.5583 154.538 41.4007 154.905C41.0328 155.639 40.9277 156.373 40.9277 157.002C40.9803 158.208 41.5058 158.837 41.5583 158.837C41.6634 158.785 41.3481 158.156 41.4007 157.055C41.4532 156.53 41.5583 155.849 41.9261 155.272C42.0838 154.957 42.294 154.643 42.5567 154.381C42.8195 154.066 43.1347 153.909 43.2398 154.014C43.3975 154.118 43.5026 154.538 43.45 154.905C43.3975 155.272 43.3449 155.691 43.2398 156.006C43.0296 156.688 42.7669 157.317 42.4516 157.789C41.9261 158.523 41.3481 158.994 41.4007 159.099Z" fill="#263238"/>
<path d="M50.5972 164.71L39.9825 181.173C39.9825 181.173 19.699 175.93 17.4395 178.814L48.6529 200.467L66.2039 175.563L50.5972 164.71Z" fill="#00B1FF"/>
<path d="M50.597 186.521C51.07 187.097 51.0174 188.093 50.492 188.565C49.9139 189.09 48.9155 189.037 48.4426 188.46C47.9696 187.884 47.9696 186.73 48.6002 186.258C49.2308 185.839 50.3869 185.944 50.7021 186.625" fill="#E0E0E0"/>
<path d="M48.6531 200.416L50.3872 197.951L19.8043 178.028C19.8043 178.028 18.0177 177.661 17.4922 178.762L48.6531 200.416Z" fill="#E0E0E0"/>
<path d="M39.6156 180.649C39.5105 180.806 40.2462 181.383 40.6141 182.432C41.0344 183.428 40.9819 184.371 41.1395 184.371C41.2972 184.424 41.7176 183.375 41.1921 182.169C40.7192 180.963 39.6682 180.492 39.6156 180.649Z" fill="#263238"/>
<path d="M35.4102 179.705C35.2526 179.81 35.7781 180.544 35.8306 181.54C35.9357 182.536 35.5679 183.323 35.7255 183.427C35.8306 183.532 36.5663 182.746 36.4612 181.488C36.3561 180.282 35.5153 179.6 35.4102 179.705Z" fill="#263238"/>
<path d="M30.7862 182.326C30.8913 182.431 31.6269 181.854 31.8371 180.753C32.0473 179.652 31.5218 178.813 31.4167 178.918C31.2591 178.97 31.4167 179.757 31.2065 180.648C31.0489 181.54 30.6811 182.221 30.7862 182.326Z" fill="#263238"/>
<path d="M42.4516 177.188C42.399 177.346 43.2398 177.66 44.0805 178.289C44.9213 178.919 45.3942 179.705 45.5519 179.6C45.7095 179.548 45.4468 178.552 44.5009 177.765C43.5025 177.031 42.4516 176.979 42.4516 177.188Z" fill="#263238"/>
<path d="M44.6598 173.885C44.6073 173.937 45.1328 174.462 46.2363 174.986C46.7617 175.248 47.4449 175.458 48.2331 175.615C48.6009 175.668 49.0213 175.72 49.4417 175.773C49.6519 175.773 49.8621 175.825 50.1774 175.72C50.4401 175.668 50.8079 175.353 50.8079 174.934C50.8079 174.567 50.5977 174.304 50.3876 174.147C50.1774 173.99 49.9672 173.885 49.757 173.833C49.3366 173.675 48.9688 173.57 48.5484 173.466C47.7602 173.308 47.0245 173.308 46.4465 173.413C45.2379 173.57 44.6073 173.99 44.6598 174.042C44.7124 174.147 45.3955 173.885 46.499 173.885C47.077 173.885 47.7076 173.885 48.4433 174.042C48.8111 174.147 49.179 174.252 49.5468 174.409C49.9146 174.567 50.2299 174.724 50.1774 174.934C50.1774 174.986 50.1774 175.038 50.0197 175.091C49.8621 175.143 49.7044 175.143 49.4942 175.143C49.0739 175.143 48.706 175.091 48.3382 175.038C47.6025 174.934 46.9719 174.776 46.4465 174.567C45.2904 174.147 44.7124 173.78 44.6598 173.885Z" fill="#263238"/>
<path d="M44.6585 174.252C44.711 174.304 45.3941 173.99 46.1298 173.046C46.4977 172.574 46.8655 171.945 47.1282 171.211C47.2333 170.844 47.3384 170.424 47.391 170.005C47.4435 169.585 47.4961 169.009 46.918 168.537C46.6028 168.327 46.1824 168.379 45.9722 168.537C45.7094 168.694 45.5518 168.851 45.3941 169.009C45.0789 169.323 44.8161 169.69 44.6585 170.057C44.2906 170.791 44.1855 171.525 44.1855 172.154C44.2381 173.36 44.7636 173.99 44.8161 173.99C44.9212 173.937 44.6059 173.308 44.6585 172.207C44.711 171.683 44.8161 171.001 45.184 170.424C45.3416 170.11 45.5518 169.795 45.8145 169.533C46.0773 169.218 46.3926 169.061 46.4977 169.166C46.6553 169.271 46.7604 169.69 46.7078 170.057C46.6553 170.424 46.6028 170.844 46.4977 171.158C46.2875 171.84 46.0247 172.469 45.7094 172.941C45.184 173.727 44.6059 174.147 44.6585 174.252Z" fill="#263238"/>
<path d="M46.1328 168.065C46.1328 168.065 55.2761 150.973 54.015 152.703C50.6519 157.317 70.4625 129.215 79.4482 114.796C82.3383 110.182 87.1727 107.089 92.6377 106.46C98.1552 105.831 103.62 107.771 107.509 111.755L158.585 164.028L182.337 177.817C182.337 177.817 176.504 190.243 157.639 192.865C138.827 195.486 127.214 180.229 117.703 170.582C106.51 159.152 95.3176 143.79 95.3176 143.79L65.5755 182.956C65.4704 182.956 47.0787 169.166 46.1328 168.065Z" fill="#263238"/>
<path d="M82.7577 109.553C75.8214 111.231 69.6733 115.32 65.4694 121.14L39.248 157.055L51.9121 165.705L82.7577 109.553Z" fill="#263238"/>
<path d="M78.3443 113.59C78.3443 113.59 78.2918 113.643 78.2392 113.747C78.1341 113.852 78.0816 113.957 77.9239 114.114C77.7663 114.272 77.6086 114.481 77.3984 114.691C77.1882 114.901 76.9781 115.215 76.7679 115.53C75.7695 116.788 74.5083 118.728 72.9844 121.14C69.9366 126.016 65.9955 132.832 61.6866 140.434C57.4302 148.037 53.5417 154.958 50.7041 159.938C49.2853 162.403 48.1293 164.447 47.341 165.863C46.9207 166.545 46.6579 167.069 46.3952 167.436C46.2901 167.593 46.2375 167.751 46.1324 167.855C46.0799 167.96 46.0273 168.013 46.0273 168.013C46.0273 168.013 46.0273 167.96 46.0799 167.855C46.1324 167.751 46.185 167.593 46.2901 167.436C46.5003 167.069 46.8156 166.492 47.1834 165.811C47.9716 164.395 49.0751 162.35 50.4414 159.886C53.2264 154.853 57.0624 147.932 61.3713 140.33C65.6803 132.727 69.6739 125.859 72.7217 121.035C74.2981 118.623 75.5593 116.683 76.5577 115.425C76.8204 115.111 77.0306 114.796 77.2408 114.586C77.451 114.377 77.6086 114.167 77.7663 114.01C77.9239 113.852 78.029 113.747 78.0816 113.643C78.3443 113.643 78.3443 113.59 78.3443 113.59Z" fill="#455A64"/>
<path d="M94.5291 134.195C94.5817 134.195 94.5817 134.772 94.5817 135.663C94.5817 136.554 94.6342 137.76 94.7919 139.123C94.9495 140.486 95.1597 141.692 95.3699 142.531C95.5801 143.423 95.6852 143.947 95.6852 143.947C95.6326 143.947 95.4224 143.423 95.2122 142.584C94.9495 141.745 94.6868 140.486 94.5291 139.123C94.3715 137.76 94.3715 136.502 94.424 135.61C94.3715 134.772 94.4766 134.195 94.5291 134.195Z" fill="#455A64"/>
<path d="M97.9968 133.095C98.0494 133.095 97.8392 133.671 97.5765 134.615C97.3137 135.559 96.9459 136.87 96.578 138.338C96.2628 139.806 96.0526 141.117 95.8949 142.113C95.7373 143.109 95.6847 143.686 95.6322 143.686C95.5796 143.686 95.5796 143.057 95.6847 142.113C95.7898 141.117 95.9475 139.753 96.2627 138.285C96.578 136.817 96.9984 135.507 97.3137 134.563C97.7341 133.671 97.9443 133.095 97.9968 133.095Z" fill="#455A64"/>
<path d="M132.468 44.3301L146.131 76.2077C148.443 81.608 145.763 87.8996 140.245 89.9444C135.095 91.8319 129.315 89.3677 127.161 84.3344C126.11 81.9226 125.269 79.9302 125.164 79.7205C125.164 79.7205 116.704 82.4469 112.658 74.6348C110.713 70.8598 107.35 62.838 104.355 55.4977C101.15 47.6332 104.565 38.6152 112.185 34.7878L112.92 34.4208C121.328 30.7507 129.105 35.8889 132.468 44.3301Z" fill="#FFBE9D"/>
<path d="M125.059 79.5628C125.059 79.5628 130.208 77.4656 133.834 71.541C133.834 71.541 134.254 78.3569 126.057 81.6076L125.059 79.5628Z" fill="#EB996E"/>
<path d="M109.189 60.269C109.452 60.8457 110.187 61.1079 110.818 60.8457C111.449 60.5836 111.764 59.8496 111.449 59.2728C111.186 58.6961 110.45 58.4339 109.82 58.6961C109.189 58.9582 108.926 59.6398 109.189 60.269Z" fill="#263238"/>
<path d="M107.612 58.7491C107.822 58.8015 108.348 57.7529 109.556 57.1762C110.765 56.547 111.973 56.7568 112.026 56.547C112.079 56.4422 111.763 56.2325 111.238 56.18C110.712 56.0752 109.924 56.1276 109.188 56.547C108.453 56.914 107.927 57.5432 107.717 57.9626C107.507 58.3821 107.507 58.7491 107.612 58.7491Z" fill="#263238"/>
<path d="M120.959 54.5547C121.222 55.1314 121.957 55.3935 122.588 55.1314C123.218 54.8692 123.534 54.1352 123.218 53.5585C122.956 52.9817 122.22 52.7196 121.589 52.9817C121.011 53.2439 120.696 53.9255 120.959 54.5547Z" fill="#263238"/>
<path d="M119.803 52.8243C120.013 52.9291 120.696 51.9329 121.957 51.5135C123.218 51.0416 124.374 51.4086 124.48 51.1989C124.532 51.094 124.269 50.8843 123.744 50.727C123.218 50.5697 122.483 50.5173 121.642 50.7795C120.854 51.0416 120.276 51.5659 120.013 52.0378C119.75 52.4572 119.75 52.7718 119.803 52.8243Z" fill="#263238"/>
<path d="M120.013 63.8344C119.96 63.782 119.172 63.9917 117.858 64.4636C117.543 64.5684 117.228 64.6733 117.07 64.4636C116.86 64.2539 116.86 63.8869 116.807 63.4674C116.702 62.5761 116.65 61.6324 116.545 60.6886C116.124 56.7039 115.651 53.5581 115.494 53.5581C115.336 53.5581 115.546 56.8088 115.967 60.741C116.072 61.7372 116.177 62.6285 116.282 63.5199C116.335 63.9393 116.335 64.4112 116.702 64.8306C116.913 65.0403 117.228 65.0928 117.438 65.0403C117.648 64.9879 117.858 64.9355 118.016 64.8306C119.277 64.3063 120.065 63.8869 120.013 63.8344Z" fill="#263238"/>
<path d="M124.481 48.158C124.27 47.8434 123.009 48.2104 121.38 48.2629C119.804 48.3677 118.438 48.1056 118.28 48.4726C118.227 48.6299 118.49 48.9445 119.068 49.2066C119.646 49.4688 120.487 49.6785 121.433 49.6261C122.379 49.5737 123.22 49.3115 123.745 48.9445C124.323 48.6299 124.533 48.3153 124.481 48.158Z" fill="#263238"/>
<path d="M109.399 54.3975C109.031 54.2927 108.453 55.0267 107.507 55.6559C106.614 56.3375 105.668 56.5996 105.668 57.019C105.668 57.1763 105.983 57.3861 106.456 57.3861C106.929 57.3861 107.665 57.2288 108.295 56.7569C108.926 56.3374 109.346 55.7083 109.451 55.2364C109.662 54.7645 109.557 54.45 109.399 54.3975Z" fill="#263238"/>
<path d="M134.729 50.4641C134.834 50.3592 139.3 46.1648 141.822 51.6176C144.345 57.0703 138.354 58.4335 138.249 58.2762C138.249 58.1189 134.729 50.4641 134.729 50.4641Z" fill="#FFBE9D"/>
<path d="M139.036 55.4449C139.036 55.3925 139.142 55.4449 139.352 55.4449C139.562 55.4449 139.825 55.3925 140.087 55.1304C140.56 54.6585 140.613 53.505 140.193 52.5088C139.982 51.9845 139.667 51.5651 139.299 51.2505C138.931 50.9359 138.564 50.7786 138.248 50.8311C137.933 50.8835 137.828 51.1457 137.828 51.3554C137.828 51.5651 137.933 51.6175 137.88 51.67C137.88 51.67 137.723 51.6175 137.67 51.4078C137.618 51.303 137.67 51.1457 137.723 50.9884C137.828 50.8311 137.985 50.6738 138.196 50.6214C138.616 50.4641 139.194 50.6738 139.562 50.9884C139.982 51.303 140.35 51.7748 140.613 52.3516C141.086 53.4526 140.981 54.7633 140.298 55.3401C139.982 55.6022 139.562 55.6547 139.352 55.6022C139.089 55.6022 138.984 55.4974 139.036 55.4449Z" fill="#EB996E"/>
<path d="M137.616 48.7869C136.723 48.9967 135.672 50.4647 135.725 51.4084C135.777 52.3522 136.092 53.2435 136.145 54.1873C136.197 55.131 135.725 56.232 134.831 56.4418C134.201 56.599 133.518 56.2845 133.097 55.7602C132.677 55.2883 132.414 54.6591 132.204 54.03C131.258 51.356 130.522 48.6296 129.366 46.0606C128.21 43.4915 126.529 41.0797 124.111 39.5592C121.694 38.0912 118.489 37.7242 116.072 39.1922C114.495 40.136 113.392 41.8137 111.868 42.8623C110.029 44.1206 107.611 44.4877 105.509 43.7536C105.457 43.7536 105.299 43.7012 105.142 43.7012C104.406 43.5963 103.828 43.0196 103.775 42.2856C103.775 42.0234 103.775 41.8137 103.828 41.604C105.562 36.9377 111.08 33.1103 115.967 32.0617C120.853 30.9607 126.476 32.0093 130.365 35.1027C134.306 38.2485 136.618 44.1731 137.616 48.7869Z" fill="#263238"/>
<path d="M124.481 65.3021C124.481 65.407 124.166 65.407 123.798 65.4594C123.378 65.5118 122.852 65.7216 122.327 66.0886C121.801 66.4556 121.433 66.875 121.223 67.242C121.013 67.609 120.855 67.8188 120.803 67.8188C120.75 67.8188 120.698 67.5042 120.908 67.0847C121.066 66.6653 121.433 66.0886 122.064 65.6691C122.642 65.2497 123.325 65.0924 123.798 65.1448C124.218 65.0924 124.481 65.2497 124.481 65.3021Z" fill="#263238"/>
<path d="M125.428 53.7158C125.48 53.7158 125.375 54.3974 124.797 54.9217C124.219 55.446 123.483 55.4984 123.536 55.446C123.536 55.3936 124.114 55.2363 124.639 54.712C125.165 54.2926 125.375 53.7158 125.428 53.7158Z" fill="#EB996E"/>
<path d="M81.7578 63.4146L90.0604 48.2623L96.8916 42.7571L105.72 43.963C105.72 43.963 108.242 46.8466 107.296 48.2623C106.298 49.6779 105.457 53.2431 104.458 51.9848C103.46 50.674 103.25 47.9477 103.25 47.9477L100.938 47.8428V51.9324L105.615 53.348C105.615 53.348 110.239 49.5206 110.712 50.3595C111.185 51.1983 110.764 52.7712 108.137 55.0257C105.509 57.2802 102.251 60.7406 102.251 60.7406L98.1002 61.7368L94.3693 67.7139L81.7578 63.4146Z" fill="#FFBE9D"/>
<path d="M128.579 82.8667L85.0166 96.0791L95.2109 67.0852L81.3908 62.7859L65.679 94.978C60.9497 106.093 62.2108 111.022 66.6248 115.898C70.1456 119.778 79.4991 117.89 84.6488 116.894L122.746 110.969L128.579 82.8667Z" fill="#00A9F3"/>
<path d="M77.0819 80.0877C77.0819 80.1401 76.1886 80.1401 75.1376 80.0352C74.0867 79.9304 73.1934 79.7731 73.1934 79.6682C73.1934 79.6158 74.0867 79.6158 75.1376 79.7207C76.1886 79.8255 77.0819 79.9828 77.0819 80.0877Z" fill="#FAFAFA"/>
<path d="M77.7648 78.5143C77.7648 78.5667 76.9241 78.4094 75.9782 78.1473C74.9798 77.8851 74.2441 77.5705 74.2441 77.5181C74.2441 77.4657 75.0849 77.623 76.0308 77.8851C76.9766 78.1473 77.7648 78.4619 77.7648 78.5143Z" fill="#FAFAFA"/>
<path d="M120.434 107.299C120.434 107.299 137.985 135.559 137.88 139.753C137.775 143.947 146.025 153.175 149.651 156.793C153.276 160.411 174.296 177.765 182.283 177.765C182.283 177.765 192.582 162.927 191.847 154.224C191.111 145.52 174.926 99.5915 174.926 99.5915C174.926 99.5915 162.367 73.2715 150.754 70.7024C147.812 70.0733 143.082 69.0247 143.082 69.0247C143.082 69.2344 143.765 75.0017 137.933 78.567C129.735 83.5478 120.014 87.1131 120.014 87.1131L120.434 107.299Z" fill="#00B1FF"/>
<path d="M140.822 79.1444L114.548 86.6944L91.6375 91.4655L101.832 62.4716L87.2235 57.9102L72.2473 90.3645C67.518 101.48 68.7792 106.408 73.1932 111.284C76.7139 115.164 86.0674 113.276 91.2171 112.28L135.935 108.086L140.822 79.1444Z" fill="#00B1FF"/>
<path d="M88.3789 58.1719L96.3136 43.7012L103.145 38.196L111.973 39.4019C111.973 39.4019 114.495 42.2856 113.549 43.7012C112.551 45.1168 111.71 48.6821 110.712 47.4237C109.713 46.113 109.503 43.3866 109.503 43.3866L107.191 43.2818V47.3713L111.868 48.7869C111.868 48.7869 116.492 44.9595 116.965 45.7984C117.438 46.6373 117.018 48.2102 114.39 50.4647C111.763 52.7192 108.505 56.1796 108.505 56.1796L104.353 57.1758L101.096 62.3663L88.3789 58.1719Z" fill="#FFBE9D"/>
<path d="M101.096 62.2093C101.096 62.2093 101.096 62.1568 101.149 62.1044C101.201 62.052 101.254 61.9471 101.306 61.8423C101.464 61.5801 101.674 61.2655 101.937 60.8461C102.515 59.9548 103.303 58.644 104.301 57.0187H104.354C105.563 56.7041 106.981 56.3895 108.505 56.0225H108.453C110.187 54.135 112.289 51.9854 114.864 49.8357C115.494 49.259 116.072 48.6299 116.545 47.8958C116.755 47.5288 116.966 47.1094 117.018 46.6899C117.071 46.4802 117.071 46.2705 117.018 46.0608C117.018 45.9559 116.966 45.851 116.913 45.7986C116.913 45.7462 116.808 45.7462 116.703 45.7462C116.282 45.7986 115.862 46.0608 115.494 46.2705C115.074 46.5326 114.706 46.7948 114.338 47.0569C113.55 47.6337 112.814 48.2104 112.026 48.8396L111.973 48.892H111.921C110.45 48.4201 108.873 47.9483 107.244 47.4764L107.139 47.424V47.3191C107.139 46.0083 107.139 44.6451 107.139 43.2295V43.0722H107.297C108.032 43.1247 108.821 43.1771 109.609 43.1771H109.714V43.282C109.819 44.383 110.029 45.5365 110.502 46.5851C110.607 46.7948 110.712 47.0045 110.817 47.1618C110.923 47.3715 111.08 47.4764 111.238 47.4764C111.395 47.4764 111.553 47.2667 111.658 47.1094C111.763 46.9521 111.921 46.7424 112.026 46.5326C112.446 45.6938 112.762 44.8549 113.235 44.016C113.287 43.9111 113.34 43.8063 113.392 43.7014C113.445 43.5965 113.497 43.4917 113.55 43.4393C113.55 43.3868 113.602 43.3344 113.602 43.282L113.655 43.1247C113.708 43.0198 113.708 42.915 113.708 42.8101C113.708 42.3907 113.55 41.9712 113.392 41.5518C113.024 40.7653 112.499 40.0313 111.973 39.3497L112.079 39.4021C108.978 38.9827 106.036 38.5632 103.251 38.1962H103.356C100.886 40.1886 98.5738 42.0236 96.5244 43.649L96.5769 43.5965C94.1072 48.0007 92.1104 51.6184 90.7441 54.135C90.061 55.3933 89.5355 56.3371 89.1151 57.0187C88.9575 57.3333 88.7999 57.5954 88.6948 57.7527C88.5897 57.91 88.5371 58.0149 88.5371 58.0149C88.5371 58.0149 88.5897 57.91 88.6422 57.7527C88.7473 57.5954 88.8524 57.3333 89.0626 56.9663C89.4304 56.2847 89.9559 55.2885 90.639 54.0826C92.0053 51.5659 94.0021 47.9483 96.3668 43.4917C98.4161 41.8139 100.728 39.9789 103.198 37.9865L103.251 37.9341H103.303C106.088 38.3011 109.031 38.7205 112.131 39.14H112.184L112.236 39.1924C112.814 39.874 113.34 40.608 113.708 41.4469C113.865 41.8663 114.023 42.3382 114.023 42.8101C114.023 42.915 114.023 43.0722 113.97 43.1771L113.918 43.3344C113.918 43.3868 113.865 43.4393 113.813 43.4917C113.76 43.5965 113.708 43.7014 113.655 43.8063C113.602 43.9111 113.55 44.016 113.497 44.1209C113.077 44.9073 112.762 45.7986 112.289 46.6375C112.184 46.8472 112.079 47.0569 111.921 47.2667C111.763 47.4764 111.606 47.6861 111.29 47.7385C111.133 47.791 110.975 47.6861 110.87 47.6337C110.765 47.5288 110.66 47.424 110.607 47.3191C110.45 47.1094 110.344 46.8997 110.239 46.6899C109.766 45.5889 109.556 44.383 109.451 43.282L109.556 43.3868C108.768 43.3344 107.98 43.282 107.244 43.282L107.402 43.1247C107.402 44.5403 107.402 45.9035 107.402 47.2142L107.297 47.1094C108.926 47.5812 110.502 48.1055 111.973 48.525H111.868C112.657 47.8958 113.392 47.3191 114.18 46.7424C114.548 46.4802 114.969 46.2181 115.389 45.9559C115.809 45.7462 116.177 45.484 116.703 45.3792C116.808 45.3792 117.018 45.3792 117.123 45.5365C117.176 45.6413 117.228 45.7462 117.281 45.9035C117.333 46.1656 117.333 46.3753 117.281 46.6375C117.228 47.1094 117.018 47.5288 116.755 47.8958C116.282 48.6823 115.652 49.3114 115.021 49.8357C112.446 51.9854 110.344 54.135 108.61 55.9701C107.034 56.3371 105.668 56.6517 104.459 56.9138L104.512 56.8614C103.461 58.4867 102.672 59.7975 102.094 60.6888C101.832 61.1082 101.622 61.4228 101.464 61.685C101.411 61.7898 101.359 61.8947 101.306 61.9471C101.096 62.2093 101.096 62.2093 101.096 62.2093Z" fill="#EB996E"/>
<path d="M138.458 114.692C138.458 114.692 138.196 114.534 137.828 114.272C137.618 114.115 137.407 113.958 137.092 113.748C136.777 113.538 136.462 113.329 136.094 113.119C135.358 112.647 134.412 112.175 133.361 111.703C132.31 111.231 131.102 110.812 129.788 110.497C127.213 109.816 124.743 109.658 123.009 109.658C122.116 109.658 121.433 109.658 120.907 109.658C120.434 109.658 120.119 109.658 120.119 109.658C120.119 109.658 120.382 109.606 120.855 109.554C121.328 109.501 122.063 109.449 122.957 109.449C124.743 109.449 127.161 109.554 129.788 110.235C131.102 110.55 132.31 111.022 133.361 111.494C134.412 111.965 135.358 112.49 136.094 112.962C136.462 113.171 136.777 113.433 137.092 113.643C137.355 113.853 137.618 114.01 137.775 114.22C138.248 114.482 138.458 114.692 138.458 114.692Z" fill="#263238"/>
<path d="M135.568 80.5077C135.568 80.5077 135.305 80.6126 134.78 80.8223C134.202 80.9796 133.466 81.2418 132.625 81.5039C130.786 82.0807 128.211 82.8671 125.426 83.6536C122.589 84.4925 120.066 85.2265 118.175 85.7508C117.281 86.0129 116.546 86.2227 115.968 86.3799C115.442 86.5372 115.127 86.5897 115.127 86.5897C115.127 86.5897 115.39 86.4848 115.915 86.3275C116.493 86.1702 117.229 85.9081 118.07 85.6459C119.909 85.0692 122.484 84.2827 125.269 83.4963C128.106 82.6574 130.629 81.9234 132.52 81.3991C133.414 81.1369 134.149 80.9272 134.727 80.7699C135.253 80.5602 135.568 80.4553 135.568 80.5077Z" fill="#263238"/>
<path d="M176.974 155.745C176.974 155.745 176.869 155.85 176.711 156.06C176.606 156.165 176.501 156.269 176.344 156.427C176.186 156.584 176.028 156.741 175.818 156.899C174.977 157.58 173.611 158.367 171.772 158.838C169.933 159.31 167.568 159.415 165.098 158.891C162.629 158.367 160.106 157.108 157.689 155.483C155.272 153.858 153.223 152.023 151.331 150.397C149.439 148.719 147.758 147.251 146.234 146.15C144.71 144.997 143.449 144.21 142.503 143.686C142.03 143.424 141.662 143.214 141.452 143.109C141.189 143.005 141.084 142.9 141.084 142.9C141.084 142.9 141.242 142.952 141.504 143.057C141.767 143.162 142.135 143.372 142.608 143.581C143.554 144.053 144.867 144.892 146.391 145.993C147.915 147.094 149.649 148.562 151.541 150.24C153.433 151.865 155.535 153.7 157.899 155.326C160.264 156.951 162.786 158.157 165.203 158.681C167.621 159.206 169.933 159.153 171.772 158.681C173.611 158.262 174.977 157.475 175.818 156.846C176.028 156.689 176.186 156.532 176.344 156.427C176.501 156.322 176.606 156.165 176.711 156.06C176.869 155.85 176.974 155.745 176.974 155.745Z" fill="#263238"/>
<path d="M167.043 125.964C167.043 125.964 166.833 126.017 166.517 126.017C166.202 126.017 165.677 126.017 165.098 125.964C164.52 125.912 163.785 125.807 162.997 125.597C162.208 125.388 161.42 125.126 160.579 124.706C159.739 124.287 159.003 123.867 158.32 123.395C157.689 122.923 157.111 122.452 156.691 122.032C156.27 121.613 155.955 121.246 155.745 120.984C155.535 120.721 155.43 120.564 155.43 120.564C155.482 120.512 155.955 121.088 156.796 121.927C157.216 122.347 157.794 122.766 158.425 123.238C159.055 123.657 159.791 124.129 160.632 124.496C161.473 124.863 162.261 125.178 162.997 125.388C163.732 125.597 164.468 125.755 165.046 125.807C166.307 125.912 167.043 125.912 167.043 125.964Z" fill="#263238"/>
<g opacity="0.2">
<path opacity="0.2" d="M146.971 146.465C149.125 145.573 151.595 146.255 153.539 147.513C155.483 148.772 157.06 150.502 158.794 151.97C160.528 153.49 162.63 154.801 164.942 154.854C168.253 154.958 171.248 152.494 174.611 152.494C175.872 152.494 177.343 153.176 177.396 154.382C177.448 155.326 176.66 156.112 175.819 156.636C172.194 158.996 169.776 160.621 161.894 157.58C156.429 154.696 151.49 150.921 146.971 146.465Z" fill="black"/>
</g>
<path d="M138.299 139.701C138.247 139.753 134.516 132.99 129.944 124.653C125.373 116.317 121.747 109.501 121.852 109.501C121.904 109.449 125.635 116.212 130.207 124.549C134.726 132.885 138.352 139.648 138.299 139.701Z" fill="#263238"/>
<path d="M113.077 110.025C113.077 110.025 112.92 109.763 112.71 109.239C112.499 108.714 112.184 107.98 111.816 106.984C111.133 105.097 110.24 102.423 109.557 99.4342C108.821 96.4456 108.401 93.6668 108.19 91.6745C108.085 90.6783 107.98 89.8394 107.98 89.3151C107.928 88.7384 107.928 88.4238 107.928 88.4238C107.928 88.4238 107.98 88.7384 108.085 89.3151C108.138 89.8919 108.243 90.6783 108.401 91.6745C108.663 93.6668 109.136 96.4456 109.872 99.4342C110.608 102.423 111.396 105.097 112.079 106.984C112.394 107.928 112.657 108.714 112.867 109.239C113.025 109.71 113.13 110.025 113.077 110.025Z" fill="#FAFAFA"/>
<path d="M116.124 109.973C116.124 109.973 115.966 109.658 115.756 109.134C115.546 108.61 115.231 107.771 114.915 106.775C114.232 104.782 113.444 102.004 112.813 98.8577C112.183 95.7119 111.762 92.8282 111.605 90.731C111.5 89.6824 111.447 88.8435 111.447 88.2668C111.447 87.6901 111.395 87.3755 111.447 87.3755C111.447 87.3755 111.5 87.6901 111.552 88.2668C111.605 88.8435 111.71 89.6824 111.815 90.731C112.025 92.8282 112.446 95.6595 113.076 98.8053C113.707 101.951 114.495 104.73 115.126 106.722C115.441 107.718 115.704 108.505 115.861 109.082C116.071 109.658 116.176 109.973 116.124 109.973Z" fill="#FAFAFA"/>
<path d="M155.535 121.089C155.535 121.089 155.43 121.141 155.273 121.193C155.062 121.246 154.852 121.298 154.537 121.351C153.906 121.508 152.961 121.718 151.804 121.928C149.492 122.347 146.287 122.871 142.714 123.133C139.14 123.396 135.882 123.448 133.518 123.343C132.362 123.291 131.416 123.238 130.733 123.186C130.417 123.133 130.207 123.133 129.997 123.133C129.839 123.133 129.734 123.081 129.734 123.081C129.734 123.081 129.839 123.081 129.997 123.081C130.207 123.081 130.47 123.081 130.733 123.081C131.363 123.081 132.362 123.133 133.518 123.133C135.882 123.186 139.088 123.133 142.661 122.819C146.234 122.557 149.44 122.085 151.752 121.718C152.908 121.508 153.854 121.351 154.484 121.246C154.8 121.193 155.01 121.141 155.22 121.089C155.43 121.089 155.535 121.089 155.535 121.089Z" fill="#FAFAFA"/>
<path d="M177.711 112.28C177.711 112.28 177.501 112.49 177.028 112.804C176.608 113.171 175.924 113.643 175.084 114.167C173.402 115.268 171.038 116.736 168.305 118.1C165.573 119.463 162.945 120.406 161.053 121.036C160.108 121.35 159.319 121.56 158.794 121.717C158.268 121.875 157.953 121.927 157.953 121.927C157.953 121.927 158.216 121.822 158.794 121.612C159.319 121.455 160.108 121.193 161.053 120.826C162.945 120.144 165.52 119.148 168.252 117.837C170.985 116.474 173.402 115.111 175.084 114.01C175.924 113.486 176.608 113.014 177.08 112.699C177.448 112.437 177.711 112.28 177.711 112.28Z" fill="#FAFAFA"/>
<path d="M177.29 107.667C177.29 107.667 177.237 107.719 177.185 107.771C177.08 107.824 176.975 107.929 176.87 107.981C176.554 108.191 176.134 108.505 175.661 108.872C175.398 109.082 175.083 109.292 174.768 109.502C174.452 109.711 174.085 109.973 173.664 110.183C172.876 110.655 171.983 111.284 170.932 111.809C170.406 112.123 169.881 112.385 169.303 112.7C168.725 113.014 168.147 113.277 167.516 113.591C166.307 114.22 164.941 114.797 163.47 115.426C160.58 116.632 157.322 117.733 153.854 118.624C150.333 119.516 146.97 120.04 143.869 120.355C142.293 120.459 140.822 120.617 139.455 120.617C138.772 120.617 138.089 120.669 137.459 120.669C136.828 120.669 136.197 120.669 135.619 120.617C134.463 120.617 133.36 120.512 132.467 120.459C131.994 120.407 131.573 120.407 131.153 120.355C130.732 120.302 130.417 120.25 130.049 120.197C129.419 120.092 128.893 120.04 128.525 119.988C128.368 119.988 128.263 119.935 128.158 119.935C128.053 119.935 128 119.935 128 119.883C128 119.883 128.053 119.883 128.158 119.883C128.263 119.883 128.368 119.883 128.525 119.935C128.893 119.988 129.419 120.04 130.049 120.092C130.365 120.145 130.732 120.145 131.153 120.197C131.573 120.25 131.994 120.25 132.467 120.25C133.412 120.302 134.463 120.407 135.619 120.355C136.197 120.355 136.828 120.355 137.459 120.355C138.089 120.355 138.772 120.302 139.455 120.302C140.822 120.302 142.293 120.145 143.869 119.988C146.97 119.673 150.333 119.096 153.801 118.257C157.269 117.366 160.527 116.265 163.365 115.059C164.784 114.43 166.15 113.853 167.358 113.224C167.989 112.91 168.567 112.647 169.145 112.333C169.723 112.018 170.249 111.704 170.774 111.441C171.825 110.917 172.718 110.288 173.506 109.816C173.927 109.554 174.295 109.344 174.61 109.135C174.925 108.925 175.241 108.715 175.503 108.505C176.029 108.138 176.449 107.876 176.764 107.667C176.922 107.562 177.027 107.509 177.08 107.457C177.237 107.667 177.29 107.667 177.29 107.667Z" fill="#FAFAFA"/>
<path d="M98.0478 73.2725C98.0478 73.3249 94.4745 72.3812 90.1656 71.1229C85.8041 69.8645 82.3359 68.7635 82.3359 68.7111C82.3359 68.6586 85.9092 69.6024 90.2181 70.8607C94.5796 72.119 98.0478 73.1676 98.0478 73.2725Z" fill="#FAFAFA"/>
<path d="M97.3652 75.2123C97.3652 75.2648 93.7394 74.321 89.3254 73.0102C84.9113 71.7519 81.3906 70.6509 81.3906 70.546C81.3906 70.4936 85.0164 71.4373 89.4304 72.7481C93.8445 74.0589 97.3652 75.1599 97.3652 75.2123Z" fill="#FAFAFA"/>
<g opacity="0.3">
<path opacity="0.3" d="M142.66 123.447C142.45 118.833 139.297 114.639 135.251 112.384C131.205 110.077 126.528 109.448 121.852 109.71L133.675 130.158C135.146 130.211 136.302 130.211 137.721 129.948C139.192 129.634 140.611 128.952 141.504 127.746C142.503 126.488 142.766 124.915 142.66 123.447Z" fill="black"/>
</g>
<path d="M205.769 164.92C205.769 164.92 205.821 164.815 205.874 164.605C205.979 164.396 206.136 164.081 206.294 163.714C206.662 162.928 207.135 161.722 207.503 160.149C208.343 156.951 208.606 152.127 207.398 146.36C206.819 143.476 205.926 140.383 204.823 137.079C203.719 133.776 202.458 130.316 201.46 126.541C200.461 122.766 199.62 118.676 199.778 114.43C199.936 110.13 201.197 105.831 202.616 101.584C204.034 97.3374 205.453 93.143 205.874 88.9485C206.347 84.7541 205.453 80.6646 203.562 77.2566C201.722 73.8486 199.358 70.9125 197.624 67.924C195.837 64.9355 194.733 61.8421 194.05 58.9584C192.737 53.1387 193.21 48.2627 193.84 45.0644C194.523 41.8138 195.312 40.136 195.312 40.136C195.312 40.136 195.312 40.2408 195.206 40.4506C195.154 40.6603 195.049 40.9749 194.891 41.3943C194.628 42.2332 194.313 43.4391 193.998 45.0644C193.42 48.2627 192.999 53.1387 194.366 58.8536C195.049 61.6848 196.152 64.7782 197.939 67.7143C199.673 70.7028 202.038 73.5865 203.929 77.0469C205.874 80.4548 206.819 84.7017 206.347 88.9485C205.926 93.1954 204.455 97.4422 203.036 101.689C201.617 105.936 200.356 110.183 200.198 114.43C200.041 118.624 200.829 122.714 201.827 126.436C202.826 130.211 204.087 133.672 205.138 136.975C206.241 140.278 207.135 143.371 207.66 146.307C208.816 152.127 208.501 157.003 207.608 160.201C207.187 161.774 206.662 162.98 206.294 163.766C206.084 164.133 205.926 164.448 205.821 164.658C205.821 164.815 205.769 164.92 205.769 164.92Z" fill="#263238"/>
<path d="M200.041 70.8605C200.041 70.8605 196.52 59.5356 202.878 52.9294C203.088 52.7197 203.509 52.8246 203.561 53.1391C203.877 54.9742 204.297 60.6891 200.041 70.8605Z" fill="#FB2193"/>
<path d="M202.142 56.7039C202.194 56.7039 202.089 57.4903 201.879 58.8011C201.669 60.2167 201.354 61.9469 201.091 63.782C200.776 65.6694 200.513 67.3472 200.303 68.7628C200.093 70.0212 199.987 70.8076 199.935 70.8076C199.882 70.8076 199.882 70.0211 199.987 68.7104C200.093 67.3996 200.355 65.617 200.671 63.6771C200.986 61.7372 201.354 59.9546 201.616 58.6962C201.879 57.4379 202.089 56.6515 202.142 56.7039Z" fill="#263238"/>
<path d="M204.195 97.4951C204.195 97.4951 206.35 85.8556 215.073 82.972C215.388 82.8671 215.651 83.1293 215.598 83.4438C215.02 85.2789 212.761 90.5219 204.195 97.4951Z" fill="#FB2193"/>
<path d="M212.705 86.0133C212.757 86.0657 212.284 86.6949 211.496 87.7435C210.603 88.897 209.604 90.2601 208.448 91.7806C207.292 93.3011 206.294 94.6643 205.401 95.8177C204.612 96.8664 204.14 97.4955 204.087 97.4431C204.034 97.3907 204.402 96.7091 205.138 95.608C205.821 94.507 206.872 93.0389 208.081 91.466C209.289 89.8931 210.393 88.4775 211.233 87.5338C212.127 86.5376 212.652 85.9609 212.705 86.0133Z" fill="#263238"/>
<path d="M201.828 126.751C201.828 126.751 200.515 114.954 208.029 109.711C208.292 109.501 208.66 109.711 208.66 110.025C208.66 111.913 207.977 117.575 201.828 126.751Z" fill="#FB2193"/>
<path d="M206.662 113.224C206.715 113.224 206.452 114.01 206.032 115.216C205.506 116.579 204.928 118.205 204.298 119.935C203.667 121.717 203.089 123.29 202.564 124.653C202.143 125.859 201.881 126.646 201.775 126.593C201.723 126.593 201.881 125.807 202.248 124.549C202.616 123.29 203.194 121.612 203.877 119.725C204.561 117.89 205.244 116.212 205.769 115.006C206.242 113.958 206.557 113.224 206.662 113.224Z" fill="#263238"/>
<path d="M208.397 156.112C208.397 156.112 207.504 144.315 215.176 139.281C215.438 139.124 215.806 139.281 215.806 139.648C215.754 141.536 214.86 147.198 208.397 156.112Z" fill="#FB2193"/>
<path d="M213.704 142.794C213.757 142.794 213.494 143.58 213.021 144.786C212.443 146.149 211.812 147.722 211.129 149.453C210.393 151.183 209.763 152.808 209.237 154.119C208.765 155.325 208.449 156.059 208.397 156.059C208.344 156.059 208.554 155.272 208.922 154.014C209.343 152.756 209.973 151.078 210.709 149.295C211.444 147.46 212.18 145.835 212.758 144.681C213.231 143.476 213.651 142.794 213.704 142.794Z" fill="#263238"/>
<path d="M194.944 60.8981C194.944 60.8981 184.435 55.3929 184.225 46.2701C184.225 45.9555 184.592 45.7458 184.855 45.9555C186.379 47.0041 190.741 50.7267 194.944 60.8981Z" fill="#FB2193"/>
<path d="M186.379 49.4156C186.432 49.3632 186.905 49.9924 187.693 51.041C188.534 52.1944 189.532 53.6101 190.636 55.1305C191.739 56.651 192.738 58.0142 193.631 59.2201C194.419 60.2687 194.892 60.8979 194.84 60.9503C194.787 61.0027 194.209 60.426 193.368 59.4298C192.528 58.4337 191.424 57.018 190.268 55.3927C189.112 53.7674 188.113 52.2993 187.378 51.1983C186.747 50.1497 186.327 49.4681 186.379 49.4156Z" fill="#263238"/>
<path d="M206.241 85.1733C206.241 85.1733 195.416 80.3497 194.628 71.1744C194.576 70.8598 194.943 70.6501 195.206 70.8074C196.888 71.856 201.407 75.264 206.241 85.1733Z" fill="#FB2193"/>
<path d="M196.992 74.2157C197.045 74.1633 197.57 74.7924 198.411 75.7886C199.357 76.8896 200.408 78.2528 201.616 79.7209C202.825 81.1889 203.929 82.4997 204.822 83.6007C205.663 84.5969 206.188 85.226 206.136 85.226C206.083 85.2785 205.505 84.7542 204.612 83.8104C203.718 82.8667 202.51 81.5035 201.301 79.983C200.04 78.4625 198.936 77.0469 198.201 75.9983C197.413 74.9497 196.992 74.2681 196.992 74.2157Z" fill="#263238"/>
<path d="M199.988 112.28C199.988 112.28 192.527 103.053 196.047 94.5591C196.153 94.2445 196.573 94.2445 196.731 94.5067C197.782 96.132 200.251 101.27 199.988 112.28Z" fill="#FB2193"/>
<path d="M196.783 98.3337C196.836 98.3337 197.046 99.1202 197.309 100.379C197.624 101.794 197.992 103.472 198.36 105.307C198.78 107.142 199.148 108.82 199.463 110.235C199.726 111.494 199.936 112.28 199.884 112.28C199.831 112.28 199.516 111.546 199.148 110.288C198.78 109.03 198.36 107.299 197.939 105.359C197.519 103.419 197.204 101.689 196.993 100.379C196.836 99.1202 196.731 98.3337 196.783 98.3337Z" fill="#263238"/>
<path d="M207.397 144.158C207.397 144.158 196.625 139.124 196.047 130.002C196.047 129.687 196.362 129.477 196.625 129.635C198.201 130.631 202.72 134.144 207.397 144.158Z" fill="#FB2193"/>
<path d="M198.358 133.043C198.41 132.99 198.936 133.62 199.724 134.616C200.617 135.769 201.668 137.08 202.877 138.6C204.033 140.068 205.137 141.432 206.03 142.533C206.818 143.529 207.344 144.158 207.291 144.21C207.239 144.263 206.66 143.686 205.767 142.742C204.874 141.799 203.718 140.435 202.509 138.863C201.301 137.29 200.197 135.874 199.461 134.825C198.726 133.777 198.305 133.095 198.358 133.043Z" fill="#263238"/>
<path d="M228.787 97.5996C228.787 97.5996 228.787 97.7045 228.787 97.8618C228.787 98.0715 228.787 98.3336 228.787 98.5958C228.734 99.3298 228.734 100.274 228.682 101.479C228.524 103.996 228.366 107.509 228.104 111.756C227.315 116.055 225.161 120.774 222.218 125.388C220.064 128.796 217.804 131.889 215.86 134.773C213.916 137.656 212.234 140.278 211.078 142.637C209.922 144.997 209.239 146.989 208.871 148.404C208.661 149.086 208.556 149.663 208.451 150.03C208.346 150.397 208.293 150.607 208.293 150.607C208.293 150.607 208.293 150.397 208.346 150.03C208.398 149.663 208.503 149.086 208.661 148.352C209.029 146.936 209.659 144.892 210.763 142.48C211.866 140.068 213.548 137.394 215.492 134.51C217.436 131.627 219.696 128.533 221.798 125.125C224.74 120.512 226.895 115.845 227.683 111.651C227.998 107.456 228.209 103.944 228.419 101.427C228.524 100.221 228.576 99.2774 228.629 98.5433C228.682 98.2288 228.682 98.019 228.682 97.8093C228.787 97.652 228.787 97.5996 228.787 97.5996Z" fill="#263238"/>
<path d="M222.428 124.549C222.428 124.549 227 113.591 221.272 106.46C221.062 106.198 220.694 106.303 220.589 106.617C220.011 108.4 219.117 114.01 222.428 124.549Z" fill="#FB2193"/>
<path d="M221.587 110.236C221.64 110.236 221.797 111.022 221.955 112.28C222.113 113.591 222.27 115.321 222.428 117.314C222.586 119.306 222.638 121.089 222.638 122.399C222.638 123.71 222.586 124.497 222.533 124.497C222.481 124.497 222.428 123.71 222.323 122.399C222.218 120.931 222.113 119.254 222.008 117.366C221.85 115.479 221.745 113.801 221.64 112.333C221.535 111.022 221.535 110.236 221.587 110.236Z" fill="#263238"/>
<g opacity="0.3">
<g opacity="0.3">
<g opacity="0.3">
<g opacity="0.3">
<g opacity="0.3">
<path opacity="0.3" d="M222.428 124.549C222.428 124.549 227 113.591 221.272 106.46C221.062 106.198 220.694 106.303 220.589 106.617C220.011 108.4 219.117 114.01 222.428 124.549Z" fill="black"/>
</g>
</g>
</g>
</g>
</g>
<path d="M208.292 150.869C208.292 150.869 211.918 139.597 205.665 132.938C205.455 132.728 205.034 132.833 204.982 133.148C204.614 134.983 204.141 140.698 208.292 150.869Z" fill="#FB2193"/>
<path d="M206.295 136.713C206.347 136.713 206.557 137.499 206.82 138.758C207.083 140.016 207.398 141.799 207.713 143.739C208.029 145.678 208.239 147.461 208.344 148.772C208.449 150.083 208.449 150.869 208.397 150.869C208.344 150.869 208.239 150.083 208.029 148.824C207.819 147.409 207.556 145.678 207.293 143.843C207.03 141.956 206.768 140.278 206.557 138.863C206.347 137.499 206.242 136.713 206.295 136.713Z" fill="#263238"/>
<g opacity="0.3">
<g opacity="0.3">
<g opacity="0.3">
<g opacity="0.3">
<g opacity="0.3">
<path opacity="0.3" d="M208.292 150.869C208.292 150.869 211.918 139.597 205.665 132.938C205.455 132.728 205.034 132.833 204.982 133.148C204.614 134.983 204.141 140.698 208.292 150.869Z" fill="black"/>
</g>
</g>
</g>
</g>
</g>
<path d="M228.209 111.179C228.209 111.179 237.93 104.363 236.932 95.2927C236.879 94.9781 236.512 94.8208 236.301 95.0306C234.883 96.2364 231.099 100.483 228.209 111.179Z" fill="#FB2193"/>
<g opacity="0.3">
<g opacity="0.3">
<g opacity="0.3">
<g opacity="0.3">
<g opacity="0.3">
<path opacity="0.3" d="M228.209 111.179C228.209 111.179 237.93 104.363 236.932 95.2927C236.879 94.9781 236.512 94.8208 236.301 95.0306C234.883 96.2364 231.099 100.483 228.209 111.179Z" fill="black"/>
</g>
</g>
</g>
</g>
</g>
<path d="M235.197 98.6489C235.25 98.7013 234.935 99.4353 234.409 100.589C233.831 101.742 233.043 103.368 232.097 105.098C231.151 106.828 230.258 108.401 229.575 109.502C228.892 110.603 228.366 111.232 228.314 111.18C228.261 111.127 228.629 110.446 229.259 109.292C229.943 108.034 230.783 106.513 231.677 104.836C232.57 103.158 233.411 101.69 234.094 100.379C234.724 99.3305 235.145 98.5964 235.197 98.6489Z" fill="#263238"/>
<path d="M212.234 139.701C212.234 139.701 223.953 137.866 227.105 129.267C227.211 128.953 226.948 128.638 226.633 128.743C224.793 129.267 219.486 131.417 212.234 139.701Z" fill="#FB2193"/>
<g opacity="0.3">
<g opacity="0.3">
<g opacity="0.3">
<g opacity="0.3">
<g opacity="0.3">
<path opacity="0.3" d="M212.234 139.701C212.234 139.701 223.953 137.866 227.105 129.267C227.211 128.953 226.948 128.638 226.633 128.743C224.793 129.267 219.486 131.417 212.234 139.701Z" fill="black"/>
</g>
</g>
</g>
</g>
</g>
<path d="M224.004 131.574C224.057 131.626 223.426 132.15 222.428 132.937C221.43 133.723 219.958 134.824 218.382 135.978C216.753 137.131 215.281 138.128 214.178 138.809C213.074 139.491 212.339 139.858 212.339 139.805C212.286 139.753 212.969 139.281 214.02 138.547C215.229 137.708 216.595 136.712 218.172 135.611C219.695 134.51 221.114 133.514 222.323 132.675C223.321 131.941 223.952 131.521 224.004 131.574Z" fill="#263238"/>
<path d="M198.359 161.25L201.722 183.27H215.122L219.694 161.25H198.359Z" fill="#455A64"/>
<path d="M217.697 169.744C217.697 169.744 217.644 169.796 217.591 169.849C217.486 169.901 217.381 169.954 217.224 170.058C216.908 170.216 216.383 170.425 215.7 170.53C215.017 170.635 214.176 170.583 213.23 170.321C212.284 170.006 211.286 169.429 210.55 168.381C210.182 167.856 209.972 167.227 209.919 166.546C209.867 165.864 210.13 165.078 210.813 164.658C211.496 164.239 212.389 164.396 213.072 164.868C213.755 165.34 214.176 166.074 214.386 166.913C214.596 167.699 214.596 168.538 214.544 169.377C214.491 170.216 214.333 171.107 214.018 171.946C213.703 172.785 213.177 173.571 212.442 174.148C211.759 174.725 210.813 175.197 209.867 175.249C208.868 175.301 207.975 174.934 207.187 174.463C206.399 173.991 205.716 173.362 205.19 172.628C204.665 171.946 204.244 171.107 204.192 170.216C204.139 169.324 204.454 168.433 205.138 167.909C205.821 167.332 206.819 167.384 207.502 167.751C208.238 168.118 208.763 168.8 208.868 169.534C209.131 171.055 208.238 172.418 207.187 172.995C206.083 173.624 204.875 173.624 203.929 173.466C202.983 173.257 202.195 172.89 201.617 172.575C201.039 172.208 200.618 171.893 200.303 171.684C200.04 171.474 199.883 171.317 199.883 171.317C199.883 171.317 200.04 171.422 200.356 171.631C200.671 171.841 201.091 172.103 201.669 172.418C202.247 172.732 203.036 173.099 203.929 173.257C204.822 173.414 205.978 173.362 207.029 172.785C208.028 172.208 208.816 170.897 208.553 169.587C208.448 168.905 207.975 168.328 207.345 168.014C206.714 167.699 205.873 167.647 205.348 168.118C204.77 168.59 204.507 169.377 204.56 170.163C204.612 170.95 204.98 171.736 205.505 172.365C206.031 173.047 206.661 173.624 207.397 174.096C208.133 174.567 208.974 174.882 209.867 174.83C210.76 174.777 211.601 174.41 212.232 173.833C212.915 173.257 213.388 172.523 213.703 171.736C214.018 170.95 214.176 170.111 214.228 169.324C214.281 168.485 214.281 167.699 214.071 166.965C213.913 166.231 213.545 165.497 212.915 165.13C212.337 164.711 211.548 164.606 210.97 164.92C210.392 165.235 210.13 165.916 210.182 166.546C210.235 167.175 210.445 167.751 210.76 168.276C211.443 169.272 212.389 169.849 213.283 170.163C214.176 170.478 215.017 170.53 215.647 170.425C217.066 170.216 217.697 169.691 217.697 169.744Z" fill="#263238"/>
</g>
</g>
<defs>
<linearGradient id="paint0_linear_5836_19415" x1="193.481" y1="144.481" x2="-76.7531" y2="29.304" gradientUnits="userSpaceOnUse">
<stop stop-color="#E2F6FF"/>
<stop offset="1" stop-color="#D1F1FF" stop-opacity="0"/>
</linearGradient>
</defs>
</svg>
