<svg width="240" height="240" viewBox="0 0 240 240" fill="none" xmlns="http://www.w3.org/2000/svg">
<mask id="mask0_5836_19322" style="mask-type:alpha" maskUnits="userSpaceOnUse" x="0" y="0" width="240" height="240">
<rect width="240" height="240" rx="120" fill="#DCF4FF"/>
</mask>
<g mask="url(#mask0_5836_19322)">
<rect y="-8.60986" width="240" height="240" fill="#DCF4FF"/>
<path opacity="0.3" d="M304.854 145.148C304.302 141.36 305.304 137.507 307.642 134.462C313.475 126.821 316.314 117.76 314.965 108.532C311.83 87.1464 287.383 73.0044 260.367 76.9334C242.24 79.5699 249.133 89.6805 242.376 102.504C239.717 107.56 234.36 110.631 228.656 110.145C226.536 109.966 224.352 110.017 222.13 110.337C216.631 111.143 211.775 113.447 208.088 116.685C204.581 119.769 199.764 120.895 195.216 119.782C189.011 118.272 181.688 117.926 174.019 119.04C165.399 120.294 157.755 123.186 151.961 127C147.94 129.649 142.879 130.251 138.447 128.357C135.107 126.936 131.356 126.386 127.527 126.936C122.414 127.678 118.021 130.276 114.886 133.962C112.458 136.816 109.118 138.787 105.393 139.21C105.213 139.235 105.033 139.261 104.84 139.286C104.429 138.928 104.031 138.544 103.658 138.147C100.395 134.743 96.0145 132.401 91.0043 131.812C87.5614 131.403 84.2213 131.863 81.1767 133.015C75.6655 135.101 69.4863 134.449 64.3476 131.569C58.5538 128.318 51.257 125.938 43.1765 124.991C36.0723 124.146 29.3021 124.517 23.4184 125.848C17.7273 127.141 11.7023 126.002 7.01326 122.559C3.32629 119.846 -1.24711 117.99 -6.33437 117.389C-7.87595 117.209 -9.4047 117.145 -10.9078 117.209C-18.0248 117.478 -24.6536 113.895 -28.4948 107.905C-36.177 95.9516 -7.69453 86.916 -25.3458 84.8299C-53.133 81.5408 -77.7727 96.7067 -80.3934 118.694C-81.4597 127.653 -78.6977 136.368 -73.1736 143.766C-70.1162 147.861 -68.6773 152.929 -69.2811 157.985L-72.8653 188.048C-74.15 198.837 -66.4035 208.627 -55.5738 209.907L104.403 233.917C111.675 234.774 118.496 231.575 122.581 226.123L298.071 197.467C305.882 196.328 311.278 189.11 310.147 181.329L304.854 145.148Z" fill="white"/>
<path opacity="0.8" d="M355.019 147.618C354.029 131.287 336.507 119.052 315.875 120.281C298.391 121.33 284.285 131.709 280.984 144.802C277.579 142.575 273.25 141.372 268.613 141.641C262.138 142.025 256.614 145.212 253.531 149.729C248.238 146.44 240.389 144.61 231.768 145.135C222.108 145.711 213.77 149.089 209.081 153.748C205.985 150.049 201.296 147.822 196.183 148.13C190.698 148.462 186.035 151.636 183.504 156.18C179.2 155.681 174.344 156.039 169.398 157.395C155.652 161.184 146.454 171.282 148.869 179.959C150.501 185.82 157.014 189.519 165.3 190.146L167.33 223.742L347.349 212.978L344.741 169.695C351.537 163.884 355.533 156.026 355.019 147.618Z" fill="#CEEBFE"/>
<path opacity="0.8" d="M-129.583 163.96C-129.429 147.603 -112.536 134.498 -91.8654 134.703C-74.3426 134.869 -59.736 144.545 -55.7793 157.445C-52.4905 155.052 -48.2255 153.631 -43.575 153.67C-37.0875 153.734 -31.4093 156.639 -28.1077 160.99C-22.9819 157.445 -15.2483 155.218 -6.6025 155.308C3.08383 155.398 11.5754 158.367 16.4828 162.769C19.3862 158.917 23.9596 156.46 29.0725 156.511C34.5708 156.562 39.3755 159.506 42.1503 163.908C46.4283 163.192 51.2971 163.307 56.2944 164.42C70.2202 167.517 79.9065 177.142 77.941 185.921C76.6178 191.86 70.2972 195.878 62.0497 196.915L61.7285 230.574L-118.625 228.847L-118.201 185.486C-125.279 180.021 -129.66 172.381 -129.583 163.96Z" fill="#CEEBFE"/>
<path d="M241.725 43.0969C241.725 43.5832 241.635 44.0439 241.468 44.4791H226.527C226.514 44.4663 226.514 44.4535 226.501 44.4535C226.501 44.4663 226.501 44.4791 226.489 44.4791C226.489 44.4791 226.09 44.4791 225.358 44.4919C217.958 44.5303 176.631 44.7606 176.631 44.4023C176.631 40.2045 179.855 36.8002 183.825 36.8002C184.75 36.8002 185.649 36.9793 186.459 37.3249C187.216 36.685 188.18 36.301 189.221 36.301C190.736 36.301 192.072 37.0945 192.869 38.3231C192.882 38.2976 192.895 38.272 192.895 38.2592C193.665 36.621 195.169 35.2516 197.108 34.3429C198.663 33.6134 200.5 33.1911 202.478 33.1911C203.043 33.1911 203.609 33.2295 204.148 33.2935C206.242 29.2236 210.327 26.4592 215.016 26.4592C221.029 26.4592 226.039 30.9898 227.157 36.9793C227.825 36.5442 228.621 36.2882 229.482 36.2882C231.19 36.2882 232.681 37.3121 233.413 38.8095C234.158 38.5407 234.967 38.3999 235.828 38.3999C238.153 38.3999 240.157 39.475 241.108 41.0364C241.506 41.6635 241.725 42.3546 241.725 43.0969Z" fill="#CEEBFE"/>
<path opacity="0.4" d="M241.122 41.0364C239.22 40.5245 237.178 40.5501 235.186 40.5757C230.741 40.6269 226.297 40.678 221.839 40.7292C216.507 40.7932 211.767 37.7601 206.32 38.2464C203.712 38.4896 201.053 39.5518 198.548 39.6926C196.557 39.8078 194.141 39.4622 192.908 38.2592C193.679 36.621 195.182 35.2516 197.122 34.3429C198.676 33.6134 200.513 33.1911 202.492 33.1911C203.057 33.1911 203.622 33.2295 204.162 33.2935C206.256 29.2236 210.341 26.4592 215.03 26.4592C221.042 26.4592 226.052 30.9898 227.17 36.9794C227.838 36.5442 228.635 36.2883 229.495 36.2883C231.204 36.2883 232.694 37.3121 233.426 38.8095C234.171 38.5407 234.981 38.4 235.842 38.4C238.167 38.4128 240.171 39.4878 241.122 41.0364Z" fill="#CEEBFE"/>
<path d="M48.268 71.5127C48.268 71.8327 48.2037 72.1399 48.0881 72.4214H38.2862C38.2733 72.4214 38.2733 72.4086 38.2605 72.3958C38.2605 72.4086 38.2605 72.4086 38.2605 72.4214C38.2605 72.4214 5.52734 72.6262 5.52734 72.3702C5.52734 69.6186 7.63419 67.3789 10.2549 67.3789C10.8715 67.3789 11.4496 67.5069 11.9763 67.7245C12.4774 67.3021 13.1068 67.059 13.7877 67.059C14.7769 67.059 15.6633 67.5837 16.19 68.39C16.8966 66.8286 18.6052 65.6256 20.7506 65.2032C21.303 65.088 21.8939 65.024 22.4977 65.024C22.8703 65.024 23.2428 65.0496 23.6025 65.088C24.9771 62.426 27.662 60.6086 30.7452 60.6086C34.6891 60.6086 37.9778 63.5778 38.7101 67.5197C39.1469 67.2253 39.6736 67.059 40.2388 67.059C41.3565 67.059 42.3328 67.7245 42.821 68.7099C43.3092 68.5308 43.8487 68.4284 44.414 68.4284C46.5337 68.4284 48.268 69.8106 48.268 71.5127Z" fill="#CEEBFE"/>
<path opacity="0.4" d="M48.2694 71.5109C48.2694 71.8309 48.2051 72.1381 48.0895 72.4196H42.4113C42.0645 71.8821 41.8204 71.2678 41.3836 70.7814C39.4438 68.5673 35.3971 70.3463 33.059 68.5545C32.6351 68.2346 32.2882 67.8122 31.8514 67.5051C30.4897 66.6092 28.6783 67.1723 27.0982 67.5947C25.4795 68.0298 23.6681 68.273 22.2165 67.4411C21.4457 67.0059 20.8547 66.0845 20.752 65.1886C21.3044 65.0734 21.8953 65.0094 22.4991 65.0094C22.8717 65.0094 23.2442 65.035 23.6039 65.0734C24.9785 62.4114 27.6634 60.594 30.7466 60.594C34.6905 60.594 37.9792 63.5632 38.7115 67.5051C39.1483 67.2107 39.675 67.0443 40.2402 67.0443C41.3579 67.0443 42.3342 67.7098 42.8224 68.6953C43.3106 68.5161 43.8501 68.4138 44.4154 68.4138C46.5351 68.4266 48.2694 69.8088 48.2694 71.5109Z" fill="#CEEBFE"/>
<path d="M79.0467 -0.0435944C79.0467 0.340351 30.7178 0.0331955 30.7178 0.0331955C30.7178 0.0203972 30.7178 0.0203953 30.7178 0.00759697C30.7049 0.0203953 30.6921 0.0203972 30.6921 0.0331955H16.214C16.047 -0.389147 15.957 -0.837084 15.957 -1.31062C15.957 -3.81907 18.5006 -5.85399 21.6481 -5.85399C22.4831 -5.85399 23.2796 -5.71321 23.999 -5.45724C24.7184 -6.90344 26.1572 -7.88891 27.8144 -7.88891C28.6366 -7.88891 29.4074 -7.64574 30.0626 -7.2234C31.1417 -13.0338 36.0106 -17.4236 41.8301 -17.4236C41.8686 -17.4236 41.9072 -17.4236 41.9586 -17.4236C46.4549 -17.3852 50.3602 -14.7104 52.3771 -10.8069C52.9039 -10.8709 53.4434 -10.9093 53.9958 -10.9093C58.3123 -10.9093 61.9864 -8.83598 63.3096 -5.94358C64.0932 -7.12101 65.3907 -7.9017 66.8553 -7.9017C67.8701 -7.9017 68.8079 -7.53056 69.5402 -6.90344C70.3238 -7.2362 71.1846 -7.41537 72.0838 -7.41537C74.8715 -7.41537 77.2738 -5.68761 78.3915 -3.19196C78.8154 -2.23209 79.0467 -1.16984 79.0467 -0.0435944Z" fill="#CEEBFE"/>
<path d="M138.597 186.914C145.791 233.319 143.765 279.498 133.758 326.129H116.556C118.608 295.869 120.179 259.919 115.365 236.077L82.5322 326.505H63.7344L94.7179 197.745L105.358 177.087L130.312 174.104L138.597 186.914Z" fill="#102048"/>
<path d="M161.496 87.911L166.132 74.1726L178.648 77.0557C179.585 81.6435 173.961 88.638 169.78 93.8526L161.496 87.911Z" fill="#F9B384"/>
<path d="M119.288 136.927L104.873 137.103L103.455 118.4L103.277 116.169L117.743 116.044L118.275 123.139L119.288 136.927Z" fill="#F9B384"/>
<path d="M118.199 121.861C113.487 125.195 107.305 123.115 103.455 118.427L103.277 116.195L117.768 116.07L118.199 121.861Z" fill="#102048"/>
<path d="M114.834 120.279C107.513 121.934 99.3552 117.296 96.1377 111.129L95.707 100.048L99.8112 94.3069L117.241 95.786C117.165 95.8111 117.165 96.0367 117.241 96.4629C117.444 97.5409 118.103 99.8223 118.736 102.58C120.205 109.299 121.421 118.8 114.834 120.279Z" fill="#F9B384"/>
<path d="M102.577 129.858C102.577 129.858 113.344 138.382 122.692 126.248L140.426 184.561C129.558 192.157 115.827 194.79 99.334 192.659L102.577 129.858Z" fill="white"/>
<g opacity="0.3">
<path opacity="0.3" d="M104.879 137.106C106.374 137.632 107.894 137.958 109.414 138.134C110.934 138.284 112.454 138.259 113.949 137.958C115.418 137.682 116.887 137.206 118.23 136.479C118.939 136.178 119.547 135.702 120.206 135.326C120.865 134.925 121.447 134.398 122.106 133.947C121.625 134.548 121.093 135.175 120.535 135.727C119.927 136.228 119.345 136.805 118.635 137.206C117.318 138.134 115.722 138.685 114.126 139.011C110.934 139.588 107.488 138.886 104.879 137.106Z" fill="#00B1FF"/>
</g>
<path d="M161.024 85.3857C151.296 101.656 141.795 115.946 133.233 122.74C131.966 123.743 130.344 124.194 128.698 124.119C125.48 123.944 122.136 124.345 118.438 125.222C119.223 154.404 122.01 181.429 132.042 198.001C138.071 196.271 145.418 193.513 149.472 190.129C146.178 179.048 142.277 163.153 139.363 149.264L171.512 92.4304L161.024 85.3857Z" fill="#00B1FF"/>
<path d="M118.691 102.587C107.62 108.829 98.4238 97.4474 98.4238 97.4474L117.221 96.4697C117.399 97.5477 118.083 99.8291 118.691 102.587Z" fill="#E28B6D"/>
<path d="M98.5979 109C99.9659 107.27 100.574 104.336 99.3579 98.47C103.386 102.983 109.39 104.036 118.181 100.175C118.181 100.175 123.907 97.9686 122.589 92.2025C121.399 86.9879 116.991 84.2302 113.545 88.467C105.742 86.2107 98.0659 85.8096 94.6204 92.8293C94.6204 92.8293 83.6507 98.47 92.999 107.621L98.5979 109Z" fill="#102048"/>
<path d="M74.929 201.93C74.5997 202.381 73.4343 211.382 73.4343 211.382C73.4343 211.382 68.1647 216.27 71.7116 219.279C75.2584 222.287 79.5653 222.162 81.6174 219.956C82.3267 217.775 82.3774 215.243 81.516 212.184L83.5681 202.181L74.929 201.93Z" fill="#F9B384"/>
<path d="M186.882 83.9587L168.945 94.7138L168.16 88.4713L181.663 80.3486L186.882 83.9587Z" fill="#6F3428"/>
<path d="M177.21 83.0281L172.624 85.7858L161.705 70.4429L168.52 66.3564L177.21 83.0281Z" fill="#BB9132"/>
<path d="M169.426 65.8063L160.787 70.9958C158.861 72.149 156.353 71.7479 154.909 70.0181L140.443 52.7196L162.433 39.5327L171.25 60.2156C172.136 62.2714 171.351 64.653 169.426 65.8063Z" fill="#FBC343"/>
<path d="M168.37 54.8996L167.179 54.3982C170.498 46.5011 169.915 40.0581 167.483 38.6542C166.216 37.9272 164.468 38.7795 162.67 41.0359L161.656 40.2336C164.848 36.2475 167.255 37.0246 168.142 37.5511C171.106 39.2809 172.018 46.2504 168.37 54.8996Z" fill="#FBC343"/>
<path d="M151.162 65.2265C141.713 64.3992 135.911 60.4131 135.734 57.0036C135.683 55.9757 136.114 53.4938 141.155 52.5662L141.383 53.8197C138.546 54.3461 136.95 55.4994 137.026 56.9534C137.178 59.7362 142.65 63.2209 151.264 63.973L151.162 65.2265Z" fill="#FBC343"/>
<path opacity="0.6" d="M159.168 50.7147C158.407 49.411 158.458 47.9821 159.243 47.5308C160.054 47.0795 161.321 47.7564 162.081 49.0601C162.841 50.3637 162.79 51.7927 162.005 52.244C161.194 52.6952 159.928 52.0183 159.168 50.7147Z" fill="white"/>
<path d="M178.655 76.7574C178.959 78.9635 177.565 80.944 174.576 80.944C172.701 80.944 170.092 78.412 169.56 75.4036C169.104 72.9217 170.067 71.2922 171.84 70.5902C173.639 69.8632 178.047 72.5958 178.655 76.7574Z" fill="#F9B384"/>
<path d="M121.598 36.5034L120.99 38.4167L136.694 43.3244L137.301 41.411L121.598 36.5034Z" fill="#FBC343"/>
<path d="M155.209 16.1406L152.352 32.1897L154.347 32.5393L157.204 16.4902L155.209 16.1406Z" fill="#FBC343"/>
<path d="M135.436 20.4111L133.73 21.4941L142.593 35.228L144.298 34.1449L135.436 20.4111Z" fill="#FBC343"/>
<path d="M93.533 166.255L90.9489 204.787C105.364 204.161 115.042 199.472 115.042 199.472C116.283 176.483 113.319 150.736 104.123 127.596C80.7646 136.195 74.1778 164.65 70.707 206.943L84.3874 208.523L93.533 166.255Z" fill="#00B1FF"/>
<path d="M98.7906 112.834C94.4079 114.388 91.5959 114.037 91.3425 109.876C91.2159 107.494 93.6986 105.588 95.8773 106.591C96.8146 107.017 97.7013 107.845 98.5626 108.998L98.7906 112.834Z" fill="#F9B384"/>
<path d="M136.413 136.076C136.996 137.906 137.502 139.761 137.984 141.591C138.491 143.447 138.921 145.302 139.377 147.157C139.808 149.012 140.213 150.892 140.593 152.773C140.948 154.653 141.328 156.533 141.581 158.438L141.1 158.539C140.492 156.709 140.011 154.878 139.504 153.023C139.023 151.168 138.567 149.313 138.136 147.458C137.705 145.603 137.3 143.722 136.945 141.842C136.565 139.962 136.21 138.082 135.932 136.201L136.413 136.076Z" fill="#102048"/>
<path d="M94.2087 153.296C94.2847 155.151 94.2594 157.006 94.234 158.836C94.2087 160.691 94.1327 162.521 94.0567 164.377C93.9807 166.232 93.854 168.062 93.702 169.917C93.55 171.747 93.3727 173.602 93.1194 175.432L92.6127 175.407C92.5367 173.552 92.5367 171.697 92.562 169.867C92.5874 168.012 92.6634 166.182 92.7647 164.326C92.866 162.471 92.9674 160.641 93.1194 158.786C93.2714 156.956 93.4487 155.101 93.6767 153.271L94.2087 153.296Z" fill="#102048"/>
<path d="M112.225 244.081C112.807 241.975 113.466 239.894 114.125 237.813C114.783 235.732 115.518 233.677 116.202 231.621C116.937 229.565 117.671 227.509 118.457 225.479C119.242 223.448 120.053 221.417 120.94 219.412L121.421 219.587C120.864 221.693 120.205 223.774 119.546 225.855C118.862 227.935 118.153 229.991 117.443 232.047C116.683 234.103 115.974 236.158 115.189 238.189C114.403 240.22 113.618 242.25 112.731 244.256L112.225 244.081Z" fill="#708CD5"/>
<path d="M96.1648 110.526C95.9368 110.225 95.7341 109.899 95.5061 109.598C95.2781 109.297 95.0754 108.996 94.7968 108.796C94.5434 108.57 94.3154 108.47 94.0874 108.52C93.8087 108.545 93.5554 108.846 93.2514 109.072L92.998 108.921C93.1754 108.545 93.3527 108.144 93.8594 107.918C94.3914 107.693 94.9741 107.943 95.2781 108.244C95.9115 108.871 96.2661 109.623 96.4181 110.425L96.1648 110.526Z" fill="#102048"/>
<path d="M169.357 77.4383C169.838 75.6834 169.585 74.0789 168.825 73.8783C168.065 73.6778 166.874 74.5051 166.393 76.26C165.911 78.0149 165.379 80.547 166.595 81.1237C168.749 82.1265 168.901 79.1932 169.357 77.4383Z" fill="#F9B384"/>
</g>
</svg>
