<svg id="Layer_1" data-name="Layer 1" xmlns="http://www.w3.org/2000/svg" width="23.2" height="23.3" viewBox="0 0 23.2 23.3"><defs><style>.cls-1{fill:#e0e0e0;}.cls-2{fill:#00b1ff;}</style></defs><path class="cls-1" d="M12.1.4A11.6,11.6,0,1,0,23.8,12,11.6,11.6,0,0,0,12.1.4Zm0,21A9.3,9.3,0,0,1,2.8,12a9.4,9.4,0,1,1,9.3,9.4Z" transform="translate(-0.5 -0.4)"/><path class="cls-2" d="M21.7,17.5c.3.2.6,0,.8-.2a12.1,12.1,0,0,0-.3-11.1A11.8,11.8,0,0,0,12.7.4a.5.5,0,0,0-.6.5V2.1a.6.6,0,0,0,.6.5,9.5,9.5,0,0,1,7.8,13.6.4.4,0,0,0,.2.7Z" transform="translate(-0.5 -0.4)"/></svg>