<svg width="279" height="167" viewBox="0 0 279 167" fill="none" xmlns="http://www.w3.org/2000/svg">
<path d="M255.498 128.461C255.498 103.646 244.531 74.2062 229.498 54.4609" stroke="#CCCCCC" stroke-width="16" stroke-miterlimit="10" stroke-linecap="square" stroke-linejoin="round"/>
<path d="M12.5 128.461C12.5 96.901 25.2753 65.6305 48.0156 43.3143C70.7558 20.9981 101.598 8.46094 133.758 8.46094C165.917 8.46094 196.76 20.9981 219.5 43.3143" stroke="#F2F2F6" stroke-width="16" stroke-miterlimit="10" stroke-linecap="square" stroke-linejoin="round"/>
<path d="M86.3731 89.4609H88.3184V81.6953H88.4434L93.9825 89.4609H95.7247V78.1875H93.7872V85.9531H93.6622L88.1231 78.1875H86.3731V89.4609ZM101.998 89.6328C104.553 89.6328 106.107 87.9609 106.107 85.1953V85.1797C106.107 82.4297 104.545 80.7578 101.998 80.7578C99.459 80.7578 97.8887 82.4375 97.8887 85.1797V85.1953C97.8887 87.9609 99.4356 89.6328 101.998 89.6328ZM101.998 88.0547C100.647 88.0547 99.8731 87 99.8731 85.2031V85.1875C99.8731 83.3906 100.647 82.3281 101.998 82.3281C103.342 82.3281 104.115 83.3906 104.115 85.1875V85.2031C104.115 87 103.35 88.0547 101.998 88.0547ZM115.553 89.6328C117.654 89.6328 119.178 88.5469 119.178 86.9219V86.9062C119.178 85.6641 118.389 84.9531 116.717 84.5781L115.334 84.2734C114.412 84.0625 114.053 83.7578 114.053 83.2578V83.25C114.053 82.6094 114.678 82.1875 115.545 82.1875C116.459 82.1875 117.022 82.625 117.162 83.1641L117.17 83.1875H118.998V83.1719C118.873 81.7891 117.631 80.7578 115.553 80.7578C113.537 80.7578 112.131 81.8203 112.131 83.3594V83.3672C112.131 84.625 112.904 85.3906 114.529 85.75L115.912 86.0625C116.85 86.2734 117.225 86.6016 117.225 87.1016V87.1172C117.225 87.7578 116.553 88.1953 115.584 88.1953C114.615 88.1953 114.045 87.7812 113.842 87.1875L113.834 87.1719H111.904V87.1875C112.068 88.6328 113.381 89.6328 115.553 89.6328ZM123.967 89.6328C125.201 89.6328 126.068 89.0781 126.467 88.1641H126.6V89.4609H128.545V80.9219H126.6V85.8984C126.6 87.1797 125.928 87.9922 124.67 87.9922C123.498 87.9922 123.006 87.3203 123.006 86V80.9219H121.061V86.4453C121.061 88.4766 122.045 89.6328 123.967 89.6328ZM131.764 89.4609H133.709V82.4297H135.529V80.9219H133.678V80.1875C133.678 79.375 134.029 78.9375 134.943 78.9375C135.217 78.9375 135.459 78.9531 135.607 78.9766V77.6172C135.295 77.5625 134.943 77.5391 134.529 77.5391C132.631 77.5391 131.764 78.375 131.764 80.0781V80.9219H130.365V82.4297H131.764V89.4609ZM138.076 89.4609H140.022V82.4297H141.842V80.9219H139.99V80.1875C139.99 79.375 140.342 78.9375 141.256 78.9375C141.529 78.9375 141.772 78.9531 141.92 78.9766V77.6172C141.607 77.5625 141.256 77.5391 140.842 77.5391C138.943 77.5391 138.076 78.375 138.076 80.0781V80.9219H136.678V82.4297H138.076V89.4609ZM144.717 79.4922C145.35 79.4922 145.873 78.9844 145.873 78.3438C145.873 77.7109 145.35 77.1953 144.717 77.1953C144.076 77.1953 143.553 77.7109 143.553 78.3438C143.553 78.9844 144.076 79.4922 144.717 79.4922ZM143.74 89.4609H145.686V80.9219H143.74V89.4609ZM151.74 89.6328C153.904 89.6328 155.162 88.4688 155.443 86.7188L155.459 86.6562L153.623 86.6641L153.607 86.6953C153.365 87.5938 152.748 88.0547 151.74 88.0547C150.42 88.0547 149.631 86.9922 149.631 85.1797V85.1641C149.631 83.375 150.412 82.3281 151.74 82.3281C152.803 82.3281 153.436 82.9219 153.615 83.75L153.623 83.7734H155.459V83.7422C155.24 81.9766 153.928 80.7578 151.732 80.7578C149.162 80.7578 147.654 82.4062 147.654 85.1641V85.1797C147.654 87.9688 149.17 89.6328 151.74 89.6328ZM158.311 79.4922C158.943 79.4922 159.467 78.9844 159.467 78.3438C159.467 77.7109 158.943 77.1953 158.311 77.1953C157.67 77.1953 157.147 77.7109 157.147 78.3438C157.147 78.9844 157.67 79.4922 158.311 79.4922ZM157.334 89.4609H159.279V80.9219H157.334V89.4609ZM165.326 89.6328C167.647 89.6328 168.787 88.2969 169.061 87.1953L169.084 87.125H167.232L167.209 87.1797C167.022 87.5703 166.42 88.1016 165.365 88.1016C164.045 88.1016 163.217 87.2109 163.193 85.6797H169.162V85.0391C169.162 82.4609 167.662 80.7578 165.232 80.7578C162.803 80.7578 161.248 82.5156 161.248 85.2031V85.2109C161.248 87.9297 162.787 89.6328 165.326 89.6328ZM165.256 82.2812C166.342 82.2812 167.131 82.9766 167.264 84.375H163.209C163.357 83.0156 164.17 82.2812 165.256 82.2812ZM171.107 89.4609H173.053V84.4844C173.053 83.2031 173.772 82.3906 174.928 82.3906C176.107 82.3906 176.647 83.0625 176.647 84.3906V89.4609H178.592V83.9375C178.592 81.9062 177.553 80.7578 175.647 80.7578C174.412 80.7578 173.592 81.3125 173.186 82.2266H173.053V80.9219H171.107V89.4609ZM184.248 89.5C184.623 89.5 184.982 89.4688 185.264 89.4141V87.9141C185.029 87.9375 184.881 87.9453 184.607 87.9453C183.795 87.9453 183.459 87.5859 183.459 86.7344V82.4297H185.264V80.9219H183.459V78.8281H181.482V80.9219H180.154V82.4297H181.482V87.1953C181.482 88.8438 182.287 89.5 184.248 89.5ZM85.5762 111.602C86.7793 111.602 87.7012 111.055 88.17 110.125H88.3028V111.461H90.2559V99.6172H88.3028V104.281H88.17C87.7247 103.359 86.7481 102.781 85.5762 102.781C83.4122 102.781 82.0762 104.469 82.0762 107.188V107.203C82.0762 109.906 83.4356 111.602 85.5762 111.602ZM86.1856 109.961C84.8575 109.961 84.0528 108.922 84.0528 107.203V107.188C84.0528 105.469 84.8653 104.422 86.1856 104.422C87.5059 104.422 88.334 105.477 88.334 107.188V107.203C88.334 108.914 87.5137 109.961 86.1856 109.961ZM95.0293 111.602C96.1543 111.602 97.0606 111.117 97.5293 110.289H97.6622V111.461H99.584V105.625C99.584 103.82 98.3497 102.758 96.1543 102.758C94.1231 102.758 92.7481 103.711 92.5606 105.148L92.5528 105.219H94.3887L94.3965 105.188C94.5918 104.625 95.17 104.305 96.0606 104.305C97.1075 104.305 97.6622 104.773 97.6622 105.625V106.359L95.4668 106.492C93.3887 106.617 92.2247 107.508 92.2247 109.031V109.047C92.2247 110.602 93.4043 111.602 95.0293 111.602ZM94.1465 108.953V108.938C94.1465 108.234 94.6543 107.836 95.7403 107.766L97.6622 107.641V108.328C97.6622 109.344 96.795 110.109 95.6231 110.109C94.7637 110.109 94.1465 109.68 94.1465 108.953ZM105.279 111.5C105.654 111.5 106.014 111.469 106.295 111.414V109.914C106.061 109.938 105.912 109.945 105.639 109.945C104.826 109.945 104.49 109.586 104.49 108.734V104.43H106.295V102.922H104.49V100.828H102.514V102.922H101.186V104.43H102.514V109.195C102.514 110.844 103.318 111.5 105.279 111.5ZM110.561 111.602C111.686 111.602 112.592 111.117 113.061 110.289H113.193V111.461H115.115V105.625C115.115 103.82 113.881 102.758 111.686 102.758C109.654 102.758 108.279 103.711 108.092 105.148L108.084 105.219H109.92L109.928 105.188C110.123 104.625 110.701 104.305 111.592 104.305C112.639 104.305 113.193 104.773 113.193 105.625V106.359L110.998 106.492C108.92 106.617 107.756 107.508 107.756 109.031V109.047C107.756 110.602 108.936 111.602 110.561 111.602ZM109.678 108.953V108.938C109.678 108.234 110.186 107.836 111.272 107.766L113.193 107.641V108.328C113.193 109.344 112.326 110.109 111.154 110.109C110.295 110.109 109.678 109.68 109.678 108.953ZM124.045 111.602C125.17 111.602 126.076 111.117 126.545 110.289H126.678V111.461H128.6V105.625C128.6 103.82 127.365 102.758 125.17 102.758C123.139 102.758 121.764 103.711 121.576 105.148L121.568 105.219H123.404L123.412 105.188C123.607 104.625 124.186 104.305 125.076 104.305C126.123 104.305 126.678 104.773 126.678 105.625V106.359L124.482 106.492C122.404 106.617 121.24 107.508 121.24 109.031V109.047C121.24 110.602 122.42 111.602 124.045 111.602ZM123.162 108.953V108.938C123.162 108.234 123.67 107.836 124.756 107.766L126.678 107.641V108.328C126.678 109.344 125.811 110.109 124.639 110.109C123.779 110.109 123.162 109.68 123.162 108.953ZM132.967 111.461H135.1L138.123 102.922H136.076L134.115 109.562H133.982L132.006 102.922H129.928L132.967 111.461ZM141.795 111.602C142.92 111.602 143.826 111.117 144.295 110.289H144.428V111.461H146.35V105.625C146.35 103.82 145.115 102.758 142.92 102.758C140.889 102.758 139.514 103.711 139.326 105.148L139.318 105.219H141.154L141.162 105.188C141.357 104.625 141.936 104.305 142.826 104.305C143.873 104.305 144.428 104.773 144.428 105.625V106.359L142.232 106.492C140.154 106.617 138.99 107.508 138.99 109.031V109.047C138.99 110.602 140.17 111.602 141.795 111.602ZM140.912 108.953V108.938C140.912 108.234 141.42 107.836 142.506 107.766L144.428 107.641V108.328C144.428 109.344 143.561 110.109 142.389 110.109C141.529 110.109 140.912 109.68 140.912 108.953ZM149.686 101.492C150.318 101.492 150.842 100.984 150.842 100.344C150.842 99.7109 150.318 99.1953 149.686 99.1953C149.045 99.1953 148.522 99.7109 148.522 100.344C148.522 100.984 149.045 101.492 149.686 101.492ZM148.709 111.461H150.654V102.922H148.709V111.461ZM153.123 111.461H155.068V99.6172H153.123V111.461ZM159.857 111.602C160.982 111.602 161.889 111.117 162.357 110.289H162.49V111.461H164.412V105.625C164.412 103.82 163.178 102.758 160.982 102.758C158.951 102.758 157.576 103.711 157.389 105.148L157.381 105.219H159.217L159.225 105.188C159.42 104.625 159.998 104.305 160.889 104.305C161.936 104.305 162.49 104.773 162.49 105.625V106.359L160.295 106.492C158.217 106.617 157.053 107.508 157.053 109.031V109.047C157.053 110.602 158.232 111.602 159.857 111.602ZM158.975 108.953V108.938C158.975 108.234 159.482 107.836 160.568 107.766L162.49 107.641V108.328C162.49 109.344 161.623 110.109 160.451 110.109C159.592 110.109 158.975 109.68 158.975 108.953ZM171.498 111.602C173.639 111.602 175.006 109.906 175.006 107.203V107.188C175.006 104.469 173.662 102.781 171.498 102.781C170.326 102.781 169.35 103.359 168.904 104.281H168.772V99.6172H166.826V111.461H168.772V110.125H168.904C169.373 111.055 170.303 111.602 171.498 111.602ZM170.889 109.961C169.568 109.961 168.748 108.914 168.748 107.203V107.188C168.748 105.477 169.568 104.422 170.889 104.422C172.217 104.422 173.022 105.469 173.022 107.188V107.203C173.022 108.922 172.217 109.961 170.889 109.961ZM177.029 111.461H178.975V99.6172H177.029V111.461ZM185.092 111.633C187.412 111.633 188.553 110.297 188.826 109.195L188.85 109.125H186.998L186.975 109.18C186.787 109.57 186.186 110.102 185.131 110.102C183.811 110.102 182.982 109.211 182.959 107.68H188.928V107.039C188.928 104.461 187.428 102.758 184.998 102.758C182.568 102.758 181.014 104.516 181.014 107.203V107.211C181.014 109.93 182.553 111.633 185.092 111.633ZM185.022 104.281C186.107 104.281 186.897 104.977 187.029 106.375H182.975C183.123 105.016 183.936 104.281 185.022 104.281Z" fill="#A9A9A9"/>
<path d="M6.02344 161.742C8.70312 161.742 10.3281 159.469 10.3281 155.828V155.812C10.3281 152.172 8.70312 149.906 6.02344 149.906C3.34375 149.906 1.73438 152.172 1.73438 155.812V155.828C1.73438 159.469 3.34375 161.742 6.02344 161.742ZM6.02344 160.109C4.58594 160.109 3.76562 158.5 3.76562 155.828V155.812C3.76562 153.141 4.58594 151.547 6.02344 151.547C7.46094 151.547 8.29688 153.141 8.29688 155.812V155.828C8.29688 158.5 7.46094 160.109 6.02344 160.109ZM14.9062 156.273C16.4766 156.273 17.4375 155.078 17.4375 153.156V153.148C17.4375 151.227 16.4766 150.031 14.9062 150.031C13.3281 150.031 12.375 151.227 12.375 153.148V153.156C12.375 155.078 13.3281 156.273 14.9062 156.273ZM16.3125 161.461L23.9297 150.188H22.3203L14.7031 161.461H16.3125ZM14.9062 155.141C14.1875 155.141 13.7891 154.414 13.7891 153.156V153.148C13.7891 151.883 14.1875 151.164 14.9062 151.164C15.6172 151.164 16.0312 151.883 16.0312 153.148V153.156C16.0312 154.414 15.6172 155.141 14.9062 155.141ZM23.7266 161.617C25.2969 161.617 26.2578 160.414 26.2578 158.492V158.484C26.2578 156.562 25.2969 155.375 23.7266 155.375C22.1484 155.375 21.1875 156.562 21.1875 158.484V158.492C21.1875 160.414 22.1484 161.617 23.7266 161.617ZM23.7266 160.484C23.0078 160.484 22.6016 159.758 22.6016 158.492V158.484C22.6016 157.227 23.0078 156.508 23.7266 156.508C24.4375 156.508 24.8516 157.227 24.8516 158.484V158.492C24.8516 159.758 24.4375 160.484 23.7266 160.484Z" fill="#A9A9A9"/>
<path d="M236.876 161.461H238.892V150.188H236.884L233.939 152.258V154.156L236.743 152.172H236.876V161.461ZM246.158 161.742C248.837 161.742 250.462 159.469 250.462 155.828V155.812C250.462 152.172 248.837 149.906 246.158 149.906C243.478 149.906 241.868 152.172 241.868 155.812V155.828C241.868 159.469 243.478 161.742 246.158 161.742ZM246.158 160.109C244.72 160.109 243.9 158.5 243.9 155.828V155.812C243.9 153.141 244.72 151.547 246.158 151.547C247.595 151.547 248.431 153.141 248.431 155.812V155.828C248.431 158.5 247.595 160.109 246.158 160.109ZM256.798 161.742C259.478 161.742 261.103 159.469 261.103 155.828V155.812C261.103 152.172 259.478 149.906 256.798 149.906C254.118 149.906 252.509 152.172 252.509 155.812V155.828C252.509 159.469 254.118 161.742 256.798 161.742ZM256.798 160.109C255.361 160.109 254.54 158.5 254.54 155.828V155.812C254.54 153.141 255.361 151.547 256.798 151.547C258.236 151.547 259.072 153.141 259.072 155.812V155.828C259.072 158.5 258.236 160.109 256.798 160.109ZM265.681 156.273C267.251 156.273 268.212 155.078 268.212 153.156V153.148C268.212 151.227 267.251 150.031 265.681 150.031C264.103 150.031 263.15 151.227 263.15 153.148V153.156C263.15 155.078 264.103 156.273 265.681 156.273ZM267.087 161.461L274.704 150.188H273.095L265.478 161.461H267.087ZM265.681 155.141C264.962 155.141 264.564 154.414 264.564 153.156V153.148C264.564 151.883 264.962 151.164 265.681 151.164C266.392 151.164 266.806 151.883 266.806 153.148V153.156C266.806 154.414 266.392 155.141 265.681 155.141ZM274.501 161.617C276.072 161.617 277.033 160.414 277.033 158.492V158.484C277.033 156.562 276.072 155.375 274.501 155.375C272.923 155.375 271.962 156.562 271.962 158.484V158.492C271.962 160.414 272.923 161.617 274.501 161.617ZM274.501 160.484C273.783 160.484 273.376 159.758 273.376 158.492V158.484C273.376 157.227 273.783 156.508 274.501 156.508C275.212 156.508 275.626 157.227 275.626 158.484V158.492C275.626 159.758 275.212 160.484 274.501 160.484Z" fill="#A9A9A9"/>
</svg>
