<svg width="32" height="32" viewBox="0 0 32 32" fill="none" xmlns="http://www.w3.org/2000/svg">
<rect width="32" height="32" rx="6" fill="#00B1FF"/>
<path d="M16 6.8125C10.6484 6.8125 6.3125 11.1875 6.3125 16.5C6.3125 21.8516 10.6484 26.1875 16 26.1875C21.3125 26.1875 25.6875 21.8516 25.6875 16.5C25.6875 11.1875 21.3125 6.8125 16 6.8125ZM16 11.1094C16.8984 11.1094 17.6406 11.8516 17.6406 12.75C17.6406 13.6875 16.8984 14.3906 16 14.3906C15.0625 14.3906 14.3594 13.6875 14.3594 12.75C14.3594 11.8516 15.0625 11.1094 16 11.1094ZM18.1875 21.0312C18.1875 21.3047 17.9531 21.5 17.7188 21.5H14.2812C14.0078 21.5 13.8125 21.3047 13.8125 21.0312V20.0938C13.8125 19.8594 14.0078 19.625 14.2812 19.625H14.75V17.125H14.2812C14.0078 17.125 13.8125 16.9297 13.8125 16.6562V15.7188C13.8125 15.4844 14.0078 15.25 14.2812 15.25H16.7812C17.0156 15.25 17.25 15.4844 17.25 15.7188V19.625H17.7188C17.9531 19.625 18.1875 19.8594 18.1875 20.0938V21.0312Z" fill="white"/>
</svg>
