<svg width="32" height="32" viewBox="0 0 32 32" fill="none" xmlns="http://www.w3.org/2000/svg">
<rect width="32" height="32" rx="6" fill="#F9B301"/>
<path d="M20.4531 9.78125C20.2969 9.625 20.0625 9.625 19.9062 9.78125L11.3906 18.2969L11 21.9297C10.9219 22.3984 11.3516 22.8281 11.8203 22.75L15.4531 22.3594L23.9688 13.8438C24.125 13.6875 24.125 13.4531 23.9688 13.2969L20.4531 9.78125ZM26.7812 8.88281L24.8672 6.96875C24.2812 6.38281 23.3047 6.38281 22.7188 6.96875L21.3516 8.33594C21.1953 8.49219 21.1953 8.72656 21.3516 8.88281L24.8672 12.3984C25.0234 12.5547 25.2578 12.5547 25.4141 12.3984L26.7812 11.0312C27.3672 10.4453 27.3672 9.46875 26.7812 8.88281ZM19.75 20.0547V24H7.25V11.5H16.1953C16.3516 11.5 16.4688 11.4609 16.5469 11.3828L18.1094 9.82031C18.3828 9.50781 18.1875 9 17.7578 9H6.625C5.57031 9 4.75 9.85938 4.75 10.875V24.625C4.75 25.6797 5.57031 26.5 6.625 26.5H20.375C21.3906 26.5 22.25 25.6797 22.25 24.625V18.4922C22.25 18.0625 21.7422 17.8672 21.4297 18.1406L19.8672 19.7031C19.7891 19.7812 19.75 19.8984 19.75 20.0547Z" fill="white"/>
</svg>
