<svg width="31" height="30" viewBox="0 0 31 30" fill="none" xmlns="http://www.w3.org/2000/svg">
<rect width="31" height="30" rx="6" fill="#00B1FF"/>
<path d="M19.875 5.5H11.125C10.0703 5.5 9.25 6.35938 9.25 7.375V23.625C9.25 24.6797 10.0703 25.5 11.125 25.5H19.875C20.8906 25.5 21.75 24.6797 21.75 23.625V7.375C21.75 6.35938 20.8906 5.5 19.875 5.5ZM15.5 24.25C14.7969 24.25 14.25 23.7031 14.25 23C14.25 22.3359 14.7969 21.75 15.5 21.75C16.1641 21.75 16.75 22.3359 16.75 23C16.75 23.7031 16.1641 24.25 15.5 24.25Z" fill="white"/>
</svg>
