<svg width="31" height="30" viewBox="0 0 31 30" fill="none" xmlns="http://www.w3.org/2000/svg">
<rect width="31" height="30" rx="6" fill="#03D670"/>
<path d="M15.6172 8.85938L17.5703 9.67969L18.3906 11.6328C18.4297 11.7109 18.5078 11.7891 18.625 11.7891C18.7031 11.7891 18.7812 11.7109 18.8203 11.6328L19.6406 9.67969L21.5938 8.85938C21.6719 8.82031 21.7109 8.74219 21.7109 8.66406C21.7109 8.54688 21.6719 8.46875 21.5938 8.42969L19.6406 7.60938L18.8203 5.65625C18.7812 5.57812 18.7031 5.5 18.625 5.5C18.5078 5.5 18.4297 5.57812 18.3906 5.65625L17.5703 7.60938L15.6172 8.42969C15.5391 8.46875 15.5 8.54688 15.5 8.66406C15.5 8.74219 15.5391 8.82031 15.6172 8.85938ZM19.7188 15.9688L15.6172 15.3438L13.7812 11.6328C13.4688 10.9688 12.4922 10.9688 12.1797 11.6328L10.3438 15.3438L6.24219 15.9688C5.5 16.0469 5.22656 16.9844 5.73438 17.4922L8.70312 20.3828L8 24.4844C7.88281 25.1875 8.66406 25.7734 9.32812 25.4219L12.9609 23.4688L16.6328 25.4219C16.75 25.4609 16.9453 25.5 17.0625 25.5C17.5703 25.5 17.9609 25.1094 17.9609 24.6016C17.9609 24.5625 17.9609 24.5234 17.9609 24.4844L17.2578 20.3828L20.2266 17.4922C20.7344 16.9844 20.4609 16.0469 19.7188 15.9688ZM25.3828 14.0938L23.8203 13.4297L23.1562 11.8672C23.1172 11.8281 23.0391 11.7891 23 11.7891C22.9219 11.7891 22.8438 11.8281 22.8047 11.8672L22.1406 13.4297L20.5781 14.0938C20.5391 14.1328 20.5 14.2109 20.5 14.25C20.5 14.3281 20.5391 14.4062 20.5781 14.4453L22.1406 15.1094L22.8047 16.6719C22.8438 16.7109 22.9219 16.75 23 16.75C23.0391 16.75 23.1172 16.7109 23.1562 16.6719L23.8203 15.1094L25.3828 14.4453C25.4219 14.4062 25.5 14.3281 25.5 14.25C25.5 14.2109 25.4219 14.1328 25.3828 14.0938Z" fill="white"/>
</svg>
