<svg width="31" height="30" viewBox="0 0 31 30" fill="none" xmlns="http://www.w3.org/2000/svg">
<rect width="31" height="30" rx="6" fill="#006EAF"/>
<path d="M24.1719 18.5859L18.625 15.5L24.1719 12.4531C24.6406 12.2188 24.7969 11.6328 24.5234 11.1641L23.7422 9.875C23.5078 9.40625 22.9219 9.25 22.4531 9.52344L17.0625 12.8047L17.1797 6.47656C17.1797 5.96875 16.75 5.5 16.2422 5.5H14.7188C14.2109 5.5 13.7812 5.96875 13.7812 6.47656L13.9375 12.8047L8.50781 9.52344C8.03906 9.25 7.45312 9.40625 7.21875 9.875L6.4375 11.1641C6.16406 11.6328 6.32031 12.2188 6.78906 12.4531L12.375 15.5L6.78906 18.5859C6.32031 18.8203 6.16406 19.4062 6.4375 19.875L7.21875 21.1641C7.45312 21.6328 8.03906 21.7891 8.50781 21.5156L13.9375 18.2344L13.7812 24.5625C13.7812 25.0703 14.2109 25.5 14.7188 25.5H16.2422C16.75 25.5 17.1797 25.0703 17.1797 24.5625L17.0625 18.2344L22.4531 21.5156C22.9219 21.7891 23.5078 21.6328 23.7422 21.1641L24.5234 19.875C24.7969 19.4062 24.6406 18.8203 24.1719 18.5859Z" fill="white"/>
</svg>
