<svg xmlns="http://www.w3.org/2000/svg" width="120.696" height="124" viewBox="0 0 120.696 124">
  <g id="value-icon4" transform="translate(-277.696 -3651.638)">
    <g id="Group_16394" data-name="Group 16394">
      <path id="Path_23365" data-name="Path 23365" d="M43.985,36.765C7.068,64.83,26.1,124.515,54.023,135.855c29.543,11.973,69.124,4.051,82.247-25.7C165.185,42.763,110.886-14.108,43.985,36.765Z" transform="translate(254.168 3634.431)" fill="#0abf53" opacity="0.1"/>
      <g id="Group_14314" data-name="Group 14314" transform="translate(301 3683.906)">
        <path id="Path_24235" data-name="Path 24235" d="M347.542,3831.668l-11.719,21.051-6.736-3.3,12.069-21.612Z" transform="translate(-328.035 -3814.927)" fill="#0abf53"/>
        <g id="Union_30" data-name="Union 30" transform="translate(20.696)" fill="#0abf53">
          <path d="M 23.06465148925781 12.22906398773193 C 22.85691261291504 12.22906398773193 22.65458106994629 12.17045402526855 22.47954177856445 12.05958461761475 C 21.9635009765625 11.73425483703613 21.80763244628906 11.04870414733887 22.13162231445313 10.53107452392578 L 25.74177169799805 4.799914360046387 C 25.94571113586426 4.476394176483154 26.29600143432617 4.283204555511475 26.67875099182129 4.283204555511475 C 26.88606262207031 4.283204555511475 27.08918190002441 4.34175443649292 27.26615142822266 4.452524185180664 C 27.78260231018066 4.778484344482422 27.93871116638184 5.463984489440918 27.61335182189941 5.980104446411133 L 24.00557136535645 11.7120246887207 C 23.80190277099609 12.03579425811768 23.45017242431641 12.22906398773193 23.06465148925781 12.22906398773193 Z M 4.969532012939453 12.22906398773193 C 4.587121963500977 12.22906398773193 4.236721992492676 12.03567409515381 4.032211780548096 11.71173477172852 L 0.4189319014549255 5.980104446411133 C 0.09505191445350647 5.462644577026367 0.2502019107341766 4.778754234313965 0.765221893787384 4.456284523010254 C 0.9436719417572021 4.34352445602417 1.147881865501404 4.284214496612549 1.356631875038147 4.284214496612549 C 1.739281892776489 4.284214496612549 2.088261842727661 4.476774215698242 2.290141820907593 4.799304485321045 L 5.903932094573975 10.53175449371338 C 6.229052066802979 11.04751396179199 6.074431896209717 11.73292446136475 5.55925178527832 12.05965423583984 C 5.383111953735352 12.17028427124023 5.178872108459473 12.22906398773193 4.969532012939453 12.22906398773193 Z M 14.01756191253662 9.368144035339355 C 13.40689182281494 9.368144035339355 12.91007232666016 8.87132453918457 12.91007232666016 8.260654449462891 L 12.91007232666016 1.353714346885681 C 12.91007232666016 0.7451243996620178 13.40689182281494 0.250004380941391 14.01756191253662 0.250004380941391 C 14.62615203857422 0.250004380941391 15.12127208709717 0.7451243996620178 15.12127208709717 1.353714346885681 L 15.12127208709717 8.260654449462891 C 15.12127208709717 8.87132453918457 14.62615203857422 9.368144035339355 14.01756191253662 9.368144035339355 Z" stroke="none"/>
          <path d="M 23.06465148925781 11.97906398773193 C 23.36370277404785 11.97906398773193 23.63633155822754 11.82949447631836 23.79399108886719 11.57885456085205 L 27.4018726348877 5.846784591674805 C 27.65375137329102 5.447214603424072 27.53266143798828 4.916364192962646 27.13351249694824 4.664434432983398 C 26.99635124206543 4.57858419418335 26.83910179138184 4.533204555511475 26.67875099182129 4.533204555511475 C 26.38237190246582 4.533204555511475 26.11114120483398 4.682774543762207 25.95330238342285 4.933154582977295 L 22.34353256225586 10.66371440887451 C 22.09244155883789 11.06487464904785 22.21306228637695 11.59605407714844 22.61332130432129 11.84838390350342 C 22.74828147888184 11.93387413024902 22.90435218811035 11.97906398773193 23.06465148925781 11.97906398773193 M 4.969532012939453 11.97906398773193 C 5.131772041320801 11.97906398773193 5.290031909942627 11.9335241317749 5.425362110137939 11.84852409362793 C 5.824441909790039 11.59543418884277 5.944262027740479 11.06453418731689 5.692441940307617 10.66507434844971 L 2.078231811523438 4.931944370269775 C 1.92234194278717 4.682904243469238 1.652581930160522 4.534214496612549 1.356631875038147 4.534214496612549 C 1.195221900939941 4.534214496612549 1.037201881408691 4.580154418945313 0.8978919386863708 4.668174266815186 C 0.499691903591156 4.91750431060791 0.3800919055938721 5.446834564208984 0.6304219365119934 5.846784591674805 L 4.24360179901123 11.57827472686768 C 4.402041912078857 11.82923412322998 4.673421859741211 11.97906398773193 4.969532012939453 11.97906398773193 M 14.01756191253662 9.118144035339355 C 14.48830223083496 9.118144035339355 14.87127208709717 8.733474731445313 14.87127208709717 8.260654449462891 L 14.87127208709717 1.353714346885681 C 14.87127208709717 0.88297438621521 14.48830223083496 0.5000043511390686 14.01756191253662 0.5000043511390686 C 13.5447416305542 0.5000043511390686 13.16007232666016 0.88297438621521 13.16007232666016 1.353714346885681 L 13.16007232666016 8.260654449462891 C 13.16007232666016 8.733474731445313 13.5447416305542 9.118144035339355 14.01756191253662 9.118144035339355 M 23.06465148925781 12.47906398773193 C 22.81904220581055 12.47906398773193 22.56870269775391 12.41199398040771 22.34576225280762 12.27077484130859 C 21.71189117431641 11.87117481231689 21.52295112609863 11.03231430053711 21.91971206665039 10.39843463897705 L 25.53024101257324 4.666664600372314 C 25.78847312927246 4.257025718688965 26.22860717773438 4.033200740814209 26.67874908447266 4.033200740814209 C 26.92516136169434 4.033200740814209 27.1745548248291 4.100256443023682 27.3987922668457 4.240614414215088 C 28.03266143798828 4.640684604644775 28.22443199157715 5.479544162750244 27.82484245300293 6.113424301147461 L 24.2171516418457 11.84519481658936 C 23.95925140380859 12.25518417358398 23.51620101928711 12.47906398773193 23.06465148925781 12.47906398773193 Z M 4.969532012939453 12.47906398773193 C 4.517982006072998 12.47906398773193 4.079651832580566 12.25518417358398 3.820811986923218 11.84519481658936 L 0.2074519097805023 6.113424301147461 C -0.1893080919981003 5.479544162750244 -0.0003680874651763588 4.640684604644775 0.632551908493042 4.244394302368164 C 0.857683002948761 4.102137088775635 1.108774304389954 4.034217357635498 1.35662853717804 4.034217357635498 C 1.806633710861206 4.034217357635498 2.246206521987915 4.257915496826172 2.502051830291748 4.666664600372314 L 6.115411758422852 10.39843463897705 C 6.515001773834229 11.03231430053711 6.323241710662842 11.87117481231689 5.693141937255859 12.27077484130859 C 5.468311786651611 12.41199398040771 5.216082096099854 12.47906398773193 4.969532012939453 12.47906398773193 Z M 14.01756191253662 9.618144035339355 C 13.26938152313232 9.618144035339355 12.66007232666016 9.009774208068848 12.66007232666016 8.260654449462891 L 12.66007232666016 1.353714346885681 C 12.66007232666016 0.6050643920898438 13.26938152313232 4.378051926323678e-06 14.01756191253662 4.378051926323678e-06 C 14.76668167114258 4.378051926323678e-06 15.37127208709717 0.6050643920898438 15.37127208709717 1.353714346885681 L 15.37127208709717 8.260654449462891 C 15.37127208709717 9.009774208068848 14.76668167114258 9.618144035339355 14.01756191253662 9.618144035339355 Z" stroke="none" fill="#e6f9ed"/>
        </g>
        <g id="Path_23400" data-name="Path 23400" transform="translate(0 -2.962)" fill="#222">
          <path d="M 28.34698677062988 63.72938537597656 L 28.34696769714355 63.72938537597656 C 27.0267162322998 63.72951507568359 25.79885673522949 63.14116668701172 24.97822761535645 62.11520767211914 C 24.26603698730469 61.22761535644531 23.94037628173828 60.11156845092773 24.06098747253418 58.97234725952148 L 24.0870475769043 58.72623825073242 L 23.84120750427246 58.69769668579102 C 22.70179748535156 58.56542587280273 21.6829776763916 58.00192642211914 20.9724063873291 57.11101531982422 C 20.2625675201416 56.2232551574707 19.93782806396484 55.10850524902344 20.05780792236328 53.97186660766602 L 20.08376693725586 53.72590637207031 L 19.83809661865234 53.69730758666992 C 18.70129776000977 53.56496810913086 17.68346786499023 53.00228881835938 16.97211647033691 52.1129150390625 C 16.25996780395508 51.22550582885742 15.93425750732422 50.11008834838867 16.05473709106445 48.97181701660156 L 16.08078765869141 48.72572708129883 L 15.83498668670654 48.69716644287109 C 14.69648742675781 48.56486511230469 13.67795753479004 48.00243759155273 12.96703720092773 47.11346817016602 C 12.24921703338623 46.21586608886719 11.92502689361572 45.0893669128418 12.05420684814453 43.94146728515625 C 12.15135669708252 43.07911682128906 12.49692726135254 42.27947616577148 13.05354690551758 41.62899780273438 L 13.18430709838867 41.47618865966797 L 13.06304740905762 41.31572723388672 C 12.43568706512451 40.485595703125 11.52780723571777 39.79314804077148 10.43753719329834 39.31321716308594 L 10.23050689697266 39.22207641601563 L 10.1191873550415 39.41899871826172 L 9.735306739807129 40.09807586669922 C 9.183346748352051 41.07256698608398 8.135766983032227 41.67804718017578 7.001457214355469 41.67804718017578 C 6.471527099609375 41.67804718017578 5.945987224578857 41.5423583984375 5.481657028198242 41.28564834594727 L 1.848547220230103 39.27329635620117 C 1.121767163276672 38.87136840820313 0.5964871644973755 38.20590591430664 0.3693371713161469 37.39941787719727 C 0.1405571550130844 36.58691787719727 0.2430971562862396 35.73704528808594 0.6580871343612671 35.00639724731445 L 11.12720680236816 16.49342727661133 C 11.6775074005127 15.5182466506958 12.72416687011719 14.91257667541504 13.85885715484619 14.91257667541504 C 14.38932704925537 14.91257667541504 14.91563701629639 15.04851722717285 15.38088703155518 15.30570697784424 L 19.01396751403809 17.31831741333008 C 19.74111747741699 17.72059631347656 20.26645660400391 18.38544654846191 20.49334716796875 19.19046783447266 C 20.70398712158203 19.93790626525879 20.63124656677246 20.73038673400879 20.28854751586914 21.42192649841309 L 20.15577697753906 21.68984603881836 L 20.44297790527344 21.77305603027344 L 23.8907470703125 22.77202606201172 L 24.04132652282715 22.8156566619873 L 24.14617729187012 22.69910621643066 C 25.07449722290039 21.66717720031738 26.76595687866211 21.07499694824219 29.46930694580078 20.8354663848877 L 35.51948547363281 20.29399681091309 C 35.88388824462891 20.26074600219727 36.27128601074219 20.22831726074219 36.65434646606445 20.22831726074219 C 37.51909637451172 20.22831726074219 38.35638809204102 20.39754676818848 39.54433822631836 20.81243705749512 L 43.09225845336914 22.05274772644043 C 43.51340866088867 22.19967651367188 43.85760879516602 22.33000755310059 44.1341667175293 22.43472671508789 L 44.14092636108398 22.43728637695313 C 44.75077819824219 22.66828727722168 45.00821685791016 22.7620677947998 45.25793838500977 22.76292610168457 C 45.58160781860352 22.76292610168457 46.09458541870117 22.63142776489258 46.98978805541992 22.37244606018066 L 48.99244689941406 21.79204750061035 L 49.28152847290039 21.70826721191406 L 49.14613723754883 21.43946647644043 C 48.79603576660156 20.74441719055176 48.72046661376953 19.94570732116699 48.93335723876953 19.19047737121582 C 49.16022872924805 18.3850269317627 49.68596649169922 17.71996688842773 50.41375732421875 17.31775665283203 L 54.04918670654297 15.30591678619385 C 54.51376724243164 15.04912662506104 55.03944778442383 14.91335678100586 55.56929779052734 14.91335678100586 C 56.70350646972656 14.91335678100586 57.74981689453125 15.51918697357178 58.2999153137207 16.49441719055176 L 60.42454528808594 20.24827766418457 C 60.57004547119141 20.5053768157959 60.60674667358398 20.80374717712402 60.52785873413086 21.08843612670898 C 60.44896697998047 21.37313652038574 60.2639274597168 21.61004638671875 60.00682830810547 21.75552749633789 C 59.84076690673828 21.84951782226563 59.65285873413086 21.8991870880127 59.46339797973633 21.8991870880127 C 59.06488800048828 21.8991870880127 58.6955680847168 21.6840763092041 58.49954605102539 21.33778762817383 L 56.3741569519043 17.58261680603027 C 56.21430587768555 17.29933738708496 55.90859603881836 17.1231861114502 55.57647705078125 17.1231861114502 C 55.41742706298828 17.1231861114502 55.25940704345703 17.16414642333984 55.11948776245117 17.24162673950195 L 51.48411560058594 19.25334739685059 C 51.20512771606445 19.40765762329102 51.10004806518555 19.65628623962402 51.06223678588867 19.79075622558594 C 51.02348709106445 19.92844772338867 50.98273849487305 20.20229721069336 51.14529800415039 20.48869705200195 L 60.68185806274414 37.35619735717773 C 60.68297576904297 37.35829544067383 60.68593597412109 37.36341857910156 60.68891906738281 37.3685188293457 L 60.69097900390625 37.37247848510742 L 60.69391632080078 37.37747573852539 L 61.61640548706055 39.00929641723633 C 61.77604675292969 39.29091644287109 62.08450698852539 39.4656982421875 62.42156600952148 39.4656867980957 C 62.58048629760742 39.46567535400391 62.73707580566406 39.42557525634766 62.87440872192383 39.34972763061523 L 66.50579833984375 37.33821868896484 C 66.78432464599609 37.18436813354492 66.89014434814453 36.93447875976563 66.92841339111328 36.79922866821289 C 66.96775817871094 36.66023635864258 67.00950622558594 36.38402557373047 66.84701538085938 36.09601593017578 L 64.49185943603516 31.93522644042969 C 64.34629058837891 31.67817687988281 64.3095703125 31.3798770904541 64.388427734375 31.09524726867676 C 64.46730804443359 30.81058692932129 64.65234375 30.57365608215332 64.90947723388672 30.4281063079834 C 65.07561492919922 30.33395767211914 65.26351928710938 30.28422737121582 65.45298004150391 30.28422737121582 C 65.85128021240234 30.28422737121582 66.22052764892578 30.49938774108887 66.41661834716797 30.84574699401855 L 68.77265930175781 35.00798797607422 C 69.18569946289063 35.7398567199707 69.28652954101563 36.59027862548828 69.05641937255859 37.40230560302734 C 68.82830047607422 38.20766830444336 68.3028564453125 38.87222671508789 67.57685852050781 39.27360534667969 L 63.94542694091797 41.28521728515625 C 63.48097610473633 41.54195785522461 62.95494842529297 41.67779541015625 62.42438888549805 41.67792510986328 C 61.29016876220703 41.67792510986328 60.24284744262695 41.07271575927734 59.69120788574219 40.09848785400391 L 59.30658721923828 39.41817855834961 L 59.19530868530273 39.22135543823242 L 58.98833847045898 39.31235504150391 C 57.89920806884766 39.79119873046875 56.99220657348633 40.48385620117188 56.36538696289063 41.31544876098633 L 56.24453735351563 41.47577667236328 L 56.37500762939453 41.62838745117188 C 56.93287658691406 42.28092575073242 57.27849578857422 43.08308792114258 57.37450790405273 43.94814682006836 C 57.50175857543945 45.09511566162109 57.17623901367188 46.21976852416992 56.45790863037109 47.11491775512695 C 55.74800872802734 48.00264739990234 54.73051834106445 48.56435775756836 53.59261703491211 48.69691848754883 L 53.34682846069336 48.72554779052734 L 53.37294769287109 48.97162628173828 C 53.49361801147461 50.10850524902344 53.16862869262695 51.22406768798828 52.45784759521484 52.11278533935547 C 51.74455642700195 53.0015869140625 50.72589874267578 53.56429672241211 49.58976745605469 53.69692611694336 L 49.34413528442383 53.7255973815918 L 49.37014770507813 53.97152709960938 C 49.49050903320313 55.10972595214844 49.16426849365234 56.22557830810547 48.4515380859375 57.113525390625 C 47.73699569702148 58.00969696044922 46.71120834350586 58.57313537597656 45.56261825561523 58.70068740844727 C 45.40024566650391 58.71864700317383 45.23585891723633 58.72775650024414 45.0740966796875 58.72775650024414 C 44.59295654296875 58.72775650024414 44.12118530273438 58.64870834350586 43.67062759399414 58.49280548095703 L 43.39836883544922 58.39860534667969 L 43.34345626831055 58.68142700195313 C 43.21001815795898 59.36880874633789 42.92072677612305 59.99442672729492 42.48363876342773 60.54087829589844 C 41.6618766784668 61.56786727905273 40.43251800537109 62.15696716308594 39.11078643798828 62.15709686279297 C 38.12411880493164 62.15709686279297 37.19573593139648 61.83213806152344 36.42538833618164 61.21733856201172 L 34.80368804931641 59.9218864440918 L 34.61533737182617 59.77142715454102 L 34.45812606811523 59.95418548583984 C 34.28149795532227 60.15953826904297 34.08598709106445 60.34819793701172 33.87704849243164 60.51491546630859 L 31.0375862121582 62.7869758605957 C 30.26567649841309 63.40345764160156 29.3352165222168 63.72938537597656 28.34698677062988 63.72938537597656 Z M 27.04111099243164 57.78134918212891 L 27.04012680053711 57.78199768066406 L 27.03117752075195 57.78914642333984 C 26.59679794311523 58.1361083984375 26.32341766357422 58.6348762512207 26.26140785217285 59.19357681274414 C 26.19936752319336 59.75248718261719 26.35682678222656 60.29895782470703 26.70478630065918 60.73232650756836 C 27.10427665710449 61.23198699951172 27.70225715637207 61.518798828125 28.34507751464844 61.518798828125 C 28.81971740722656 61.518798828125 29.28549766540527 61.35567855834961 29.6566162109375 61.05949783325195 L 32.4962158203125 58.78703689575195 C 32.93158721923828 58.43934631347656 33.20578765869141 57.94043731689453 33.26809692382813 57.38236618041992 C 33.33053588867188 56.82503509521484 33.1739387512207 56.27906799316406 32.82711791992188 55.84511566162109 C 32.4266471862793 55.34469604492188 31.82802772521973 55.05776596069336 31.18465805053711 55.05776596069336 C 30.71356201171875 55.05776596069336 30.25144386291504 55.21850204467773 29.8824520111084 55.51052856445313 C 29.87783622741699 55.51384735107422 29.8733024597168 55.51731109619141 29.86883735656738 55.52096557617188 L 27.04111099243164 57.78134918212891 Z M 27.64761734008789 39.27472686767578 C 28.96863746643066 39.27472686767578 30.19716644287109 39.86346817016602 31.01821708679199 40.88997650146484 C 31.73478698730469 41.78607559204102 32.05919647216797 42.91028594970703 31.93167686462402 44.05548858642578 C 31.84956741333008 44.79327774047852 31.57943725585938 45.4981575012207 31.15049743652344 46.09394836425781 L 30.97403717041016 46.33904647827148 L 31.24778747558594 46.46661758422852 C 31.85088729858398 46.74767684936523 32.36814880371094 47.15370559692383 32.78520584106445 47.67343521118164 C 33.50365829467773 48.57175827026367 33.82831573486328 49.69878768920898 33.69912719726563 50.84659576416016 C 33.61625671386719 51.58339691162109 33.34614562988281 52.28679656982422 32.91799545288086 52.88075637817383 L 32.74131774902344 53.1258659362793 L 33.01516723632813 53.25353622436523 C 33.61959838867188 53.53531646728516 34.13738632202148 53.94230651855469 34.55414581298828 54.46319580078125 C 35.23799896240234 55.31825637817383 35.56623840332031 56.39283752441406 35.47837829589844 57.48896789550781 L 35.46776580810547 57.62136840820313 L 35.57153701782227 57.70426559448242 L 37.80555725097656 59.48903656005859 C 38.1755256652832 59.7841682434082 38.64006805419922 59.94663619995117 39.11374664306641 59.94661712646484 C 39.75734710693359 59.94660568237305 40.35611724853516 59.65953826904297 40.75652694702148 59.15903854370117 C 41.47410583496094 58.26189804077148 41.32833862304688 56.94292831420898 40.43159866333008 56.21879577636719 L 38.46162796020508 54.64332580566406 C 38.33436584472656 54.54154586791992 38.23291778564453 54.41427612304688 38.16010665893555 54.26505661010742 C 38.00761795043945 53.95277786254883 38.01013565063477 53.58357620239258 38.16680526733398 53.27736663818359 C 38.20048904418945 53.21133804321289 38.24147796630859 53.14795684814453 38.28878784179688 53.08868789672852 C 38.49963760375977 52.82499694824219 38.814697265625 52.67367553710938 39.15306854248047 52.67367553710938 C 39.40621566772461 52.67367553710938 39.64484786987305 52.75747680664063 39.84314727783203 52.9160270690918 L 40.15242767333984 53.16335678100586 L 41.80452728271484 54.48413467407227 C 41.80886840820313 54.48789596557617 41.8127555847168 54.49118041992188 41.81682586669922 54.49442672729492 L 43.77512741088867 56.06057739257813 C 44.14806747436523 56.35821533203125 44.59927749633789 56.51544570922852 45.08017730712891 56.51543807983398 C 45.15909576416016 56.51542663574219 45.23916625976563 56.51101684570313 45.31815719604492 56.50232696533203 C 45.87841796875 56.43997573852539 46.377685546875 56.16631698608398 46.72428894042969 55.73169708251953 C 47.07334899902344 55.29691696166992 47.2316780090332 54.74970626831055 47.16958618164063 54.19150543212891 C 47.10742568969727 53.63284683227539 46.83341598510742 53.1331672668457 46.39802551269531 52.78448867797852 L 42.46379852294922 49.64493560791016 C 41.98714828491211 49.26457595825195 41.90880584716797 48.56733703613281 42.28915786743164 48.09067535400391 C 42.50022888183594 47.82623672485352 42.81565856933594 47.67456817626953 43.15454864501953 47.67456817626953 C 43.4072265625 47.67456817626953 43.64543533325195 47.7580680847168 43.84341812133789 47.91604614257813 L 47.77920532226563 51.05681610107422 C 48.14922714233398 51.35317611694336 48.6146354675293 51.51652526855469 49.08934783935547 51.51649856567383 C 49.73189544677734 51.5164680480957 50.33048629760742 51.2297477722168 50.73161697387695 50.7298583984375 C 51.45177841186523 49.82940673828125 51.30259704589844 48.50862503051758 50.39932632446289 47.78530883789063 L 46.77193832397461 44.88707733154297 C 46.54118728637695 44.70269775390625 46.39604568481445 44.43946838378906 46.36324691772461 44.14585876464844 C 46.33044815063477 43.85225677490234 46.41391754150391 43.5634765625 46.59829711914063 43.33272552490234 C 46.80930709838867 43.06856536865234 47.12449645996094 42.91707611083984 47.46308898925781 42.91707611083984 C 47.71602630615234 42.91707611083984 47.95448684692383 43.00076675415039 48.15265655517578 43.15909576416016 L 51.77085876464844 46.0499382019043 L 51.7883186340332 46.06739807128906 L 51.80188369750977 46.07441329956055 C 52.17079925537109 46.36302185058594 52.6137809753418 46.51539611816406 53.08469772338867 46.51538848876953 C 53.16440582275391 46.51538848876953 53.24524688720703 46.51083755493164 53.32498550415039 46.50186538696289 C 53.88455581665039 46.43975830078125 54.38425827026367 46.16632843017578 54.73166656494141 45.73199844360352 C 55.08013534545898 45.29791641235352 55.238037109375 44.75082778930664 55.17598724365234 44.19185638427734 C 55.11397552490234 43.63263702392578 54.84040832519531 43.13363647460938 54.40569686889648 42.78679656982422 L 50.00427627563477 39.2691764831543 C 48.25477600097656 37.87356567382813 45.6471061706543 35.8160285949707 43.20848846435547 34.06649780273438 C 42.83209609985352 33.79691696166992 42.47285842895508 33.53538513183594 42.12544631958008 33.28247833251953 L 42.11098861694336 33.27194595336914 C 39.38800811767578 31.28902626037598 37.74463653564453 30.0922966003418 35.06073760986328 30.0922966003418 C 34.34651565551758 30.0922966003418 33.5723876953125 30.17819786071777 32.69411849975586 30.35491752624512 C 31.84587669372559 30.52583694458008 31.02231788635254 30.61249732971191 30.24625778198242 30.61249732971191 C 26.69872665405273 30.61249732971191 24.23102760314941 28.83179664611816 23.47588729858398 25.72697639465332 C 23.42424774169922 25.51459693908691 23.39020729064941 25.3066463470459 23.37180709838867 25.09125709533691 L 23.35719680786133 24.92018699645996 L 23.19228744506836 24.87240600585938 L 19.21567726135254 23.72021675109863 L 19.02578735351563 23.66519737243652 L 18.92847633361816 23.8372974395752 L 11.45974731445313 37.04761505126953 L 11.32704734802246 37.2823371887207 L 11.57111740112305 37.39694595336914 C 12.84969711303711 37.99734878540039 13.9445972442627 38.8494987487793 14.73743724822998 39.86125564575195 L 14.89313697814941 40.0599479675293 L 15.09030723571777 39.90233612060547 L 18.72114753723145 37.00008773803711 C 19.49167633056641 36.38530731201172 20.42065811157227 36.06027603149414 21.40749740600586 36.06027603149414 C 22.72893714904785 36.06027603149414 23.95810699462891 36.64919662475586 24.77982711791992 37.676025390625 C 25.19716644287109 38.19789505004883 25.48036766052246 38.79116821289063 25.62149810791016 39.43928527832031 L 25.68569755554199 39.73410797119141 L 25.96344757080078 39.61622619628906 C 26.49734687805176 39.38962554931641 27.06398773193359 39.27472686767578 27.64761734008789 39.27472686767578 Z M 23.0174446105957 52.79606628417969 C 22.58930969238281 53.1438102722168 22.31991958618164 53.63873672485352 22.25835800170898 54.19146728515625 C 22.1963062286377 54.74969863891602 22.35347747802734 55.29629516601563 22.70089721679688 55.73062515258789 C 23.04812622070313 56.16599655151367 23.5478572845459 56.44014739990234 24.10779762268066 56.50228881835938 C 24.18708801269531 56.51104736328125 24.26727676391602 56.51547622680664 24.3462963104248 56.51547622680664 C 24.82708740234375 56.51547622680664 25.27863693237305 56.35783767700195 25.65212631225586 56.05959701538086 L 30.72869682312012 52.00167846679688 C 31.16390800476074 51.65525817871094 31.43839645385742 51.15716552734375 31.50119781494141 50.59945678710938 C 31.56415748596191 50.03955841064453 31.40709686279297 49.49154663085938 31.05896759033203 49.05633544921875 C 30.65835762023926 48.55703735351563 30.06030654907227 48.27083587646484 29.41793632507324 48.27083587646484 C 28.94533538818359 48.27083587646484 28.48219680786133 48.4326286315918 28.11329460144043 48.72646331787109 C 28.10599327087402 48.73153305053711 28.1001148223877 48.73575973510742 28.09438705444336 48.74017715454102 L 23.03080749511719 52.78522872924805 L 23.01813697814941 52.79534530639648 L 23.0174446105957 52.79606628417969 Z M 19.03559112548828 47.77838134765625 L 19.03503799438477 47.77874755859375 L 19.02549743652344 47.78634643554688 C 18.59072685241699 48.13498687744141 18.31714630126953 48.63431549072266 18.25515747070313 49.19235610961914 C 18.1930980682373 49.75035858154297 18.35049629211426 50.29643630981445 18.6983470916748 50.72996520996094 C 19.09818649291992 51.22975540161133 19.69633674621582 51.51656723022461 20.3392162322998 51.51656723022461 C 20.81374740600586 51.51656723022461 21.27938652038574 51.3535270690918 21.65036773681641 51.05748748779297 L 28.96094703674316 45.21736526489258 C 29.39691734313965 44.86907577514648 29.67125701904297 44.36966705322266 29.73341751098633 43.81111526489258 C 29.79545783996582 43.25290679931641 29.63828659057617 42.70630645751953 29.29085731506348 42.27197647094727 C 28.89075660705566 41.77147674560547 28.29222679138184 41.4843864440918 27.64881706237793 41.4843864440918 C 27.17476654052734 41.4843864440918 26.70986747741699 41.64716720581055 26.33976745605469 41.94274520874023 L 19.03559112548828 47.77838134765625 Z M 21.41018676757813 38.27064514160156 C 20.93634796142578 38.27064514160156 20.47167778015137 38.43327713012695 20.10177803039551 38.72857666015625 L 15.02504730224609 42.78665542602539 C 14.58970737457275 43.133056640625 14.3151969909668 43.63118743896484 14.25253677368164 44.18893814086914 C 14.18958759307861 44.74879837036133 14.34658718109131 45.29684829711914 14.6946268081665 45.73209762573242 C 15.04199695587158 46.16638565063477 15.54169750213623 46.43976593017578 16.10168647766113 46.50190734863281 C 16.18093681335449 46.51072692871094 16.26133728027344 46.51519775390625 16.34056663513184 46.51519775390625 C 16.8166332244873 46.51519775390625 17.26393890380859 46.35996627807617 17.63492202758789 46.0661506652832 L 17.63759803771973 46.06438827514648 L 17.64664459228516 46.05681991577148 L 22.70096778869629 42.01853561401367 L 22.70387649536133 42.01621627807617 L 22.70670700073242 42.01381683349609 C 22.71284675598145 42.00859832763672 22.71873664855957 42.00325775146484 22.72456741333008 41.99787521362305 L 22.72382736206055 41.99821853637695 C 23.15881729125977 41.65213775634766 23.43256759643555 41.15516662597656 23.49509811401367 40.59846878051758 C 23.55789756774902 40.04007720947266 23.40084648132324 39.49292755126953 23.05284690856934 39.05784606933594 C 22.65225791931152 38.55753707885742 22.05355644226074 38.27064514160156 21.41018676757813 38.27064514160156 Z M 35.05661773681641 27.88414764404297 C 38.46957778930664 27.88414764404297 40.65119552612305 29.47282600402832 43.41323852539063 31.48415756225586 L 43.44382858276367 31.50642776489258 C 43.78148651123047 31.75226783752441 44.13065719604492 32.00647735595703 44.49731826782227 32.26908874511719 C 46.97884750366211 34.04950714111328 49.61647796630859 36.13056564331055 51.38457870483398 37.54100799560547 L 54.33817672729492 39.90152740478516 L 54.53545761108398 40.05919647216797 L 54.69111633300781 39.86032867431641 C 55.48265838623047 38.84908676147461 56.57679748535156 37.99755859375 57.85525894165039 37.39779663085938 L 58.09945678710938 37.28323745727539 L 57.96670532226563 37.04842758178711 L 50.50800704956055 23.85599708557129 L 50.41069793701172 23.68388748168945 L 50.22079849243164 23.73891639709473 L 47.60479736328125 24.49692726135254 C 46.51007843017578 24.81377601623535 45.84814834594727 24.97466659545898 45.26849746704102 24.97466659545898 C 44.69887542724609 24.97466659545898 44.1778678894043 24.81677627563477 43.35700607299805 24.50583648681641 C 43.09405899047852 24.40618705749512 42.76676559448242 24.28215599060059 42.36261749267578 24.14100646972656 L 38.81429672241211 22.90056610107422 C 37.86569595336914 22.56921768188477 37.25375747680664 22.44012641906738 36.63164901733398 22.44012641906738 C 36.3419075012207 22.44012641906738 36.05428695678711 22.46636772155762 35.72125625610352 22.49675750732422 L 29.66497802734375 23.03874778747559 C 26.81452751159668 23.29116630554199 25.96920776367188 23.91398620605469 25.71903800964355 24.26277732849121 C 25.60683631896973 24.41950607299805 25.49502754211426 24.66789627075195 25.62540626525879 25.20486640930176 C 26.13296699523926 27.29160690307617 27.73801803588867 28.39450645446777 30.26706695556641 28.39443778991699 C 31.06074714660645 28.39441680908203 31.78766632080078 28.28148651123047 32.25772857666016 28.1867561340332 C 33.27022552490234 27.9831371307373 34.18577575683594 27.88414764404297 35.05661773681641 27.88414764404297 Z M 13.85090732574463 17.12244606018066 C 13.51822757720947 17.12244606018066 13.21240711212158 17.2982177734375 13.05279731750488 17.58116722106934 L 2.582397222518921 36.0971565246582 C 2.418597221374512 36.38501739501953 2.45937705039978 36.66078567504883 2.498287200927734 36.79949569702148 C 2.536757230758667 36.93509674072266 2.642357110977173 37.18431854248047 2.919607162475586 37.33782577514648 L 6.552717208862305 39.35012817382813 C 6.689707279205322 39.42592620849609 6.845937252044678 39.46597671508789 7.004607200622559 39.46597671508789 C 7.341856956481934 39.46597671508789 7.650547027587891 39.29077529907227 7.810227394104004 39.00876617431641 L 18.27987670898438 20.49076652526855 C 18.44342803955078 20.20272636413574 18.4028263092041 19.92855644226074 18.36404800415039 19.79080772399902 C 18.32644271850586 19.65769577026367 18.22322273254395 19.41337203979492 17.95241928100586 19.25918769836426 L 17.95181655883789 19.2587776184082 L 17.94160652160645 19.25311660766602 L 14.30941677093506 17.24108695983887 C 14.16907691955566 17.1634464263916 14.01056671142578 17.12244606018066 13.85090732574463 17.12244606018066 Z" stroke="none"/>
          <path d="M 13.85886764526367 15.16258239746094 C 12.81421661376953 15.16258239746094 11.85097885131836 15.71953201293945 11.34482574462891 16.61648178100586 L 0.8754806518554688 35.1298713684082 C 0.4937286376953125 35.80199432373047 0.3994369506835938 36.58394241333008 0.609954833984375 37.33164215087891 C 0.818878173828125 38.07333374023438 1.301666259765625 38.68517303466797 1.969680786132813 39.05460357666016 L 5.602615356445313 41.06685256958008 C 6.030017852783203 41.30314254760742 6.513725280761719 41.42804336547852 7.001457214355469 41.42804336547852 C 8.045875549316406 41.42804336547852 9.010108947753906 40.87114334106445 9.517665863037109 39.97505187988281 L 9.901546478271484 39.29597473144531 L 10.12418746948242 38.90212249755859 L 10.53826904296875 39.08440399169922 C 11.66747665405273 39.58148193359375 12.6095085144043 40.30094146728516 13.26249694824219 41.16500473022461 L 13.50502777099609 41.48592376708984 L 13.24348831176758 41.79154205322266 C 12.71950531005859 42.40388488769531 12.39415740966797 43.1569938659668 12.30263900756836 43.96941375732422 C 12.18094635009766 45.05084228515625 12.48623657226563 46.11197280883789 13.16228866577148 46.95733261108398 C 13.8317756652832 47.79449462890625 14.79120635986328 48.32419586181641 15.86384582519531 48.44884490966797 L 16.35544586181641 48.50597381591797 L 16.30334854125977 48.99813079833984 C 16.18985748291016 50.07033538818359 16.49651718139648 51.12083435058594 17.1673583984375 51.95675277709961 C 17.83729553222656 52.79435348510742 18.79604721069336 53.32430267333984 19.86699676513672 53.44898223876953 L 20.35833740234375 53.50619506835938 L 20.30641555786133 53.99811553955078 C 20.19339752197266 55.06888580322266 20.49919891357422 56.11886596679688 21.1678581237793 56.95512390136719 C 21.83698654174805 57.79410552978516 22.79663848876953 58.32476043701172 23.87002563476563 58.4493522644043 L 24.36171722412109 58.50643157958984 L 24.30959701538086 58.99866485595703 C 24.19597625732422 60.07183074951172 24.50259780883789 61.12297058105469 25.17345809936523 61.95905303955078 C 25.94637680053711 62.92536163330078 27.10306549072266 63.4795036315918 28.34698867797852 63.47938537597656 C 29.27793884277344 63.47938537597656 30.15443801879883 63.1723518371582 30.88138580322266 62.59177398681641 L 33.72112655639648 60.31949234008789 C 33.91790771484375 60.1624755859375 34.10210800170898 59.98471069335938 34.26859664916992 59.79116058349609 L 34.5830078125 59.42562103271484 L 34.9597282409668 59.72655487060547 L 36.58133697509766 61.02193450927734 C 37.30692672729492 61.60101318359375 38.18138885498047 61.9070930480957 39.11075592041016 61.9070930480957 C 40.35614776611328 61.90697479248047 41.51437759399414 61.3520622253418 42.28840637207031 60.38473510742188 C 42.69997787475586 59.87016296386719 42.97237777709961 59.28106307983398 43.09803771972656 58.63378143310547 L 43.20784759521484 58.06815338134766 L 43.75236511230469 58.25655364990234 C 44.17659759521484 58.40334320068359 44.62089538574219 58.47776031494141 45.0740966796875 58.47776031494141 C 45.22672653198242 58.47776031494141 45.38186645507813 58.46916198730469 45.53501892089844 58.45220184326172 C 46.6170768737793 58.3320426940918 47.58325958251953 57.8015022277832 48.25657653808594 56.95702362060547 C 48.92772674560547 56.12090301513672 49.23490905761719 55.06996154785156 49.12152862548828 53.99781036376953 L 49.06951904296875 53.50595092773438 L 49.56077575683594 53.44860076904297 C 50.63124847412109 53.32364273071289 51.59095764160156 52.79355239868164 52.26260757446289 51.95664215087891 C 52.93197631835938 51.11969375610352 53.23801803588867 50.06896209716797 53.12433624267578 48.99801254272461 L 53.07210540771484 48.50587463378906 L 53.56368637084961 48.44860076904297 C 54.63574600219727 48.32371520996094 55.59415817260742 47.79474258422852 56.2629280090332 46.95846557617188 C 56.93938827514648 46.11548233032227 57.24590682983398 45.05619430541992 57.12602615356445 43.97572326660156 C 57.03556823730469 43.16066360473633 56.71015930175781 42.40514373779297 56.18497848510742 41.79084396362305 L 55.92403793334961 41.48563385009766 L 56.16573715209961 41.16497421264648 C 56.81825637817383 40.29929351806641 57.75949859619141 39.57953262329102 58.8877067565918 39.08350372314453 L 59.30165863037109 38.90151214599609 L 59.52419662475586 39.29514312744141 L 59.90873718261719 39.97529220581055 C 60.41609573364258 40.87131500244141 61.38005828857422 41.42792129516602 62.42430877685547 41.42792129516602 C 62.9127082824707 41.42780303955078 63.39694595336914 41.30275344848633 63.82428741455078 41.06652450561523 L 67.45589447021484 39.05482482910156 C 68.12310028076172 38.68595123291016 68.6060791015625 38.07489395141602 68.81588745117188 37.33414459228516 C 69.02766418457031 36.58678436279297 68.9349365234375 35.80420303344727 68.55508422851563 35.13113403320313 L 66.19905090332031 30.96891403198242 C 66.04726409912109 30.70081329345703 65.76136779785156 30.53425216674805 65.45285034179688 30.53422164916992 C 65.30658721923828 30.53422164916992 65.16135406494141 30.57271194458008 65.03262329101563 30.64567184448242 C 64.8336181640625 30.75832366943359 64.69039916992188 30.94169235229492 64.62935638427734 31.16199493408203 C 64.56832885742188 31.38225173950195 64.59674835205078 31.61309432983398 64.70942687988281 31.81207275390625 L 67.06472778320313 35.97315216064453 C 67.27179718017578 36.34012222290039 67.21889495849609 36.69093322753906 67.16897583007813 36.86723327636719 C 67.12012481689453 37.03996276855469 66.98468780517578 37.35928344726563 66.62693786621094 37.55690383911133 L 62.99526596069336 39.56858444213867 C 62.82100677490234 39.66481399536133 62.62262725830078 39.71568298339844 62.42156600952148 39.71568298339844 C 61.99465560913086 39.71568298339844 61.60284805297852 39.49235153198242 61.39877700805664 39.13233184814453 L 60.47628784179688 37.50050354003906 L 60.47188568115234 37.49273300170898 L 60.47141647338867 37.49182510375977 C 60.46852874755859 37.48685836791992 60.46567153930664 37.48187255859375 60.46286773681641 37.47682571411133 L 50.92788696289063 20.61210250854492 C 50.72052001953125 20.24677276611328 50.77228546142578 19.89822387695313 50.82157897949219 19.72307205200195 C 50.86993789672852 19.55105209350586 51.00461578369141 19.23286437988281 51.36307525634766 19.03460311889648 L 54.99837493896484 17.02291488647461 C 55.17525482177734 16.92496490478516 55.37515640258789 16.87319183349609 55.57643890380859 16.87319183349609 C 55.99860763549805 16.87315368652344 56.38776779174805 17.0980224609375 56.59172821044922 17.45947265625 L 58.71711730957031 21.21463394165039 C 58.86883544921875 21.48267364501953 59.1547966003418 21.6491813659668 59.46339797973633 21.6491813659668 C 59.60978698730469 21.6491813659668 59.75511932373047 21.61072158813477 59.88370513916016 21.53794479370117 C 60.08267593383789 21.42535400390625 60.22588729858398 21.24200439453125 60.28693771362305 21.02167129516602 C 60.34798812866211 20.80133438110352 60.31959533691406 20.57039260864258 60.20697784423828 20.37141418457031 L 58.08216857910156 16.61724472045898 C 57.57631683349609 15.72045135498047 56.61344909667969 15.16335296630859 55.56929779052734 15.16335296630859 C 55.08164596557617 15.16335296630859 54.59778594970703 15.28833389282227 54.17023849487305 15.52466201782227 L 50.53468704223633 17.53655242919922 C 49.86583709716797 17.90621185302734 49.38260650634766 18.51763153076172 49.17398834228516 19.25830459594727 C 48.97808837890625 19.95322418212891 49.0474967956543 20.68790435791016 49.36940765380859 21.32699203491211 L 49.64019775390625 21.86460494995117 L 49.06203460693359 22.03216171264648 L 47.05926513671875 22.61259460449219 C 46.14152526855469 22.87810134887695 45.61160659790039 23.01292419433594 45.26218795776367 23.01292419433594 L 45.25794982910156 23.01292419433594 L 45.25710678100586 23.01292419433594 C 44.96382904052734 23.01192474365234 44.69239807128906 22.91350173950195 44.05241775512695 22.67109298706055 L 44.04421997070313 22.66798400878906 C 43.76933670043945 22.56391143798828 43.42723846435547 22.43439483642578 43.00975799560547 22.28874206542969 L 39.46190643310547 21.04845428466797 C 38.30238723754883 20.64349365234375 37.48897552490234 20.47831344604492 36.65434646606445 20.47831344604492 C 36.28173828125 20.47831344604492 35.90084838867188 20.51023483276367 35.54176712036133 20.54300308227539 L 29.49137878417969 21.08449172973633 C 26.89099884033203 21.31489181518555 25.2033576965332 21.89772415161133 24.33203887939453 22.86631393432617 L 24.12233734130859 23.09942245483398 L 23.8211669921875 23.01216125488281 L 20.37338638305664 22.01319122314453 L 19.79898834228516 21.84676361083984 L 20.06453704833984 21.3109245300293 C 20.37968826293945 20.67497253417969 20.44652557373047 19.94599151611328 20.25272750854492 19.25828170776367 C 20.04408645629883 18.51802444458008 19.56121826171875 17.90677261352539 18.89282608032227 17.53699493408203 L 15.25993728637695 15.52449417114258 C 14.83162689208984 15.28773498535156 14.34714889526367 15.16258239746094 13.85886764526367 15.16258239746094 M 18.05404663085938 19.02961349487305 L 18.06373596191406 19.03497314453125 C 18.0653076171875 19.03584289550781 18.06685638427734 19.03670501708984 18.06842041015625 19.03757858276367 L 18.07964706420898 19.04380416870117 L 18.08125686645508 19.04486465454102 C 18.42554092407227 19.2431640625 18.55679321289063 19.55352401733398 18.60468673706055 19.72305297851563 C 18.65402603149414 19.89832305908203 18.70565795898438 20.24721145629883 18.49749755859375 20.61381149291992 L 8.027778625488281 39.13193130493164 C 7.823806762695313 39.49218368530273 7.431747436523438 39.71597290039063 7.004608154296875 39.71597290039063 C 6.803695678710938 39.71597290039063 6.605598449707031 39.66511154174805 6.431587219238281 39.56881332397461 L 2.798515319824219 37.55654144287109 C 2.442070007324219 37.35919189453125 2.306854248046875 37.04071426391602 2.257583618164063 36.86703491210938 C 2.208137512207031 36.69079208374023 2.156410217285156 36.34027481079102 2.364784240722656 35.97411346435547 L 12.83504867553711 17.45832443237305 C 13.03891754150391 17.09694290161133 13.42816543579102 16.87244415283203 13.85090637207031 16.87244415283203 C 14.05278778076172 16.87244415283203 14.25314712524414 16.92425155639648 14.43055725097656 17.02239227294922 L 18.05404663085938 19.02961349487305 M 45.26848602294922 24.72466278076172 C 45.81817626953125 24.72466278076172 46.46316528320313 24.56709289550781 47.53522491455078 24.25679397583008 L 50.15122985839844 23.49879455566406 L 50.5310173034668 23.38875198364258 L 50.72562789916992 23.73296356201172 L 58.18431854248047 36.92538452148438 L 58.4498291015625 37.39499282836914 L 57.96142578125 37.62412261962891 C 56.71826934814453 38.20734405517578 55.65548706054688 39.03389358520508 54.88798522949219 40.01442337036133 L 54.57665634155273 40.41215133666992 L 54.18209838867188 40.09682464599609 L 51.22867584228516 37.73644256591797 C 49.46271514892578 36.32770156860352 46.82846832275391 34.24930191040039 44.35174560546875 32.47233200073242 C 43.982177734375 32.2076416015625 43.63071441650391 31.95175170898438 43.29083633422852 31.70428466796875 L 43.26606750488281 31.68625259399414 C 40.43422698974609 29.62409210205078 38.38817596435547 28.1341438293457 35.05660629272461 28.1341438293457 C 34.20251846313477 28.1341438293457 33.30308532714844 28.23153305053711 32.3071174621582 28.43183135986328 C 31.82585525512695 28.52881240844727 31.08126831054688 28.64443206787109 30.26705551147461 28.64443206787109 C 27.64742660522461 28.64443206787109 25.91272735595703 27.44392395019531 25.38246536254883 25.26385498046875 C 25.22639846801758 24.62106323242188 25.38363647460938 24.30182266235352 25.51588821411133 24.11706161499023 C 25.85197830200195 23.64849472045898 26.84084701538086 23.0378532409668 29.64269638061523 22.78974151611328 L 35.69842529296875 22.2477912902832 C 36.03757858276367 22.21685409545898 36.33048629760742 22.19013214111328 36.63163757324219 22.19012451171875 C 37.28421783447266 22.19011306762695 37.91927719116211 22.32312393188477 38.89679718017578 22.6645622253418 L 42.44504547119141 23.90499496459961 C 42.85262680053711 24.04734420776367 43.18143463134766 24.17195129394531 43.4455680847168 24.27204132080078 C 44.23804473876953 24.57224273681641 44.73756790161133 24.72466278076172 45.26848602294922 24.72466278076172 M 30.24624633789063 30.36250305175781 C 31.00576782226563 30.36250305175781 31.81270599365234 30.27750396728516 32.64479827880859 30.10982131958008 C 33.53927612304688 29.92984390258789 34.32953643798828 29.84233474731445 35.06070709228516 29.84229278564453 C 37.82574462890625 29.84211349487305 39.58861541748047 31.1258544921875 42.25812530517578 33.06982421875 L 42.27258682250977 33.08035278320313 C 42.6196174621582 33.33299255371094 42.97844696044922 33.59423446655273 43.35421752929688 33.86336135864258 C 45.79716491699219 35.61599349975586 48.40838623046875 37.67632293701172 50.16035461425781 39.07388305664063 L 54.56160736083984 42.59137344360352 C 55.04863739013672 42.97994232177734 55.35507583618164 43.53855133056641 55.42446899414063 44.16428375244141 C 55.49387741088867 44.7897834777832 55.31697845458984 45.40224456787109 54.92689514160156 45.88815307617188 C 54.53774642944336 46.37466430664063 53.97850799560547 46.68087387084961 53.3529052734375 46.75030517578125 C 53.26389694213867 46.76031494140625 53.17365646362305 46.765380859375 53.08468627929688 46.765380859375 C 52.56655883789063 46.765380859375 52.07852935791016 46.60057830810547 51.66967010498047 46.28820037841797 L 51.6414680480957 46.27410125732422 L 51.60395050048828 46.23657989501953 L 47.99662780761719 43.35441207885742 C 47.84321594238281 43.23186492919922 47.65872955322266 43.16708374023438 47.46308898925781 43.16708374023438 C 47.200927734375 43.16708374023438 46.95692443847656 43.2843132019043 46.79360961914063 43.48877334594727 C 46.65091705322266 43.66736221313477 46.58631896972656 43.89086151123047 46.6116943359375 44.11810302734375 C 46.6370849609375 44.34534454345703 46.74941635131836 44.5490837097168 46.92799758911133 44.69176483154297 L 50.55559539794922 47.59016418457031 C 51.56640625 48.39960479736328 51.73305511474609 49.87797546386719 50.92659759521484 50.88632202148438 C 50.47772979736328 51.44568252563477 49.80806732177734 51.76649475097656 49.08932495117188 51.76649475097656 C 48.55799865722656 51.76649475097656 48.0370979309082 51.58365249633789 47.62326812744141 51.25221252441406 L 43.68748474121094 48.11146545410156 C 43.53425598144531 47.98919296264648 43.34996795654297 47.924560546875 43.15454864501953 47.924560546875 C 42.89212799072266 47.924560546875 42.64790725708008 48.04196166992188 42.48456573486328 48.24660491943359 C 42.1901969909668 48.61551284790039 42.25082778930664 49.15514373779297 42.61972808837891 49.44953155517578 L 46.55430603027344 52.5893440246582 C 47.04176712036133 52.97972106933594 47.34851837158203 53.53890228271484 47.41805648803711 54.16388320922852 C 47.487548828125 54.78861236572266 47.31020736694336 55.40122222900391 46.91973876953125 55.88758087158203 C 46.53141784667969 56.37449264526367 45.97255706787109 56.68104553222656 45.34550476074219 56.75083160400391 C 45.25749969482422 56.76052093505859 45.16822814941406 56.76543426513672 45.08019638061523 56.76543426513672 C 44.54199981689453 56.76543426513672 44.03684997558594 56.58932495117188 43.61897659301758 56.25581359863281 L 41.66001892089844 54.68915557861328 C 41.65486145019531 54.68500900268555 41.64988327026367 54.68085861206055 41.64485168457031 54.67655181884766 L 39.99629974365234 53.35860443115234 L 39.68703460693359 53.11129379272461 C 39.53351593017578 52.98855590820313 39.348876953125 52.92367553710938 39.15306854248047 52.92367553710938 C 38.89107513427734 52.92367553710938 38.64718627929688 53.0407829284668 38.48416900634766 53.24465179443359 C 38.44734954833984 53.290771484375 38.41554641723633 53.33990478515625 38.38936614990234 53.3912353515625 C 38.26834869384766 53.62777328491211 38.26660919189453 53.91340255737305 38.38478851318359 54.15541076660156 C 38.44124603271484 54.27112579345703 38.51963806152344 54.36960220336914 38.61777496337891 54.44809341430664 L 40.58865737915039 56.02428436279297 C 41.59214782714844 56.83461380004883 41.75504684448242 58.31090545654297 40.95174789428711 59.31520080566406 C 40.50360870361328 59.87536239624023 39.83367919921875 60.19662475585938 39.11373901367188 60.19662475585938 C 38.58362579345703 60.19662475585938 38.06371688842773 60.0147705078125 37.64950561523438 59.68435287475586 L 35.41548538208008 57.89958190917969 L 35.20794677734375 57.73378372192383 L 35.22917556762695 57.468994140625 C 35.31193542480469 56.43654251098633 35.00285720825195 55.42450332641602 34.35894775390625 54.619384765625 C 33.96642684936523 54.12880325317383 33.47876739501953 53.74549102783203 32.90952682495117 53.4801139831543 L 32.3618278503418 53.22478485107422 L 32.71518707275391 52.73456573486328 C 33.11827850341797 52.17538452148438 33.37260818481445 51.51287078857422 33.45069885253906 50.81864166259766 C 33.57240676879883 49.7373046875 33.26663589477539 48.67565155029297 32.59022903442383 47.82989501953125 C 32.1973876953125 47.34036254882813 31.71019744873047 46.95793151855469 31.14218902587891 46.69322204589844 L 30.59469604492188 46.43808364868164 L 30.94760894775391 45.94788360595703 C 31.35147857666016 45.38690185546875 31.6058464050293 44.72296142578125 31.68320846557617 44.02781295776367 C 31.80333709716797 42.94898223876953 31.49782562255859 41.89005279541016 30.82297897338867 41.04613494873047 C 30.04963684082031 40.07925415039063 28.89225769042969 39.52472305297852 27.64761734008789 39.52472305297852 C 27.09774780273438 39.52472305297852 26.56396865844727 39.6329345703125 26.06111526489258 39.84635162353516 L 25.5056266784668 40.08211135864258 L 25.37722778320313 39.49248123168945 C 25.24435806274414 38.8823127746582 24.97765731811523 38.32368469238281 24.58462905883789 37.83224487304688 C 23.81060791015625 36.86501312255859 22.652587890625 36.31028366088867 21.40749740600586 36.31028366088867 C 20.4779052734375 36.31028366088867 19.60283660888672 36.6164436340332 18.87724685668945 37.19537353515625 L 15.24640655517578 40.09761428833008 L 14.85205841064453 40.41283416748047 L 14.54065704345703 40.01545333862305 C 13.77181625366211 39.03432464599609 12.70821762084961 38.20710372924805 11.46483612060547 37.62323379516602 L 10.97670745849609 37.39401245117188 L 11.24211883544922 36.9245719909668 L 18.71085739135742 23.71425247192383 L 18.90545654296875 23.37004470825195 L 19.28525543212891 23.48008346557617 L 23.26186752319336 24.63228225708008 L 23.5916862487793 24.72785186767578 L 23.62090682983398 25.06998443603516 C 23.63820648193359 25.27255249023438 23.67022705078125 25.46813201904297 23.71880722045898 25.66789245605469 C 24.44443893432617 28.65138244628906 26.8235969543457 30.36250305175781 30.24624633789063 30.36250305175781 M 22.88957595825195 42.18576812744141 C 22.88269805908203 42.19205856323242 22.87570953369141 42.19827651977539 22.86849594116211 42.20440292358398 L 22.86282730102539 42.20921325683594 L 22.85701751708984 42.21385192871094 L 17.80339813232422 46.2515869140625 L 17.78569793701172 46.26619338989258 L 17.78125381469727 46.26911926269531 C 17.3674201965332 46.59374237060547 16.86981964111328 46.76519393920898 16.340576171875 46.76519393920898 C 16.25216674804688 46.76519393920898 16.1624755859375 46.76020050048828 16.07411575317383 46.75037384033203 C 15.44773864746094 46.68087387084961 14.88849639892578 46.37471389770508 14.49936676025391 45.88823318481445 C 14.10956573486328 45.40075302124023 13.93367767333984 44.78733444213867 14.00409698486328 44.1610221862793 C 14.07421875 43.53678131103516 14.38167572021484 42.97909164428711 14.86895751953125 42.59137344360352 L 19.94579696655273 38.533203125 C 20.35981750488281 38.20267486572266 20.87987899780273 38.0206413269043 21.41017532348633 38.0206413269043 C 22.12987899780273 38.0206413269043 22.79970550537109 38.34170150756836 23.24806594848633 38.90169143676758 C 23.63785552978516 39.38900375366211 23.81381607055664 40.00154495239258 23.74352645874023 40.6263542175293 C 23.67406845092773 41.24483489990234 23.37150573730469 41.79764938354492 22.88957595825195 42.18576812744141 M 20.33920669555664 51.76657104492188 C 19.61996841430664 51.76657104492188 18.95065689086914 51.44557189941406 18.50334548950195 50.88642120361328 C 18.11361694335938 50.40068054199219 17.93723678588867 49.78922271728516 18.00668716430664 49.16475296020508 C 18.07506942749023 48.54917144775391 18.37379837036133 47.99729156494141 18.84878921508789 47.60778045654297 L 18.84952545166016 47.60704040527344 L 18.85757446289063 47.60061264038086 C 18.86141586303711 47.59749603271484 18.865234375 47.59440994262695 18.86909866333008 47.59131240844727 L 18.88776779174805 47.57640075683594 L 18.88836288452148 47.57601165771484 L 26.18375778198242 41.74739456176758 C 26.59799575805664 41.41657257080078 27.1182861328125 41.23438262939453 27.64880752563477 41.23438262939453 C 28.36861801147461 41.23438262939453 29.0383186340332 41.55569458007813 29.48608779907227 42.11581420898438 C 29.87522888183594 42.6022834777832 30.05130767822266 43.21414184570313 29.98187637329102 43.83876419067383 C 29.91232681274414 44.46372222900391 29.60516738891602 45.0226936340332 29.11698532104492 45.41269302368164 L 21.80630874633789 51.25288391113281 C 21.39121627807617 51.58414459228516 20.87018585205078 51.76657104492188 20.33920669555664 51.76657104492188 M 24.34630584716797 56.76547241210938 C 24.25813674926758 56.76547241210938 24.16870880126953 56.76053237915039 24.08023834228516 56.75076293945313 C 23.45375823974609 56.68124389648438 22.89440536499023 56.37421417236328 22.50567626953125 55.88679504394531 C 22.11653900146484 55.40032196044922 21.94045639038086 54.7884521484375 22.0098876953125 54.16379547119141 C 22.07835388183594 53.54909515380859 22.37673187255859 52.99813079833984 22.85109710693359 52.60912704467773 L 22.8530387878418 52.60719299316406 L 22.86847305297852 52.59494018554688 L 22.8747673034668 52.58991241455078 L 27.93510818481445 48.54739379882813 L 27.93832778930664 48.54482269287109 L 27.94159698486328 48.54230499267578 C 27.94878387451172 48.53674697875977 27.95611190795898 48.53137588500977 27.96388626098633 48.52588653564453 C 28.37584686279297 48.20007705688477 28.89164733886719 48.02083587646484 29.41793823242188 48.02083587646484 C 30.13652801513672 48.02083587646484 30.80564880371094 48.34113311767578 31.25417709350586 48.90017318725586 C 31.64410781860352 49.38762283325195 31.820068359375 50.00101470947266 31.74962615966797 50.62744140625 C 31.67934799194336 51.25158309936523 31.37192535400391 51.8092041015625 30.88478851318359 52.19696044921875 L 25.80812835693359 56.25494384765625 C 25.38986587524414 56.58893585205078 24.88437652587891 56.76547241210938 24.34630584716797 56.76547241210938 M 28.34506607055664 61.76879119873047 C 27.6258659362793 61.76879119873047 26.95671844482422 61.44777297973633 26.50984573364258 60.88885498046875 C 26.11998748779297 60.40328216552734 25.94350814819336 59.79143524169922 26.0129280090332 59.166015625 C 26.08230590820313 58.54087066650391 26.38850784301758 57.98251342773438 26.87514877319336 57.59381103515625 L 26.89305877685547 57.57950592041016 L 26.89405822753906 57.57884216308594 L 29.71456146240234 55.32421875 C 29.71993255615234 55.31991195678711 29.72534942626953 55.31574630737305 29.73081207275391 55.31170654296875 C 30.14322662353516 54.98662567138672 30.658935546875 54.80776214599609 31.18465805053711 54.80776214599609 C 31.90437698364258 54.80776214599609 32.57413864135742 55.12888336181641 33.02241897583008 55.68903350830078 C 33.41094589233398 56.1751823425293 33.58642578125 56.78647232055664 33.51654815673828 57.41010284423828 C 33.44682693481445 58.03458404541016 33.13979721069336 58.59302520751953 32.65241622924805 58.98222351074219 L 29.81256866455078 61.25489044189453 C 29.3973274230957 61.58628082275391 28.87615585327148 61.76879119873047 28.34506607055664 61.76879119873047 M 13.85886764526367 14.66257858276367 C 14.41616058349609 14.66257858276367 14.98136901855469 14.79919815063477 15.50183868408203 15.0869026184082 L 19.13511657714844 17.09962463378906 C 19.92091751098633 17.53435134887695 20.48880767822266 18.25277328491211 20.73397827148438 19.12264251708984 C 20.96313858032227 19.93584442138672 20.88354873657227 20.78429412841797 20.51253890991211 21.53294372558594 L 23.9603157043457 22.53191375732422 C 24.93094635009766 21.45293426513672 26.68927764892578 20.83080291748047 29.44724655151367 20.58644485473633 L 35.49719619750977 20.04499435424805 C 35.90752410888672 20.00754547119141 36.27704620361328 19.97831344604492 36.65434265136719 19.97831344604492 C 37.45606994628906 19.97831344604492 38.29243850708008 20.11040115356445 39.62677001953125 20.57641220092773 L 43.17475891113281 21.81675338745117 C 43.6023063659668 21.96591186523438 43.95011901855469 22.09772491455078 44.22945785522461 22.20348358154297 C 44.84521484375 22.43672180175781 45.06095886230469 22.51225280761719 45.25879669189453 22.51292419433594 C 45.2598762512207 22.51292419433594 45.26096725463867 22.51292419433594 45.26218795776367 22.51292419433594 C 45.54951477050781 22.51292419433594 46.06724548339844 22.37909317016602 46.92030715942383 22.13229370117188 L 48.92285919189453 21.55192184448242 C 48.54411697387695 20.80001449584961 48.46140670776367 19.94329452514648 48.6927375793457 19.12264251708984 C 48.93790435791016 18.25222396850586 49.50620651245117 17.53368377685547 50.29282760620117 17.09894180297852 L 53.92813873291016 15.08718490600586 C 54.44817352294922 14.79973220825195 55.01237869262695 14.66335678100586 55.56929779052734 14.66335678100586 C 56.75238418579102 14.66335678100586 57.90159606933594 15.27939987182617 58.51766586303711 16.3715934753418 L 60.64211654663086 20.1251335144043 C 61.01094818115234 20.77683258056641 60.78177642822266 21.60426330566406 60.12994766235352 21.97310256958008 C 59.91902160644531 22.09248352050781 59.68971252441406 22.14918899536133 59.46339797973633 22.14918899536133 C 58.99076843261719 22.14918899536133 58.53148651123047 21.90171432495117 58.28198623657227 21.46093368530273 L 56.15658569335938 17.70575332641602 C 56.03630065917969 17.49258804321289 55.81075668334961 17.37317276000977 55.57647323608398 17.37318801879883 C 55.46290588378906 17.37319564819336 55.34725189208984 17.40126800537109 55.24060821533203 17.46032333374023 L 51.60516738891602 19.47208404541016 C 51.40583801269531 19.58233261108398 51.33016967773438 19.7614631652832 51.30290985107422 19.85841369628906 C 51.27470779418945 19.95862197875977 51.24487686157227 20.15768432617188 51.36271667480469 20.36528396606445 L 60.89947509765625 37.233154296875 C 60.90340805053711 37.2403450012207 60.90774536132813 37.24712371826172 60.91154479980469 37.25444412231445 L 61.83403778076172 38.88627243041992 C 61.95307922363281 39.09627532958984 62.18442916870117 39.2156867980957 62.42156219482422 39.2156867980957 C 62.53476333618164 39.2156867980957 62.6493034362793 39.1884651184082 62.75353622436523 39.13089370727539 L 66.38465881347656 37.11952209472656 C 66.583984375 37.00941467285156 66.66019439697266 36.82893371582031 66.68785095214844 36.73116302490234 C 66.71660614013672 36.62959289550781 66.74724578857422 36.42795181274414 66.62926483154297 36.21886444091797 L 64.27429962158203 32.05837249755859 C 63.90531921386719 31.40681457519531 64.13449859619141 30.57951354980469 64.78633117675781 30.21054458618164 C 64.99729156494141 30.09098815917969 65.22660827636719 30.03419876098633 65.45296478271484 30.03422164916992 C 65.92543792724609 30.03426361083984 66.38460540771484 30.28179168701172 66.6341552734375 30.72257232666016 L 68.99021911621094 34.88483428955078 L 68.99021911621094 34.88484191894531 C 69.43674468994141 35.67606353759766 69.54536437988281 36.59380340576172 69.29694366455078 37.47046279907227 C 69.05055999755859 38.3403434753418 68.482666015625 39.0584831237793 67.69781494140625 39.49240493774414 L 64.06656646728516 41.50390243530273 C 63.54653930664063 41.79137420654297 62.98162841796875 41.92778396606445 62.4244384765625 41.92792129516602 C 61.24106597900391 41.92792129516602 60.09143829345703 41.31270217895508 59.47364807128906 40.22166442871094 L 59.08894729614258 39.54122161865234 C 58.04061889648438 40.00212478637695 57.16273498535156 40.67294311523438 56.56501770019531 41.46593475341797 C 57.15161895751953 42.15207290649414 57.52072906494141 42.99929428100586 57.62297821044922 43.92056274414063 C 57.75762939453125 45.13419342041016 57.41306686401367 46.32409286499023 56.65288543701172 47.27139282226563 C 55.90152740478516 48.21096038818359 54.82512664794922 48.80503082275391 53.62154769897461 48.94524383544922 C 53.74385833740234 50.09756469726563 53.43142700195313 51.29573059082031 52.6530876159668 52.2689323425293 C 51.87161636352539 53.24268341064453 50.76986694335938 53.81085205078125 49.61875915527344 53.94523239135742 C 49.74608612060547 55.14936065673828 49.40165710449219 56.3292236328125 48.64649963378906 57.27001190185547 C 47.89161682128906 58.21678161621094 46.80517578125 58.81423187255859 45.59019470214844 58.94915390014648 C 45.41744995117188 58.9682731628418 45.2452278137207 58.97776031494141 45.0740966796875 58.97776031494141 C 45.07369232177734 58.97776412963867 45.07332992553711 58.97776412963867 45.07292175292969 58.97776412963867 C 44.56295776367188 58.97776412963867 44.06269836425781 58.89301300048828 43.58887481689453 58.72907257080078 C 43.45327758789063 59.42754364013672 43.15305709838867 60.10419464111328 42.67886734008789 60.69704437255859 C 41.77915954589844 61.82144165039063 40.45054626464844 62.40696334838867 39.11080932617188 62.4070930480957 C 39.11056518554688 62.4070930480957 39.11040496826172 62.4070930480957 39.11016082763672 62.4070930480957 C 38.11211395263672 62.4070930480957 37.1079216003418 62.08190155029297 36.26944732666016 61.41273498535156 L 34.64765548706055 60.11721038818359 C 34.46337890625 60.33145141601563 34.25848770141602 60.5303840637207 34.03297805786133 60.71032333374023 L 31.19377899169922 62.98217391967773 C 30.35332870483398 63.65340423583984 29.34663772583008 63.97938537597656 28.34698867797852 63.97938537597656 C 27.00793838500977 63.97951507568359 25.68148803710938 63.39467239379883 24.78299713134766 62.2713623046875 C 24.02919769287109 61.33192443847656 23.68477630615234 60.1512451171875 23.8123779296875 58.94602203369141 C 22.60688781738281 58.80609130859375 21.52967834472656 58.21067047119141 20.77695846557617 57.26689147949219 C 20.02546691894531 56.32704162597656 19.68225860595703 55.14813232421875 19.80917739868164 53.94563293457031 C 18.65725708007813 53.8115234375 17.55604553222656 53.24321365356445 16.77688598632813 52.26906585693359 C 16.02308654785156 51.32976531982422 15.67865753173828 50.14977264404297 15.80612564086914 48.94550323486328 C 14.60185623168945 48.8055534362793 13.52491760253906 48.21135330200195 12.77179718017578 47.26961517333984 C 12.01216888427734 46.31973266601563 11.66909790039063 45.12808227539063 11.80577850341797 43.91350173950195 C 11.90923690795898 42.99508285522461 12.278076171875 42.15070343017578 12.86359786987305 41.46646499633789 C 12.26410675048828 40.67320251464844 11.38446807861328 40.00320434570313 10.33681869506836 39.54202270507813 L 9.952938079833984 40.22110366821289 C 9.334728240966797 41.31255340576172 8.184566497802734 41.92804336547852 7.001457214355469 41.92804336547852 C 6.444545745849609 41.92804336547852 5.880176544189453 41.79163360595703 5.360694885253906 41.50443267822266 L 1.7274169921875 39.49199295043945 C 0.9422836303710938 39.05779266357422 0.3741302490234375 38.33857345581055 0.1286849975585938 37.46720123291016 C -0.1183700561523438 36.5897331237793 -0.00745391845703125 35.67198181152344 0.440704345703125 34.8829345703125 L 10.90959548950195 16.370361328125 C 11.52576446533203 15.2784538269043 12.67498779296875 14.66257858276367 13.85886764526367 14.66257858276367 Z M 7.004608154296875 39.21596908569336 C 7.241546630859375 39.21596908569336 7.473304748535156 39.09641647338867 7.592678070068359 38.88558197021484 L 18.06224822998047 20.36773300170898 C 18.18143844604492 20.15781402587891 18.15160751342773 19.9587516784668 18.12339782714844 19.85854339599609 C 18.09600830078125 19.76159286499023 18.02047729492188 19.58246231079102 17.82168579101563 19.47248458862305 C 17.8212776184082 19.47235488891602 17.82087707519531 19.47208404541016 17.82046890258789 19.4718132019043 L 14.18827819824219 17.45977401733398 C 14.08115768432617 17.4005126953125 13.9650764465332 17.37244415283203 13.85090637207031 17.37244415283203 C 13.61631774902344 17.37244415283203 13.39040756225586 17.49150466918945 13.27053833007813 17.70399475097656 L 2.800018310546875 36.22022247314453 C 2.680419921875 36.43039321899414 2.710655212402344 36.63095474243164 2.738998413085938 36.73197174072266 C 2.766654968261719 36.82947158813477 2.842315673828125 37.00927352905273 3.04071044921875 37.11911392211914 L 6.673847198486328 39.13142395019531 C 6.777549743652344 39.18880844116211 6.891658782958984 39.21596908569336 7.004608154296875 39.21596908569336 Z M 45.26848983764648 25.22466278076172 C 44.66196823120117 25.22466278076172 44.12179565429688 25.0628776550293 43.26844787597656 24.7396240234375 C 42.99005889892578 24.63412475585938 42.67465972900391 24.51480484008789 42.28018951416016 24.37703323364258 L 38.73179626464844 23.13655471801758 C 37.73329925537109 22.78778076171875 37.17927932739258 22.69011306762695 36.63164901733398 22.69012832641602 C 36.35317230224609 22.69013214111328 36.07625961303711 22.71540069580078 35.74357604980469 22.74575424194336 L 29.6872673034668 23.28775405883789 C 26.8330078125 23.54050445556641 26.10347747802734 24.15572357177734 25.92217636108398 24.40848159790039 C 25.87024688720703 24.48103332519531 25.74820709228516 24.65107345581055 25.86834716796875 25.14588165283203 C 26.46314239501953 27.59128952026367 28.52417373657227 28.14443206787109 30.26706314086914 28.14443206787109 C 31.02224731445313 28.14443206787109 31.71789932250977 28.04051971435547 32.20833587646484 27.94168472290039 C 33.25617980957031 27.73095321655273 34.19575500488281 27.63414001464844 35.05660629272461 27.63414001464844 C 38.55023956298828 27.63414001464844 40.74200439453125 29.22969055175781 43.56039810180664 31.28206253051758 C 43.90644836425781 31.53401184082031 44.26592636108398 31.79585266113281 44.64288711547852 32.06583404541016 C 47.13048553466797 33.85061264038086 49.77075958251953 35.93383407592773 51.54047775268555 37.34557342529297 L 54.49425506591797 39.70623397827148 C 55.31396484375 38.65900421142578 56.42900848388672 37.79075241088867 57.74906921386719 37.17146301269531 L 50.29037475585938 23.97904205322266 L 47.67437744140625 24.73704147338867 C 46.55084228515625 25.06222915649414 45.87634658813477 25.22466278076172 45.26848983764648 25.22466278076172 Z M 30.24624633789063 30.86249923706055 C 26.62466430664063 30.86249923706055 24.02373123168945 29.0373649597168 23.23296737670898 25.78605270385742 C 23.17532730102539 25.54902267456055 23.14088821411133 25.32528305053711 23.12271881103516 25.11253356933594 L 19.1461067199707 23.96033477783203 L 11.6773681640625 37.170654296875 C 12.99702835083008 37.79034423828125 14.11315536499023 38.65928268432617 14.9342155456543 39.70705413818359 L 18.56505584716797 36.80481338500977 C 19.40410614013672 36.13535690307617 20.40905380249023 35.81028366088867 21.40750122070313 35.81028366088867 C 22.7473258972168 35.81028366088867 24.07542037963867 36.39568710327148 24.97501754760742 37.51983261108398 C 25.41843795776367 38.07429122924805 25.71878814697266 38.71108245849609 25.86577606201172 39.38609313964844 C 26.43674850463867 39.14375686645508 27.04332733154297 39.02472686767578 27.64762115478516 39.02472686767578 C 28.98693084716797 39.02472686767578 30.31436157226563 39.60973739624023 31.21344757080078 40.73382186889648 C 31.97172546386719 41.68208312988281 32.31506729125977 42.87143325805664 32.18013763427734 44.08315277099609 C 32.09200668334961 44.87506484985352 31.80548858642578 45.61205291748047 31.35338592529297 46.24002075195313 C 31.96792602539063 46.52641296386719 32.52795791625977 46.95341491699219 32.98018646240234 47.51696395874023 C 33.74117660522461 48.46847534179688 34.08424758911133 49.66013336181641 33.94755554199219 50.87456512451172 C 33.85860824584961 51.66538238525391 33.57208633422852 52.40088272094727 33.12079620361328 53.02694320678711 C 33.73656845092773 53.31401062011719 34.29726791381836 53.74197387695313 34.74935531616211 54.30701446533203 C 35.47672653198242 55.21648406982422 35.82060623168945 56.34834289550781 35.72757720947266 57.50894165039063 L 37.96159744262695 59.2937126159668 C 38.30155563354492 59.56490325927734 38.70888519287109 59.69662475585938 39.11373519897461 59.69662475585938 C 39.65727615356445 59.69662475585938 40.1962890625 59.45912170410156 40.56131744384766 59.00285339355469 C 41.19417572021484 58.21163177490234 41.06494903564453 57.05156326293945 40.27452850341797 56.41329193115234 L 38.30548858642578 54.83857345581055 C 38.14357757568359 54.70907592773438 38.02071762084961 54.54947280883789 37.9354248046875 54.37468338012695 C 37.75114440917969 53.9973030090332 37.74789810180664 53.5472526550293 37.94424438476563 53.16349029541016 C 37.98518753051758 53.08322143554688 38.03495788574219 53.00593566894531 38.09340667724609 52.93271255493164 C 38.36110687255859 52.59792327880859 38.75521087646484 52.42367172241211 39.15306091308594 52.42367172241211 C 39.45006561279297 52.42367172241211 39.74916839599609 52.52080535888672 39.999267578125 52.72076416015625 L 40.30856704711914 52.96810150146484 L 41.96316528320313 54.29088592529297 C 41.96655654907227 54.29360198974609 41.96953582763672 54.29644393920898 41.97292709350586 54.29916381835938 L 43.93126678466797 55.86533355712891 C 44.25885772705078 56.12678527832031 44.66086578369141 56.26543426513672 45.08019256591797 56.26543426513672 C 45.14999389648438 56.26543426513672 45.22030639648438 56.26158905029297 45.29079437255859 56.25383377075195 C 45.78424835205078 56.19891357421875 46.22385787963867 55.95822143554688 46.52882766723633 55.57582092285156 C 46.83745574951172 55.19140243530273 46.97577667236328 54.71056365966797 46.92111968994141 54.21915435791016 C 46.86633682250977 53.72679138183594 46.62510681152344 53.28662109375 46.24175643920898 52.97962188720703 L 42.30785751342773 49.8403434753418 C 41.72246551513672 49.37320327758789 41.62673950195313 48.52000427246094 42.09375 47.93474578857422 C 42.3615608215332 47.59921646118164 42.75619506835938 47.424560546875 43.1545524597168 47.424560546875 C 43.45104217529297 47.424560546875 43.74961853027344 47.5213623046875 43.99934768676758 47.72063446044922 L 47.93513488769531 50.86140441894531 C 48.2756233215332 51.13410186767578 48.68368148803711 51.26649856567383 49.08932495117188 51.26649856567383 C 49.63230895996094 51.26649856567383 50.1708984375 51.02915954589844 50.53662872314453 50.57339477539063 C 51.16987609863281 49.78162384033203 51.03875732421875 48.61763381958008 50.24305725097656 47.98044586181641 L 46.61588668823242 45.08239364624023 C 46.03090667724609 44.61498260498047 45.93557739257813 43.76164245605469 46.40298461914063 43.17666244506836 C 46.67067718505859 42.84154891967773 47.06501770019531 42.66708374023438 47.46308135986328 42.66708374023438 C 47.75987243652344 42.66708374023438 48.05873870849609 42.76407241821289 48.30870819091797 42.96377182006836 L 51.93710708618164 45.86277389526367 C 51.93724822998047 45.8629035949707 51.93751525878906 45.86304473876953 51.93764495849609 45.86317443847656 C 51.93792724609375 45.86331176757813 51.93818664550781 45.86345291137695 51.93832778930664 45.86358261108398 C 52.2656135559082 46.12588119506836 52.66666412353516 46.26538467407227 53.08468627929688 46.26538467407227 C 53.15506744384766 46.26538467407227 53.22597885131836 46.26142501831055 53.29704666137695 46.25343322753906 C 53.79062652587891 46.19865417480469 54.23078918457031 45.95795440673828 54.53643798828125 45.57583236694336 L 54.53643798828125 45.57584381103516 C 54.84384918212891 45.19290161132813 54.98215484619141 44.7118034362793 54.92751693725586 44.21943283081055 C 54.87286758422852 43.72665405273438 54.63217926025391 43.28731155395508 54.24977874755859 42.98222351074219 L 49.84819793701172 39.46447372436523 C 48.10260772705078 38.07199478149414 45.49908447265625 36.01751327514648 43.06275939941406 34.26962280273438 C 42.68049621582031 33.99584197998047 42.31532669067383 33.72993469238281 41.96384811401367 33.47405242919922 C 39.28660583496094 31.52444839477539 37.66336441040039 30.34211730957031 35.06073379516602 30.34228897094727 C 34.37007522583008 30.34233474731445 33.60992431640625 30.42565155029297 32.74342727661133 30.60000228881836 C 31.86797714233398 30.77640914916992 31.0333137512207 30.86249923706055 30.24624633789063 30.86249923706055 Z M 16.340576171875 46.26519775390625 C 16.75909805297852 46.26519775390625 17.1604118347168 46.12598419189453 17.48797607421875 45.86357498168945 C 17.48838806152344 45.86330413818359 17.48878860473633 45.8629035949707 17.48919677734375 45.86263275146484 L 22.54491806030273 41.82322311401367 C 22.55305862426758 41.81631469726563 22.56023788452148 41.80885314941406 22.56864547729492 41.80221176147461 C 22.95076751708984 41.49819183349609 23.19159698486328 41.06074142456055 23.24664688110352 40.57055282592773 C 23.30197906494141 40.07873153686523 23.16379547119141 39.5968017578125 22.85760879516602 39.21401214599609 C 22.49262237548828 38.75816345214844 21.95380783081055 38.52064514160156 21.41018295288086 38.52064514160156 C 21.00537109375 38.52064514160156 20.59783172607422 38.6524543762207 20.25774765014648 38.92395401000977 L 15.18114852905273 42.98193359375 C 14.79684829711914 43.28771209716797 14.55615615844727 43.72556304931641 14.50096893310547 44.21684265136719 C 14.44550704956055 44.71015167236328 14.58355712890625 45.19289398193359 14.88987731933594 45.57597351074219 C 15.19551849365234 45.95808410644531 15.63553619384766 46.19864273071289 16.12925720214844 46.25342559814453 C 16.20000457763672 46.26129913330078 16.27053070068359 46.26519775390625 16.340576171875 46.26519775390625 Z M 20.33920669555664 51.26657104492188 C 20.74488830566406 51.26657104492188 21.15336227416992 51.13425445556641 21.49442672729492 50.86207580566406 L 28.80490875244141 45.02204132080078 C 29.18851852416992 44.71558380126953 29.43016815185547 44.27569198608398 29.48494720458984 43.78346252441406 C 29.53959655761719 43.29177474975586 29.40141677856445 42.81040191650391 29.09563827514648 42.42814254760742 C 28.73087692260742 41.97186660766602 28.19223022460938 41.73438262939453 27.64880752563477 41.73438262939453 C 27.24374389648438 41.73438262939453 26.83599853515625 41.86637878417969 26.49577713012695 42.13809204101563 L 19.18338775634766 47.98029327392578 C 19.18324661254883 47.98043060302734 19.18324661254883 47.98056030273438 19.1831169128418 47.98056030273438 C 19.18284606933594 47.98070526123047 19.18257904052734 47.98097229003906 19.18230819702148 47.98111343383789 L 19.1818962097168 47.98138427734375 C 18.79922866821289 48.28824234008789 18.55826568603516 48.72813415527344 18.50362777709961 49.21996307373047 C 18.44897842407227 49.71137237548828 18.58728790283203 50.19207382202148 18.89333724975586 50.57352447509766 C 19.25813293457031 51.02951812744141 19.79617309570313 51.26657104492188 20.33920669555664 51.26657104492188 Z M 24.34630966186523 56.26547241210938 C 24.76530075073242 56.26547241210938 25.16740036010742 56.12673950195313 25.49612808227539 55.86423492431641 L 30.57259750366211 51.80640411376953 C 30.95675659179688 51.5006103515625 31.19744873046875 51.06276321411133 31.25276565551758 50.57149505615234 C 31.3082389831543 50.07817077636719 31.17004776000977 49.59543228149414 30.86372756958008 49.21250152587891 C 30.49881744384766 48.75768280029297 29.96058654785156 48.52083587646484 29.41793823242188 48.52083587646484 C 29.01284790039063 48.52083587646484 28.60527038574219 48.65286254882813 28.26562881469727 48.92475128173828 C 28.25965881347656 48.92950439453125 28.25315856933594 48.93343353271484 28.24718856811523 48.93804168701172 L 23.18684768676758 52.98056030273438 C 23.18657684326172 52.9808349609375 23.1861686706543 52.98110198974609 23.18589782714844 52.98137283325195 C 22.80282592773438 53.28783416748047 22.56159591674805 53.72731399536133 22.50681686401367 54.21914291381836 C 22.45216751098633 54.71082305908203 22.59034729003906 55.19220352172852 22.89612579345703 55.574462890625 C 23.20217895507813 55.95821380615234 23.64178848266602 56.19904327392578 24.1353759765625 56.25381469726563 C 24.20601272583008 56.26161193847656 24.27635955810547 56.26547241210938 24.34630966186523 56.26547241210938 Z M 28.34506607055664 61.268798828125 C 28.75080108642578 61.268798828125 29.15950393676758 61.13637161254883 29.50067901611328 60.86409378051758 L 32.34000778198242 58.59184265136719 C 32.72375869750977 58.28539276123047 32.96472549438477 57.84645080566406 33.01963806152344 57.35462188720703 C 33.0746955871582 56.86321258544922 32.93678665161133 56.38277435302734 32.63182830810547 56.00119400024414 C 32.26691436767578 55.54521179199219 31.72819137573242 55.30776214599609 31.18465805053711 55.30776214599609 C 30.77971267700195 55.30776214599609 30.3720588684082 55.43962097167969 30.03181838989258 55.71114349365234 C 30.03032684326172 55.71223449707031 30.02870559692383 55.71318054199219 30.02721786499023 55.71440124511719 L 27.18855667114258 57.98354339599609 C 27.18814849853516 57.98380279541016 27.18760681152344 57.98421478271484 27.18719863891602 57.98448181152344 C 26.80521774291992 58.28959274291992 26.56451797485352 58.72879028320313 26.5098762512207 59.22116088867188 C 26.45522689819336 59.71352386474609 26.59367752075195 60.19463348388672 26.89972686767578 60.57581329345703 C 27.26432800292969 61.03183746337891 27.80209732055664 61.268798828125 28.34506607055664 61.268798828125 Z" stroke="none" fill="#e6f9ed"/>
        </g>
        <g id="Path_23401" data-name="Path 23401" transform="translate(4.776 -2.175)" fill="#222">
          <path d="M 57.67719268798828 26.41201400756836 C 57.06734085083008 26.41201400756836 56.57119369506836 25.91665458679199 56.57119369506836 25.30777549743652 C 56.57119369506836 24.69412422180176 57.06734085083008 24.19797515869141 57.67719268798828 24.19797515869141 C 58.28704452514648 24.19797515869141 58.7831916809082 24.69412422180176 58.7831916809082 25.30397415161133 C 58.7831916809082 25.91495513916016 58.28704452514648 26.41201400756836 57.67719268798828 26.41201400756836 Z" stroke="none"/>
          <path d="M 57.67719268798828 26.16201400756836 C 58.14919281005859 26.16201400756836 58.5331916809082 25.7770938873291 58.5331916809082 25.30397415161133 C 58.5331916809082 24.83197402954102 58.14919281005859 24.44797515869141 57.67719268798828 24.44797515869141 C 57.20519256591797 24.44797515869141 56.82119369506836 24.83197402954102 56.82119369506836 25.30777549743652 C 56.82119369506836 25.77880477905273 57.20519256591797 26.16201400756836 57.67719268798828 26.16201400756836 M 57.67719268798828 26.66201400756836 C 56.92841339111328 26.66201400756836 56.32119369506836 26.05669403076172 56.32119369506836 25.30777549743652 L 56.32119369506836 25.30397415161133 C 56.32119369506836 24.55519485473633 56.92841339111328 23.94797515869141 57.67719268798828 23.94797515869141 C 58.42598342895508 23.94797515869141 59.0331916809082 24.5550537109375 59.0331916809082 25.30397415161133 C 59.0331916809082 26.05289459228516 58.42598342895508 26.66201400756836 57.67719268798828 26.66201400756836 Z" stroke="none" fill="#e6f9ed"/>
        </g>
      </g>
    </g>
  </g>
</svg>
