<svg xmlns="http://www.w3.org/2000/svg" width="120.696" height="124" viewBox="0 0 120.696 124">
  <g id="value-icon1" transform="translate(-277.696 -3401.784)">
    <path id="Path_23365" data-name="Path 23365" d="M43.985,36.765C7.068,64.83,26.1,124.515,54.023,135.855c29.543,11.973,69.124,4.051,82.247-25.7C165.185,42.763,110.886-14.108,43.985,36.765Z" transform="translate(254.168 3384.577)" fill="#ff309c" opacity="0.1"/>
    <g id="heart_2_" data-name="heart (2)" transform="translate(304 3431.041)">
      <path id="Path_23379" data-name="Path 23379" d="M10.3,55.075a1.285,1.285,0,0,1-.909-.374l-.033-.033a1.29,1.29,0,1,1,1.831-1.818l.02.021a1.29,1.29,0,0,1-.909,2.205Zm0,0" transform="translate(0.288 1.685)" fill="#222"/>
      <path id="Path_23380" data-name="Path 23380" d="M33.035,66.055a33.017,33.017,0,0,1-19.285-6.2,1.29,1.29,0,1,1,1.508-2.093,30.447,30.447,0,1,0-6.988-7,1.29,1.29,0,0,1-2.1,1.5,33.033,33.033,0,1,1,29.377,13.7q-1.259.1-2.516.1Zm0,0" transform="translate(0 0)" fill="#222"/>
      <path id="Path_23381" data-name="Path 23381" d="M32.76,49.616A10.5,10.5,0,0,1,22.275,39.131a1.29,1.29,0,0,1,1.29-1.29h18.39a1.29,1.29,0,0,1,1.29,1.29A10.5,10.5,0,0,1,32.76,49.616Zm-7.8-9.195a7.906,7.906,0,0,0,15.6,0Zm0,0" transform="translate(0.715 1.215)" fill="#222"/>
      <path id="Path_24232" data-name="Path 24232" d="M21.355,32.491a1.287,1.287,0,0,1-.726-.223c-.067-.045-6.777-6.676-6.777-8.336A5.072,5.072,0,0,1,18.741,18.7a4.673,4.673,0,0,1,2.614.81,4.673,4.673,0,0,1,2.614-.81,5.072,5.072,0,0,1,4.888,5.227c0,1.661-1.152,3.533-3.52,5.724a31.1,31.1,0,0,1-3.257,2.613,1.285,1.285,0,0,1-.725.223Z" transform="translate(0.445 0.601)" fill="#ff309c"/>
      <path id="Path_23383" data-name="Path 23383" d="M21.355,32.491a1.287,1.287,0,0,1-.726-.223,31.18,31.18,0,0,1-3.257-2.613c-2.369-2.191-3.52-4.063-3.52-5.724A5.072,5.072,0,0,1,18.741,18.7a4.673,4.673,0,0,1,2.614.81,4.673,4.673,0,0,1,2.614-.81,5.072,5.072,0,0,1,4.888,5.227c0,1.661-1.152,3.533-3.52,5.724a31.1,31.1,0,0,1-3.257,2.613,1.285,1.285,0,0,1-.725.223ZM18.741,21.285a2.5,2.5,0,0,0-2.308,2.647c0,1.447,2.718,4.049,4.922,5.686,2.2-1.639,4.923-4.242,4.923-5.686a2.5,2.5,0,0,0-2.308-2.647,2.157,2.157,0,0,0-1.638.785,1.289,1.289,0,0,1-1.951,0,2.158,2.158,0,0,0-1.638-.785Zm0,0" transform="translate(0.445 0.601)" fill="#222"/>
      <path id="Path_24233" data-name="Path 24233" d="M21.355,32.491a1.287,1.287,0,0,1-.726-.223c-.067-.045-6.777-6.676-6.777-8.336A5.072,5.072,0,0,1,18.741,18.7a4.673,4.673,0,0,1,2.614.81,4.673,4.673,0,0,1,2.614-.81,5.072,5.072,0,0,1,4.888,5.227c0,1.661-1.152,3.533-3.52,5.724a31.1,31.1,0,0,1-3.257,2.613,1.285,1.285,0,0,1-.725.223Z" transform="translate(22.898 0.601)" fill="#ff309c"/>
      <path id="Path_23382" data-name="Path 23382" d="M43.111,32.491a1.286,1.286,0,0,1-.725-.223,31.1,31.1,0,0,1-3.257-2.613c-2.369-2.191-3.52-4.063-3.52-5.724A5.072,5.072,0,0,1,40.5,18.7a4.673,4.673,0,0,1,2.614.81,4.673,4.673,0,0,1,2.614-.81,5.072,5.072,0,0,1,4.888,5.227c0,1.661-1.152,3.533-3.52,5.724a31.122,31.122,0,0,1-3.257,2.613,1.286,1.286,0,0,1-.726.223ZM40.5,21.285a2.5,2.5,0,0,0-2.308,2.647c0,1.447,2.718,4.049,4.922,5.686,2.2-1.639,4.923-4.242,4.923-5.686a2.5,2.5,0,0,0-2.308-2.647,2.156,2.156,0,0,0-1.638.785,1.29,1.29,0,0,1-1.952,0,2.157,2.157,0,0,0-1.638-.785Zm0,0" transform="translate(1.143 0.601)" fill="#222"/>
    </g>
  </g>
</svg>
