<svg xmlns="http://www.w3.org/2000/svg" xmlns:xlink="http://www.w3.org/1999/xlink" width="120.696" height="124" viewBox="0 0 120.696 124">
  <defs>
    <clipPath id="clip-path">
      <rect id="Rectangle_3107" data-name="Rectangle 3107" width="61.91" height="61.91" fill="#fff"/>
    </clipPath>
  </defs>
  <g id="value-icon6" transform="translate(-1008 -3651.638)">
    <path id="Path_23365" data-name="Path 23365" d="M43.985,36.765C7.068,64.83,26.1,124.515,54.023,135.855c29.543,11.973,69.124,4.051,82.247-25.7C165.185,42.763,110.886-14.108,43.985,36.765Z" transform="translate(984.473 3634.431)" fill="#ff8a00" opacity="0.1"/>
    <g id="Mask_Group_300" data-name="Mask Group 300" transform="translate(1039.842 3687.426)" clip-path="url(#clip-path)">
      <g id="dyslexia" transform="translate(2.734 0)">
        <path id="Path_24232" data-name="Path 24232" d="M47.527,32.844l3.832-2.828V23.174l2.28-4.47-1-4.014-3.467-1.733L47.527,10.13,45.521,8.214H42.146l-2.189.73L39.409,7.12,37.767,6.3,34.483,5.2,30.287,6.3,28.463,7.576,26.821,6.3H24.175l-.729.821L22.351,8.214,20.527,10.13l-1.916.456-.73.912-1.186.547-1.733,2.646.456,1.733v2.828l-.456,1.642-.639,2.919L16.7,26.276l1.916,1.46h3.74l1.095-.821.729-.638,2.007.638,2.28,2.189,1.824.912h1.55l1.369,1.733,1.277,1.095,2.645-.456,2.28-.638h.548l2.189,1.095,2.737.547Z" transform="translate(-3.202 -0.17)" fill="#ff8a00"/>
        <path id="Path_24233" data-name="Path 24233" d="M59.268,22.305A19.689,19.689,0,0,0,49.709,5.044C44.7,1.838,37.806,0,30.8,0A26.392,26.392,0,0,0,15.458,4.506,17.548,17.548,0,0,0,8.019,18.015a7.24,7.24,0,0,1-.826,2.873,6.03,6.03,0,0,0-.465,1.186,3.97,3.97,0,0,0,.91,2.986,7.559,7.559,0,0,1,.55.965.728.728,0,0,1-.038.64,12.068,12.068,0,0,1-3.455,3.8,3.789,3.789,0,0,0-1.867,3c0,1.609,1.017,2.736,3.011,3.349a1.479,1.479,0,0,1,.582.279,3.972,3.972,0,0,1-1.456,1.471.909.909,0,0,0-.252.244,1.934,1.934,0,0,0,.508,2.648c.3.241.549.461.744.646a2.436,2.436,0,0,0-.174,2.862.915.915,0,0,0,.557.375,3.61,3.61,0,0,1,1.056.436,4.62,4.62,0,0,0-.62,3.649c.564,2.29,2.309,3.691,5.186,4.162a25.075,25.075,0,0,0,6-.451c.439-.062.884-.124,1.33-.185,4.4-.6,6.483,2.949,8.075,6.87a3.356,3.356,0,0,0,3.1,2.083,3.319,3.319,0,0,0,.829-.105L36.5,60.466a.907.907,0,1,0-.453-1.756l-5.192,1.338a1.533,1.533,0,0,1-1.8-.9c-1.076-2.649-3.594-8.854-10-7.985-.449.061-.9.124-1.339.186a26.1,26.1,0,0,1-5.458.458C10.11,51.45,8.929,50.558,8.545,49a2.914,2.914,0,0,1,.48-2.4,1.793,1.793,0,0,0-.559-2.29,4.965,4.965,0,0,0-1.246-.6c-.014-.215.093-.5.549-.833a.907.907,0,0,0,.189-1.288,15.17,15.17,0,0,0-1.736-1.679c.751-.534,2.185-1.743,2-3.08-.078-.559-.462-1.315-1.849-1.742-1.519-.467-1.729-1.054-1.73-1.62s.341-.933,1.16-1.564a14.119,14.119,0,0,0,3.93-4.351,2.553,2.553,0,0,0,.123-2.245,8.938,8.938,0,0,0-.683-1.217c-.378-.6-.768-1.216-.677-1.606a4.837,4.837,0,0,1,.338-.822,9.022,9.022,0,0,0,1-3.53C10.564,6.86,20.893,1.814,30.8,1.814c6.665,0,13.2,1.734,17.928,4.758a17.951,17.951,0,0,1,8.722,15.734c0,8.235-1.082,11.608-8.249,18.094-2.06,1.865-1.822,6.112.727,12.985A1.531,1.531,0,0,1,48.882,55.4l-8.75,2.256a.907.907,0,1,0,.453,1.756l8.75-2.256a3.345,3.345,0,0,0,2.3-4.405c-2.137-5.759-2.578-9.772-1.211-11.009,7.567-6.848,8.845-10.86,8.845-19.439Z" transform="translate(-2.826 0)" fill="#222"/>
        <path id="Union_41" data-name="Union 41" d="M30.191,30.083a7.805,7.805,0,0,1-3.94-2.016,6.737,6.737,0,0,1-8.98-1.68c-.127-.025-.25-.057-.378-.089a10.947,10.947,0,0,1-4.98-2.8,1.622,1.622,0,0,0-2.04-.141A6.319,6.319,0,0,1,.1,17.025a6.372,6.372,0,0,1,1.1-2.589A7.03,7.03,0,0,1,1.044,10.4a.907.907,0,0,1,1.758.449,5.248,5.248,0,0,0,.262,3.385.9.9,0,0,1-.149.955A4.49,4.49,0,0,0,1.886,17.35,4.5,4.5,0,0,0,8.85,21.856a3.432,3.432,0,0,1,4.336.347,9.135,9.135,0,0,0,4.156,2.338c.2.053.414.1.626.138a.918.918,0,0,1,.594.393,4.935,4.935,0,0,0,7.233,1.1.906.906,0,0,1,1.262.117A6.031,6.031,0,0,0,34.1,27.876a.906.906,0,0,1,.746,1.652,7.832,7.832,0,0,1-4.658.555Zm6.936-3.364a.907.907,0,0,1-.307-1.245,6.09,6.09,0,0,0,.59-1.333,5.978,5.978,0,0,0-.481-4.676.905.905,0,0,1,.276-1.181,4.93,4.93,0,0,0-1.613-8.81l-.039-.014a.894.894,0,0,1-.682-.736,4.93,4.93,0,0,0-7.781-3.211.908.908,0,0,1-1.348-.336,5.991,5.991,0,0,0-9.715-1.51.91.91,0,0,1-1.161.127,4.265,4.265,0,0,0-1.34-.6A4.367,4.367,0,0,0,8.27,6.23a.9.9,0,0,1-.8.658A5.284,5.284,0,0,0,4.793,7.9.906.906,0,1,1,3.721,6.435a7.123,7.123,0,0,1,3-1.277,6.163,6.163,0,0,1,8.521-3.247,7.808,7.808,0,0,1,11.639,1.6,6.751,6.751,0,0,1,9.67,4.347,6.746,6.746,0,0,1,2.31,11.421,7.782,7.782,0,0,1,.29,5.39,7.95,7.95,0,0,1-.775,1.74.905.905,0,0,1-1.245.307Zm-7.08-1.061c-.552-.241-2.553-1.093-2.553-1.093a.89.89,0,0,1-.488-.5.9.9,0,0,1,.007-.693l1.744-4.036v0l1.482-3.441a.9.9,0,0,1,1.192-.474l2.172.934a2.78,2.78,0,0,1,1.453,3.657,2.751,2.751,0,0,1-1.093,1.263,3.1,3.1,0,0,1-3.915,4.386Zm-1.008-2.4c.623.262,1.408.6,1.722.732a1.285,1.285,0,1,0,1.018-2.359L30.6,21.12c-.18-.078-.368-.156-.541-.23Zm1.74-4.036.544.234.8.343a.964.964,0,0,0,1.28-1.245.941.941,0,0,0-.516-.531l-1.34-.58Zm-14.027,1.4c-.315-.534-1.083-1.882-1.114-1.942a.908.908,0,0,1,.339-1.234s2.423-1.379,3.353-1.9c.768-.431,3.343-1.889,3.343-1.889a.9.9,0,0,1,.69-.085.893.893,0,0,1,.544.428l1.072,1.9c1.177,2.09.3,4.432-2.172,5.829a5.548,5.548,0,0,1-2.7.753A3.77,3.77,0,0,1,16.751,20.622Zm3.474-3.5c-.588.333-1.768,1-2.565,1.45.233.41.5.877.658,1.135.746,1.28,2.348,1.142,3.6.439S24.192,18.2,23.4,16.788l-.623-1.107C21.95,16.144,20.712,16.844,20.224,17.12ZM5.153,19.426a1.08,1.08,0,0,1-.215-1.185c0-.007.007-.018.01-.025l3.409-7.254A.907.907,0,0,1,10,11.733l-.584,1.241,2.324,2.391L13,14.825a.907.907,0,1,1,.718,1.666l-7.37,3.172s-.014.007-.018.011a1.084,1.084,0,0,1-1.178-.248Zm2.264-2.2,2.539-1.093L8.592,14.729ZM27.69,14.658l-2.079-1.715a.908.908,0,0,1-.12-1.277l4.071-4.937a.9.9,0,0,1,1.276-.12l2.076,1.716a.907.907,0,0,1-1.152,1.4L30.382,8.586,29.5,9.654l1.227,1.012a.907.907,0,1,1-1.152,1.4l-1.227-1.012-.884,1.065,1.383,1.139a.911.911,0,0,1-.58,1.609A.919.919,0,0,1,27.69,14.658ZM12.8,9.576a4.793,4.793,0,0,1,.13-2.8.908.908,0,1,1,1.709.615A2.975,2.975,0,0,0,20.005,9.9c.792-1.255.367-3.226-.86-3.756a.909.909,0,1,1,.789-1.638c2.355,1.093,2.872,4.3,1.63,6.32a4.769,4.769,0,0,1-2.936,2.2A4.808,4.808,0,0,1,12.8,9.576Z" transform="translate(10.249 4.119)" fill="#ff8a00"/>
      </g>
    </g>
  </g>
</svg>
