<svg id="Layer_1" data-name="Layer 1" xmlns="http://www.w3.org/2000/svg" width="68.6" height="68.6" viewBox="0 0 68.6 68.6"><defs><style>.cls-1{fill:#fff1d3;}.cls-2{fill:none;stroke:#ffe9b9;}.cls-3{fill:#f9b301;}</style></defs><circle class="cls-1" cx="34.3" cy="34.3" r="34.3"/><circle class="cls-2" cx="34.3" cy="34.3" r="33.7"/><path class="cls-3" d="M50.4,39.6l2.7-12a1.4,1.4,0,0,0-1.4-1.7H29.2l-.5-2.5a1.6,1.6,0,0,0-1.4-1.2H21.5a1.4,1.4,0,0,0-1.4,1.4v.9a1.4,1.4,0,0,0,1.4,1.4h3.9l4.1,19.7a3.3,3.3,0,0,0-1.6,2.8,3.2,3.2,0,0,0,3.2,3.2,3.2,3.2,0,0,0,3.2-3.2,3.3,3.3,0,0,0-1-2.3h12a3.6,3.6,0,0,0-.9,2.3A3.3,3.3,0,1,0,49,45.5l.3-1.4A1.4,1.4,0,0,0,48,42.4H32.6l-.4-1.8H49A1.5,1.5,0,0,0,50.4,39.6Z" transform="translate(-1.7 -2.3)"/></svg>