<svg width="56" height="57" viewBox="0 0 56 57" fill="none" xmlns="http://www.w3.org/2000/svg">
<path d="M56 28.5859C56 44.0499 43.464 56.5859 28 56.5859C12.536 56.5859 0 44.0499 0 28.5859C0 13.122 12.536 0.585938 28 0.585938C43.464 0.585938 56 13.122 56 28.5859Z" fill="#DCF4FF"/>
<path d="M28.1406 20.8867L30.4844 21.8711L31.4688 24.2148C31.5156 24.3086 31.6094 24.4023 31.75 24.4023C31.8438 24.4023 31.9375 24.3086 31.9844 24.2148L32.9688 21.8711L35.3125 20.8867C35.4062 20.8398 35.4531 20.7461 35.4531 20.6523C35.4531 20.5117 35.4062 20.418 35.3125 20.3711L32.9688 19.3867L31.9844 17.043C31.9375 16.9492 31.8438 16.8555 31.75 16.8555C31.6094 16.8555 31.5156 16.9492 31.4688 17.043L30.4844 19.3867L28.1406 20.3711C28.0469 20.418 28 20.5117 28 20.6523C28 20.7461 28.0469 20.8398 28.1406 20.8867ZM33.0625 29.418L28.1406 28.668L25.9375 24.2148C25.5625 23.418 24.3906 23.418 24.0156 24.2148L21.8125 28.668L16.8906 29.418C16 29.5117 15.6719 30.6367 16.2812 31.2461L19.8438 34.7148L19 39.6367C18.8594 40.4805 19.7969 41.1836 20.5938 40.7617L24.9531 38.418L29.3594 40.7617C29.5 40.8086 29.7344 40.8555 29.875 40.8555C30.4844 40.8555 30.9531 40.3867 30.9531 39.7773C30.9531 39.7305 30.9531 39.6836 30.9531 39.6367L30.1094 34.7148L33.6719 31.2461C34.2812 30.6367 33.9531 29.5117 33.0625 29.418ZM39.8594 27.168L37.9844 26.3711L37.1875 24.4961C37.1406 24.4492 37.0469 24.4023 37 24.4023C36.9062 24.4023 36.8125 24.4492 36.7656 24.4961L35.9688 26.3711L34.0938 27.168C34.0469 27.2148 34 27.3086 34 27.3555C34 27.4492 34.0469 27.543 34.0938 27.5898L35.9688 28.3867L36.7656 30.2617C36.8125 30.3086 36.9062 30.3555 37 30.3555C37.0469 30.3555 37.1406 30.3086 37.1875 30.2617L37.9844 28.3867L39.8594 27.5898C39.9062 27.543 40 27.4492 40 27.3555C40 27.3086 39.9062 27.2148 39.8594 27.168Z" fill="#00B1FF"/>
</svg>
