<svg width="39" height="40" viewBox="0 0 39 40" fill="none" xmlns="http://www.w3.org/2000/svg">
<path d="M38.8851 38.3713L28.1792 21.1653C28.0339 20.9358 27.7815 20.7982 27.5062 20.8059C27.2309 20.8135 26.9862 20.9665 26.8562 21.2112L23.0938 28.1854L15.6761 16.7529V12.0117H30.2056C30.4962 12.0117 30.7638 11.8435 30.8939 11.5835C31.0239 11.3235 30.9933 11.0099 30.8174 10.7806L27.3456 6.2764L30.8097 1.77224C30.9856 1.54279 31.0162 1.22928 30.8862 0.969315C30.7562 0.709276 30.4886 0.541016 30.198 0.541016H14.9114C14.4908 0.541016 14.1467 0.885115 14.1467 1.3057V11.247V16.7529L0.1219 38.3636C-0.0310641 38.6007 -0.0387123 38.8989 0.0913072 39.1436C0.221327 39.3883 0.481296 39.5413 0.764279 39.5413H29.0586H38.2351C38.5104 39.5413 38.7704 39.3883 38.9004 39.1513C39.0304 38.9142 39.0304 38.6083 38.8851 38.3713V38.3713ZM14.9114 18.3894L20.4556 26.9236H17.9703C17.7638 26.9236 17.5727 27.0077 17.4273 27.1454L14.9114 29.669L12.3955 27.1531C12.2502 27.0077 12.0591 26.9313 11.8526 26.9313H9.36725L14.9114 18.3894ZM25.778 5.80986C25.5638 6.08512 25.5638 6.46753 25.778 6.7428L28.6533 10.4822H15.6761V2.07045H28.6533L25.778 5.80986ZM8.38077 28.453H11.5391L14.3761 31.29C14.5291 31.443 14.7202 31.5118 14.9191 31.5118C15.1179 31.5118 15.3091 31.4354 15.462 31.29L18.2991 28.453H21.4574L22.528 30.1048L27.6516 38.0119H2.17134L8.38077 28.453ZM29.4715 38.0118L24.0421 29.6535L27.575 23.0999L36.8586 38.0118H29.4715Z" fill="#00B1FF"/>
</svg>
