<svg width="56" height="56" viewBox="0 0 56 56" fill="none" xmlns="http://www.w3.org/2000/svg">
<circle cx="28" cy="28" r="28" fill="#FFEBF6"/>
<path d="M17.5 34.2695H16C15.1562 34.2695 14.5 34.9727 14.5 35.7695V38.7695C14.5 39.6133 15.1562 40.2695 16 40.2695H17.5C18.2969 40.2695 19 39.6133 19 38.7695V35.7695C19 34.9727 18.2969 34.2695 17.5 34.2695ZM25 28.2695H23.5C22.6562 28.2695 22 28.9727 22 29.7695V38.7695C22 39.6133 22.6562 40.2695 23.5 40.2695H25C25.7969 40.2695 26.5 39.6133 26.5 38.7695V29.7695C26.5 28.9727 25.7969 28.2695 25 28.2695ZM32.5 22.2695H31C30.1562 22.2695 29.5 22.9727 29.5 23.7695V38.7695C29.5 39.6133 30.1562 40.2695 31 40.2695H32.5C33.2969 40.2695 34 39.6133 34 38.7695V23.7695C34 22.9727 33.2969 22.2695 32.5 22.2695ZM40 16.2695H38.5C37.6562 16.2695 37 16.9727 37 17.7695V38.7695C37 39.6133 37.6562 40.2695 38.5 40.2695H40C40.7969 40.2695 41.5 39.6133 41.5 38.7695V17.7695C41.5 16.9727 40.7969 16.2695 40 16.2695Z" fill="#FB2193"/>
</svg>
