<svg width="56" height="57" viewBox="0 0 56 57" fill="none" xmlns="http://www.w3.org/2000/svg">
<circle cx="28" cy="28.2695" r="28" fill="#FFF1D3"/>
<path d="M30.6719 21.1797L31.4219 23.5234L27.2031 27.7891C26.7344 28.2109 26.7344 28.9141 27.2031 29.3359C27.625 29.8047 28.3281 29.8047 28.75 29.3359L33.0156 25.1172L35.3594 25.8672C35.6875 26.0078 36.0625 25.9141 36.3438 25.6328L39.2969 22.6797C39.8125 22.1641 39.625 21.3203 38.9219 21.0859L36.3438 20.1953L35.4531 17.6172C35.2188 16.9141 34.375 16.7266 33.8594 17.2422L30.9062 20.1953C30.7188 20.3828 30.5781 20.6641 30.5781 20.8984C30.5781 20.9922 30.625 21.0859 30.6719 21.1797ZM27.1094 25.6797L29.7344 23.1016L29.5938 22.8203C29.0781 22.6797 28.5625 22.5391 28 22.5391C24.6719 22.5391 22 25.2578 22 28.5391C22 31.8672 24.6719 34.5391 28 34.5391C31.2812 34.5391 34 31.8672 34 28.5391C34 27.9766 33.8594 27.4609 33.7188 26.9453L33.4375 26.8047L30.8594 29.4297C30.4844 30.6484 29.3125 31.5391 28 31.5391C26.3125 31.5391 25 30.2266 25 28.5391C25 27.2266 25.8906 26.0547 27.1094 25.6797ZM39.0625 25.0703L37.375 26.7109C37.1406 26.9922 36.8125 27.1797 36.4844 27.2734C36.5781 27.6953 36.625 28.1172 36.625 28.5391C36.625 33.3203 32.7344 37.1641 28 37.1641C23.2188 37.1641 19.375 33.3203 19.375 28.5391C19.375 23.8047 23.2188 19.9141 28 19.9141C28.4219 19.9141 28.8438 19.9609 29.2656 20.0547C29.4062 19.7266 29.5469 19.3984 29.8281 19.1641L31.4688 17.4766C30.5312 17.1953 28.9844 16.9141 28 16.9141C21.5781 16.9141 16.375 22.1641 16.375 28.5391C16.375 34.9609 21.5781 40.1641 28 40.1641C34.375 40.1641 39.625 34.9609 39.625 28.5391C39.625 27.3203 39.3906 26.1484 39.0625 25.0703Z" fill="#F9B301"/>
</svg>
