<svg width="56" height="56" viewBox="0 0 56 56" fill="none" xmlns="http://www.w3.org/2000/svg">
<circle cx="28" cy="28" r="28" fill="#FFF1D3"/>
<path d="M28 27C32.375 27 36 23.4375 36 19C36 14.625 32.375 11 28 11C23.5625 11 20 14.625 20 19C20 23.4375 23.5625 27 28 27ZM33.5625 29H32.5C31.125 29.6875 29.625 30 28 30C26.375 30 24.8125 29.6875 23.4375 29H22.375C17.75 29 14 32.8125 14 37.4375V40C14 41.6875 15.3125 43 17 43H39C40.625 43 42 41.6875 42 40V37.4375C42 32.8125 38.1875 29 33.5625 29Z" fill="#F9B301"/>
</svg>
