<svg width="56" height="56" viewBox="0 0 56 56" fill="none" xmlns="http://www.w3.org/2000/svg">
<circle cx="28" cy="28" r="28" fill="#FFEBF6"/>
<path d="M33.8125 17.1875C30.4375 17.1875 27.6875 15 23.5 15C21.9375 15 20.5625 15.3125 19.25 15.8125C19.375 15.4375 19.5 14.875 19.5 14.5625C19.5 14.5 19.4375 14.375 19.4375 14.3125C19.375 12.5625 17.875 11.125 16.125 11.0625C14.125 10.9375 12.5 12.5625 12.5 14.5C12.5 15.75 13.0625 16.75 14 17.375V41.5C14 42.375 14.625 43 15.5 43H16.5C17.3125 43 18 42.375 18 41.5V35.625C19.75 34.875 21.9375 34.25 25.125 34.25C28.5 34.25 31.25 36.4375 35.4375 36.4375C38.4375 36.4375 40.875 35.375 43.125 33.875C43.625 33.5 44 32.875 44 32.25V17C44 15.5625 42.4375 14.625 41.125 15.1875C39 16.1875 36.375 17.1875 33.8125 17.1875Z" fill="#FB2193"/>
</svg>
