<svg id="Layer_1" data-name="Layer 1" xmlns="http://www.w3.org/2000/svg" xmlns:xlink="http://www.w3.org/1999/xlink" width="1007.5" height="603.7" viewBox="0 0 1007.5 603.7"><defs><style>.cls-1{fill:none;}.cls-2{clip-path:url(#clip-path);}.cls-3{fill:#c3dee5;opacity:0.5;isolation:isolate;}.cls-4{fill:#033063;}.cls-5{fill:#0c547e;}.cls-6{fill:#8cbad5;}.cls-7{fill:#fff;}.cls-8{fill:#083f60;}.cls-9{fill:#b5cce5;}.cls-10{fill:#333;}.cls-11{fill:#eabfa5;}.cls-12{fill:#d84744;}.cls-13{fill:#822a2a;}.cls-14{fill:#eef9f9;}.cls-15{fill:#ffabab;}.cls-16{fill:#d8a98f;}.cls-17{fill:#f7cab2;}.cls-18{fill:#00b1ff;}.cls-19{fill:#005a8f;}.cls-20{fill:url(#linear-gradient);}.cls-21{fill:url(#linear-gradient-2);}.cls-22{fill:#fb2193;}.cls-23{fill:#093b91;}.cls-24{fill:url(#linear-gradient-3);}.cls-25{fill:url(#linear-gradient-4);}</style><clipPath id="clip-path" transform="translate(-20.6 -49.3)"><rect class="cls-1" x="-32" y="-12.2" width="1031" height="560"/></clipPath><linearGradient id="linear-gradient" x1="200.27" y1="648.07" x2="199.67" y2="648.07" gradientTransform="matrix(4.99, 1.62, 1.41, -4.33, -1305.09, 2595.11)" gradientUnits="userSpaceOnUse"><stop offset="0" stop-color="#fdcfaa"/><stop offset="1" stop-color="#fdba84"/></linearGradient><linearGradient id="linear-gradient-2" x1="140.38" y1="620.47" x2="140.25" y2="619.35" gradientTransform="matrix(2.12, 0.69, 0.92, -2.83, -288.01, 1774.45)" xlink:href="#linear-gradient"/><linearGradient id="linear-gradient-3" x1="-301.9" y1="645.79" x2="-309.64" y2="645.79" gradientTransform="matrix(0.33, 0.11, 1.34, -4.13, -159.28, 2811.36)" xlink:href="#linear-gradient"/><linearGradient id="linear-gradient-4" x1="-326.51" y1="631.13" x2="-333.89" y2="631.13" gradientTransform="matrix(0.31, 0.1, 1.03, -3.17, 59.12, 2148.69)" xlink:href="#linear-gradient"/></defs><g class="cls-2"><g id="about-banner-ss"><g id="about-banner-d"><g id="about-banner"><circle id="Ellipse_144" data-name="Ellipse 144" class="cls-3" cx="536.9" cy="269.1" r="233.8"/><g id="Mountain"><g id="Group_13146" data-name="Group 13146"><g id="Group_13145" data-name="Group 13145"><g id="Group_13143" data-name="Group 13143"><path id="Path_22958" data-name="Path 22958" class="cls-4" d="M1028.1,568.6c0-1.2-189.9-115.9-189.9-115.9l-15-20-32.4-11.2L709,372.2,497.1,576.6Z" transform="translate(-20.6 -49.3)"/><path id="Path_22959" data-name="Path 22959" class="cls-5" d="M988.6,653c-3.2,0-303.8-273-303.8-273l-22.6-15.5-3.3-5.5-15.5-12-22.5-6.4-59.5-78.8L544.6,256s-65.1,71-76.1,80.7-165.2,87.1-172.9,95.5c0,0-13.6-3.2-17.4-6.4s-4.6-6.5-7.1-7.1-15.5,13.5-15.5,13.5l-8.4,3.9-34.9,27.1-40.6,3.9-17.5,18.1c-1.9,1.9-22.6,10.3-26.4,12.9s-20,14.8-22,15.5-12.9,0-12.9,0L20.6,549.1V653Z" transform="translate(-20.6 -49.3)"/><g id="Group_13141" data-name="Group 13141"><path id="Path_22960" data-name="Path 22960" class="cls-6" d="M567.9,471.3l.2-.3C567.9,471.2,567.8,471.3,567.9,471.3Z" transform="translate(-20.6 -49.3)"/><path id="Path_22961" data-name="Path 22961" class="cls-6" d="M685.1,380l-22.5-15.5-3.3-5.5-15.5-12-22.5-6.4-59.5-78.8L545,256l-3.9,13.7,3.4,15.9-8.3,9.9L578,334.4l-39-24.9L535.8,325l-6,9.4,3.3,3.1s-1.4,14-1.4,15,13.5,6.5,13.5,6.5,5.3,17.2,4.2,17.9-8.7,12.5-6.9,13.9,4.1,12.2,6.2,12.9,56.1,38.7,56.1,38.7l-27.1-7.2s9.1,20.8,10.4,21.1-5.9,51.9-3.5,53.3,20.2,4.9,20.2,4.9-3.8,7.3-2.4,8.3,20.9-8.7,23.3-7.6S728.9,653,728.9,653H985.8C982.6,653,685.1,380,685.1,380Z" transform="translate(-20.6 -49.3)"/></g><g id="Group_13142" data-name="Group 13142"><path id="Path_22962" data-name="Path 22962" class="cls-7" d="M566.6,279.3a45,45,0,0,0,1.5,10.3c.8,2.3,20.5,17.7,21.9,18.5s-.1,2.9-.1,2.9,23,23,23.6,24,.8,4.7.8,4.7,22.5,9.6,24.3,9.6a23.9,23.9,0,0,1,7,1.7c1.2.6,13.9,9.1,13.7,10.6a6.5,6.5,0,0,0,2.2,4.7L685.1,380l-22.5-15.5-3.3-5.5-15.5-12-22.5-6.4Z" transform="translate(-20.6 -49.3)"/><path id="Path_22963" data-name="Path 22963" class="cls-7" d="M544.7,291.4v6.3l14.5,10.9Z" transform="translate(-20.6 -49.3)"/><path id="Path_22964" data-name="Path 22964" class="cls-7" d="M539.1,341.3v9.6s7.2,2.1,7.8,2.5S569,376.7,569,376.7Z" transform="translate(-20.6 -49.3)"/><path id="Path_22965" data-name="Path 22965" class="cls-7" d="M552,390.6l3.5,9.8,28.4,17.5Z" transform="translate(-20.6 -49.3)"/></g></g><g id="Group_13144" data-name="Group 13144"><path id="Path_22966" data-name="Path 22966" class="cls-8" d="M646.4,552.8,525.9,390.1l-16.5-8.2-6.5-5.2L379.1,483.2l-7.9-2.8s-31-10.5-32.3-10.5-3-8-3-8l-16.4-8.5L122.6,576.6h524Z" transform="translate(-20.6 -49.3)"/><path id="Path_22967" data-name="Path 22967" class="cls-9" d="M502.9,376.7l3.1,15.8,24.7,18.6-13.3-3.4,15.6,9.5-6.1,3L555,453.4l-11.8-3,13.5,23.2s21.7,22,22.6,24.1-12.5-2.2-12.5-2.2l79.8,81.1V552.7L526,389.8l-16.4-8Z" transform="translate(-20.6 -49.3)"/><path id="Path_22968" data-name="Path 22968" class="cls-4" d="M249.5,508.2l70-41.3,33.7,11.4-30-5.8Z" transform="translate(-20.6 -49.3)"/></g></g><rect id="Rectangle_2866" data-name="Rectangle 2866" class="cls-1" x="82.8" y="34.8" width="667.2" height="417.02"/></g></g><g id="Man"><g id="Group_13159" data-name="Group 13159"><g id="Group_13158" data-name="Group 13158"><g id="Group_13152" data-name="Group 13152"><g id="Group_13151" data-name="Group 13151"><g id="Group_13149" data-name="Group 13149"><path id="Path_22969" data-name="Path 22969" class="cls-10" d="M577.9,132.4s2.5-4.3,5.5-2.5c4.9,3,3.3,9.8,3.3,9.8l-1.1-3s1.5,4.8-.9,8.1l.3-3.2s-1.9,4.5-5.3,5-3.9.5-4.3,2.6,2.4,3.3,1.5,3.2c-3-.5-2.7-4.4-2.7-4.4l-.5,2.8s-3.9-7.6-3.7-11.1a13.7,13.7,0,0,1,1.9-5.9l-2,.8S575.9,125,577.9,132.4Z" transform="translate(-20.6 -49.3)"/><path id="Path_22970" data-name="Path 22970" class="cls-11" d="M580.9,142.9c1.6-2.9,4.1-6.2-1.7-9.2-.9-.5-3.1-.1-3.9-.2s-.7.7-1.3.7a11.1,11.1,0,0,0-6.2,3.7s3.7,5.6-7.1,12.6c-1.3.9,7.7,15,8.6,9.8C572.3,142.5,579.9,144.6,580.9,142.9Z" transform="translate(-20.6 -49.3)"/><g id="Group_13148" data-name="Group 13148"><g id="Group_13147" data-name="Group 13147"><path id="Path_22971" data-name="Path 22971" class="cls-12" d="M571.5,135.4s1.8-.5,3.7,2.1c.2.2.2.5,0,.6H575a6.2,6.2,0,0,1-3.8.1C568.6,137.4,571.5,135.4,571.5,135.4Z" transform="translate(-20.6 -49.3)"/><path id="Path_22972" data-name="Path 22972" class="cls-13" d="M575,138.2h.1a2.2,2.2,0,0,0-1.3-.4,2.4,2.4,0,0,0-1.6.7A6.7,6.7,0,0,0,575,138.2Z" transform="translate(-20.6 -49.3)"/><path id="Path_22973" data-name="Path 22973" class="cls-14" d="M574.9,137.9a6.9,6.9,0,0,0-3.6-1.8s1.7.5-.1.5c0,0-.5-.2-.2-.6l.5-.5h.4A3.4,3.4,0,0,1,574.9,137.9Z" transform="translate(-20.6 -49.3)"/><path id="Path_22974" data-name="Path 22974" class="cls-14" d="M570.4,137.8h0l.8.5,1,.2h0a.4.4,0,0,0-.1-.6A2,2,0,0,0,570.4,137.8Z" transform="translate(-20.6 -49.3)"/><path id="Path_22975" data-name="Path 22975" class="cls-15" d="M571.2,138.3a6.5,6.5,0,0,0,2.4.2,3,3,0,0,0-1.6-.3h-.8Z" transform="translate(-20.6 -49.3)"/></g><path id="Path_22976" data-name="Path 22976" class="cls-16" d="M567.6,143.6c.4,4.1-1.9,13.2-2.4,15.3l.2.3,4.6-2.5c2.1-8.8,5.6-11.3,8-12.4l-2.8-1.4c-5.8-2.8-7.4-5-7.4-5S569.3,140.2,567.6,143.6Z" transform="translate(-20.6 -49.3)"/><path id="Path_22977" data-name="Path 22977" class="cls-11" d="M581,142s1.2.3.3,1.6-3.8,1.3-3.1-.3S581,142,581,142Z" transform="translate(-20.6 -49.3)"/><path id="Path_22978" data-name="Path 22978" class="cls-13" d="M577.2,135.8s2.4-1.1,3.1,1.9A3,3,0,0,0,577.2,135.8Z" transform="translate(-20.6 -49.3)"/><path id="Path_22979" data-name="Path 22979" class="cls-10" d="M578.2,135.1s3.3-.9,3,2.2A2.8,2.8,0,0,0,578.2,135.1Z" transform="translate(-20.6 -49.3)"/><path id="Path_22980" data-name="Path 22980" class="cls-10" d="M574.9,133.5s1.9.1,2,1.1S577.2,132.4,574.9,133.5Z" transform="translate(-20.6 -49.3)"/><path id="Path_22981" data-name="Path 22981" class="cls-13" d="M576,135s.3-1.4-2.1-.6C573.9,134.4,575.4,134.1,576,135Z" transform="translate(-20.6 -49.3)"/><path id="Path_22982" data-name="Path 22982" class="cls-17" d="M574.6,135l-.4-.4s.2-.4,1.2,0a3.7,3.7,0,0,0,1.8.2l-1.9,1.4Z" transform="translate(-20.6 -49.3)"/><path id="Path_22983" data-name="Path 22983" class="cls-16" d="M573.6,135.2l.6-.6a.5.5,0,0,1,.6.1v.2l.4,1.3A3.3,3.3,0,0,0,573.6,135.2Z" transform="translate(-20.6 -49.3)"/><path id="Path_22984" data-name="Path 22984" class="cls-16" d="M580.7,142.6s.2,1.1-1.4,1.1c0,0,.7-.3.6-.6a.8.8,0,0,0-.6-.3s.8-.1.9.1v.5Z" transform="translate(-20.6 -49.3)"/></g><path id="Path_22985" data-name="Path 22985" class="cls-10" d="M578.6,141.7s2.5-.3,2.8-2a5.4,5.4,0,0,0,1.8-1.1c.8-.8-1.4,4.1-1.4,4.1s-.5-.9-2.7.1Z" transform="translate(-20.6 -49.3)"/></g><path id="Path_22986" data-name="Path 22986" class="cls-18" d="M591.2,170.8a6.7,6.7,0,0,1-3.9-2.4l-3.2,4.6L581,160.3c-.9-3.6-4.8-6.5-8.6-8.5-8.5,2.6-8.2-5.2-8-6.7-1.7-9.9,5.6-18.4,12-26.3l-7.2-2.5c-27.1,24.8-29.6,65.9-29.6,65.9l32.9,4.9c-5.1-6.1.7-9.5-2.3-9.8-.6-.1.9-1.3,1-1.9s-.5-.9-.3-1.4a11.9,11.9,0,0,1,3.6-5.7c.2,15.9,10.2,19.5,10.2,19.5Z" transform="translate(-20.6 -49.3)"/><g id="Group_13150" data-name="Group 13150"><path id="Path_22987" data-name="Path 22987" class="cls-11" d="M569.2,116.3l7.2,2.5h0a96.3,96.3,0,0,1,7.3-8.3s-2.5-3.5-4.1-2a67.9,67.9,0,0,0-11.6,9Z" transform="translate(-20.6 -49.3)"/><path id="Path_22988" data-name="Path 22988" class="cls-11" d="M593.4,158.1h-6.9l-1.8,2.2s.2,1.4,1.3,1.7a.8.8,0,0,0,.9-.7c.3,1.6,2,3.5,2.5,4.1l-2.1,3a6.7,6.7,0,0,0,3.9,2.4l1.8-4.9C594.3,163,593.4,158.1,593.4,158.1Z" transform="translate(-20.6 -49.3)"/></g><path id="Path_22989" data-name="Path 22989" class="cls-19" d="M539.5,180s9.5-9.3,32.6-.9l-.9,2.6s21.9,10.1,27.5,27.3l-31,12.6,2.9,9.1s-1.2,1.7-3.7-.9-6.7-12.3-6.7-12.3l23.7-13.6s-12.5-11.3-26.3-8.3a74.2,74.2,0,0,0-8.8,51.7s.6,14.3-3.5,13.6-1.7-13.5-1.7-13.5S530.6,219,539.5,180Z" transform="translate(-20.6 -49.3)"/></g></g><g id="Group_13157" data-name="Group 13157"><path id="Path_22990" data-name="Path 22990" class="cls-11" d="M580.3,110.9c.8.8,1.8-.1,3.2-.5a6,6,0,0,0,1.9-.6,6.2,6.2,0,0,0,1.4-1.4c.3-.3.6-1.8,1.6-2.5s-.8-1.3-1.4-.7l-1,1.4-.7.5a8.6,8.6,0,0,0,.5-2.3c-.1-.6-4.9.2-5.7.9S579.3,110,580.3,110.9Z" transform="translate(-20.6 -49.3)"/><g id="Group_13153" data-name="Group 13153"><path id="Path_22991" data-name="Path 22991" class="cls-20" d="M579.8,107.1v.2l.7.5h1l.4.2a.8.8,0,0,0,1-.5l.6-1.3c0,.1.1.1.1.2l.3.3a1,1,0,0,0,1-.3,2.7,2.7,0,0,1,.4-.7l.5-.9h0c-.1-.6-4.9.2-5.7.9a2,2,0,0,0-.4.8v.6Z" transform="translate(-20.6 -49.3)"/><path id="Path_22992" data-name="Path 22992" class="cls-21" d="M585.3,107.1a3.2,3.2,0,0,0-3,2.2A3.8,3.8,0,0,1,585.3,107.1Z" transform="translate(-20.6 -49.3)"/></g><g id="Group_13154" data-name="Group 13154"><path id="Path_22993" data-name="Path 22993" class="cls-22" d="M633.3,51.4c15.8,1.5,33,9.3,38.7,16.8,8.5,11.2,7.7,31.9,9.8,38.3s9.3,14.8,23.8,14.9c-8.9,7.5-30.8,8.1-40.6-.4s-13-16.5-20.2-21.9c-9-6.7-33.8-7-46.9-7.5Z" transform="translate(-20.6 -49.3)"/><path id="Path_22994" data-name="Path 22994" class="cls-23" d="M563.1,131.5a1,1,0,0,0,.9-.2l71.1-80.6a.8.8,0,0,0-.1-1.2.7.7,0,0,0-1.1.1h0l-71.2,80.6a.9.9,0,0,0,.1,1.2Z" transform="translate(-20.6 -49.3)"/></g><g id="Group_13156" data-name="Group 13156"><path id="Path_22995" data-name="Path 22995" class="cls-11" d="M584.6,104c-.2-.5-.3-.7-.4-.7a20.9,20.9,0,0,0-4.1,1.7,6.9,6.9,0,0,0-.1,2,1.3,1.3,0,0,0,.7.6h1s0,.1.4.2a.7.7,0,0,0,.8-.4C583,107,584.6,104,584.6,104Z" transform="translate(-20.6 -49.3)"/><g id="Group_13155" data-name="Group 13155"><path id="Path_22996" data-name="Path 22996" class="cls-24" d="M581.7,107.6l1.5-4h.1Z" transform="translate(-20.6 -49.3)"/><path id="Path_22997" data-name="Path 22997" class="cls-25" d="M580.6,107.6l.7-3.2h.2Z" transform="translate(-20.6 -49.3)"/></g><path id="Path_22998" data-name="Path 22998" class="cls-11" d="M585.3,102.2l-1.6,3.5a.9.9,0,0,0,.4.8c.3,0,.6,0,.7-.3a36.2,36.2,0,0,0,2-3.3.8.8,0,0,0-.4-.9C586.1,101.9,585.5,101.9,585.3,102.2Z" transform="translate(-20.6 -49.3)"/></g></g></g></g></g></g></g></g></g></svg>