<svg width="24" height="24" viewBox="0 0 24 24" fill="none" xmlns="http://www.w3.org/2000/svg">
<path d="M23.625 12.2598C23.625 5.88477 18.375 0.634766 12 0.634766C5.57812 0.634766 0.375 5.88477 0.375 12.2598C0.375 18.6816 5.57812 23.8848 12 23.8848C18.375 23.8848 23.625 18.6816 23.625 12.2598ZM10.6406 18.4473C10.3594 18.7285 9.84375 18.7285 9.5625 18.4473L4.6875 13.5723C4.40625 13.291 4.40625 12.7754 4.6875 12.4941L5.76562 11.4629C6.04688 11.1348 6.51562 11.1348 6.79688 11.4629L10.125 14.7441L17.1562 7.71289C17.4375 7.38477 17.9062 7.38477 18.1875 7.71289L19.2656 8.74414C19.5469 9.02539 19.5469 9.54102 19.2656 9.82227L10.6406 18.4473Z" fill="#777777"/>
</svg>
