<svg width="21" height="25" viewBox="0 0 21 25" fill="none" xmlns="http://www.w3.org/2000/svg">
<path d="M18.75 10.7598H17.625V7.38477C17.625 3.49414 14.3906 0.259766 10.5 0.259766C6.5625 0.259766 3.375 3.49414 3.375 7.38477V10.7598H2.25C0.984375 10.7598 0 11.791 0 13.0098V22.0098C0 23.2754 0.984375 24.2598 2.25 24.2598H18.75C19.9688 24.2598 21 23.2754 21 22.0098V13.0098C21 11.791 19.9688 10.7598 18.75 10.7598ZM12.375 18.6348C12.375 19.7129 11.5312 20.5098 10.5 20.5098C9.42188 20.5098 8.625 19.7129 8.625 18.6348V16.3848C8.625 15.3535 9.42188 14.5098 10.5 14.5098C11.5312 14.5098 12.375 15.3535 12.375 16.3848V18.6348ZM13.875 10.7598H7.125V7.38477C7.125 5.55664 8.625 4.00977 10.5 4.00977C12.3281 4.00977 13.875 5.55664 13.875 7.38477V10.7598Z" fill="#777777"/>
</svg>
