<svg width="24" height="25" viewBox="0 0 24 25" fill="none" xmlns="http://www.w3.org/2000/svg">
<path d="M14.6719 5.23193L15.4219 7.57568L11.2031 11.8413C10.7344 12.2632 10.7344 12.9663 11.2031 13.3882C11.625 13.8569 12.3281 13.8569 12.75 13.3882L17.0156 9.16943L19.3594 9.91943C19.6875 10.0601 20.0625 9.96631 20.3438 9.68506L23.2969 6.73193C23.8125 6.21631 23.625 5.37256 22.9219 5.13818L20.3438 4.24756L19.4531 1.66943C19.2188 0.966309 18.375 0.778809 17.8594 1.29443L14.9062 4.24756C14.7188 4.43506 14.5781 4.71631 14.5781 4.95068C14.5781 5.04443 14.625 5.13818 14.6719 5.23193ZM11.1094 9.73193L13.7344 7.15381L13.5938 6.87256C13.0781 6.73193 12.5625 6.59131 12 6.59131C8.67188 6.59131 6 9.31006 6 12.5913C6 15.9194 8.67188 18.5913 12 18.5913C15.2812 18.5913 18 15.9194 18 12.5913C18 12.0288 17.8594 11.5132 17.7188 10.9976L17.4375 10.8569L14.8594 13.4819C14.4844 14.7007 13.3125 15.5913 12 15.5913C10.3125 15.5913 9 14.2788 9 12.5913C9 11.2788 9.89062 10.1069 11.1094 9.73193ZM23.0625 9.12256L21.375 10.7632C21.1406 11.0444 20.8125 11.2319 20.4844 11.3257C20.5781 11.7476 20.625 12.1694 20.625 12.5913C20.625 17.3726 16.7344 21.2163 12 21.2163C7.21875 21.2163 3.375 17.3726 3.375 12.5913C3.375 7.85693 7.21875 3.96631 12 3.96631C12.4219 3.96631 12.8438 4.01318 13.2656 4.10693C13.4062 3.77881 13.5469 3.45068 13.8281 3.21631L15.4688 1.52881C14.5312 1.24756 12.9844 0.966309 12 0.966309C5.57812 0.966309 0.375 6.21631 0.375 12.5913C0.375 19.0132 5.57812 24.2163 12 24.2163C18.375 24.2163 23.625 19.0132 23.625 12.5913C23.625 11.3726 23.3906 10.2007 23.0625 9.12256Z" fill="#FB2193"/>
</svg>
