<svg width="24" height="24" viewBox="0 0 24 24" fill="none" xmlns="http://www.w3.org/2000/svg">
<path d="M14.6719 4.90039L15.4219 7.24414L11.2031 11.5098C10.7344 11.9316 10.7344 12.6348 11.2031 13.0566C11.625 13.5254 12.3281 13.5254 12.75 13.0566L17.0156 8.83789L19.3594 9.58789C19.6875 9.72852 20.0625 9.63477 20.3438 9.35352L23.2969 6.40039C23.8125 5.88477 23.625 5.04102 22.9219 4.80664L20.3438 3.91602L19.4531 1.33789C19.2188 0.634766 18.375 0.447266 17.8594 0.962891L14.9062 3.91602C14.7188 4.10352 14.5781 4.38477 14.5781 4.61914C14.5781 4.71289 14.625 4.80664 14.6719 4.90039ZM11.1094 9.40039L13.7344 6.82227L13.5938 6.54102C13.0781 6.40039 12.5625 6.25977 12 6.25977C8.67188 6.25977 6 8.97852 6 12.2598C6 15.5879 8.67188 18.2598 12 18.2598C15.2812 18.2598 18 15.5879 18 12.2598C18 11.6973 17.8594 11.1816 17.7188 10.666L17.4375 10.5254L14.8594 13.1504C14.4844 14.3691 13.3125 15.2598 12 15.2598C10.3125 15.2598 9 13.9473 9 12.2598C9 10.9473 9.89062 9.77539 11.1094 9.40039ZM23.0625 8.79102L21.375 10.4316C21.1406 10.7129 20.8125 10.9004 20.4844 10.9941C20.5781 11.416 20.625 11.8379 20.625 12.2598C20.625 17.041 16.7344 20.8848 12 20.8848C7.21875 20.8848 3.375 17.041 3.375 12.2598C3.375 7.52539 7.21875 3.63477 12 3.63477C12.4219 3.63477 12.8438 3.68164 13.2656 3.77539C13.4062 3.44727 13.5469 3.11914 13.8281 2.88477L15.4688 1.19727C14.5312 0.916016 12.9844 0.634766 12 0.634766C5.57812 0.634766 0.375 5.88477 0.375 12.2598C0.375 18.6816 5.57812 23.8848 12 23.8848C18.375 23.8848 23.625 18.6816 23.625 12.2598C23.625 11.041 23.3906 9.86914 23.0625 8.79102Z" fill="#00B1FF"/>
</svg>
