<svg width="241" height="240" viewBox="0 0 241 240" fill="none" xmlns="http://www.w3.org/2000/svg">
<mask id="mask0_5836_20856" style="mask-type:alpha" maskUnits="userSpaceOnUse" x="0" y="0" width="241" height="240">
<circle cx="120.5" cy="120" r="120" fill="#E2E2E2"/>
</mask>
<g mask="url(#mask0_5836_20856)">
<path d="M247.974 0H0.5V240H247.974V0Z" fill="#DCF4FF"/>
</g>
<path d="M122.227 78.3647C127.851 78.3647 132.41 73.8059 132.41 68.1824C132.41 62.5588 127.851 58 122.227 58C116.604 58 112.045 62.5588 112.045 68.1824C112.045 73.8059 116.604 78.3647 122.227 78.3647Z" fill="#FFB332"/>
<path d="M122.225 72.004C124.333 72.004 126.043 70.2944 126.043 68.1856C126.043 66.0767 124.333 64.3672 122.225 64.3672C120.116 64.3672 118.406 66.0767 118.406 68.1856C118.406 70.2944 120.116 72.004 122.225 72.004Z" fill="#E3F5FD"/>
<path d="M169.813 126.419C169.659 126.419 169.502 126.4 169.346 126.36C168.323 126.103 167.703 125.065 167.96 124.043C168.85 120.505 169.33 116.849 169.387 113.176C169.583 100.373 164.79 88.3131 155.891 79.219C153.685 76.9651 151.26 74.9307 148.681 73.1725C147.81 72.5783 147.586 71.3905 148.18 70.5194C148.774 69.6483 149.961 69.4233 150.833 70.0177C153.619 71.9177 156.239 74.1148 158.62 76.5482C168.237 86.3759 173.417 99.4045 173.204 113.234C173.144 117.201 172.625 121.151 171.663 124.974C171.445 125.841 170.667 126.419 169.813 126.419Z" fill="white"/>
<path d="M74.1028 126.418C73.2488 126.418 72.4709 125.84 72.2527 124.974C71.2907 121.151 70.7722 117.201 70.7114 113.234C70.4991 99.4045 75.6786 86.3762 85.2961 76.5482C87.6772 74.1146 90.2971 71.9177 93.0833 70.0177C93.9544 69.4233 95.1421 69.6483 95.7363 70.5194C96.3304 71.3905 96.1057 72.5783 95.2346 73.1725C92.6561 74.9307 90.2307 76.9651 88.0252 79.2187C79.1258 88.3131 74.333 100.373 74.5295 113.176C74.5857 116.849 75.0653 120.505 75.956 124.043C76.2134 125.065 75.593 126.103 74.5705 126.36C74.4139 126.399 74.2571 126.418 74.1028 126.418Z" fill="white"/>
<path d="M162.407 122.647C163.178 119.582 163.61 116.382 163.661 113.09C164.018 89.8129 145.506 70.8762 122.227 70.7294C99.0682 70.5832 80.2492 89.3124 80.2492 112.437C80.2492 115.995 80.6949 119.45 81.5334 122.747C83.9433 132.223 80.7522 142.34 73.2608 148.623C70.203 151.188 68.5 154.036 68.5 157.036C68.5 168.283 92.4336 177.401 121.957 177.401C151.481 177.401 175.415 168.283 175.415 157.036C175.415 154.036 173.712 151.188 170.654 148.623C163.134 142.316 160.012 132.165 162.407 122.647Z" fill="#FFDD40"/>
<path d="M121.957 157.036H87.3374C87.3374 154.036 89.0404 151.188 92.0979 148.623C99.5893 142.34 102.78 132.223 100.371 122.747C99.532 119.45 99.0863 115.996 99.0863 112.437C99.0863 92.6329 112.89 76.0545 131.4 71.7929C128.453 71.1176 125.384 70.7492 122.227 70.7294C99.0682 70.5832 80.2492 89.3124 80.2492 112.437C80.2492 115.996 80.6949 119.45 81.5334 122.747C83.9433 132.223 80.7522 142.34 73.2608 148.623C70.203 151.188 68.5 154.036 68.5 157.036C68.5 168.283 92.4336 177.401 121.957 177.401V157.036Z" fill="#FFC839"/>
<path d="M157.039 149.773C149.103 146.75 138.385 144.85 127.049 144.408L121.957 148.474L116.866 144.408C105.53 144.85 94.8117 146.75 86.8758 149.773C78.6818 152.894 76.1367 156.189 76.1367 157.036C76.1367 157.883 78.6818 161.178 86.8761 164.3C95.9918 167.773 108.779 169.764 121.957 169.764C135.136 169.764 147.923 167.773 157.039 164.3C165.233 161.178 167.778 157.883 167.778 157.036C167.778 156.189 165.233 152.894 157.039 149.773Z" fill="#FFB332"/>
<path d="M93.0326 147.799C90.8411 148.39 88.7779 149.049 86.8761 149.773C78.6818 152.895 76.1367 156.19 76.1367 157.037C76.1367 157.884 78.6818 161.179 86.8761 164.301C95.9918 167.773 108.779 169.765 121.957 169.765C103.028 169.765 86.6821 157.313 93.0326 147.799Z" fill="#FF9100"/>
<path d="M127.05 144.406C125.364 144.341 123.664 144.307 121.958 144.307C120.252 144.307 118.553 144.341 116.867 144.406V166.12H127.05V144.406Z" fill="#FFC839"/>
<path d="M121.955 183C130.391 183 137.229 176.162 137.229 167.727C137.229 159.291 130.391 152.453 121.955 152.453C113.52 152.453 106.682 159.291 106.682 167.727C106.682 176.162 113.52 183 121.955 183Z" fill="#FFDD40"/>
<path d="M116.864 167.727C116.864 161.077 121.115 155.423 127.046 153.326C125.454 152.762 123.741 152.453 121.955 152.453C113.52 152.453 106.682 159.291 106.682 167.727C106.682 176.162 113.52 183 121.955 183C123.741 183 125.454 182.691 127.047 182.128C121.115 180.031 116.864 174.376 116.864 167.727Z" fill="#FFC839"/>
</svg>
