<svg width="80" height="81" viewBox="0 0 80 81" fill="none" xmlns="http://www.w3.org/2000/svg">
<path d="M76.6669 26.8555H3.33313C1.49353 26.8555 0 28.371 0 30.2377V70.6923C0 76.2868 4.48669 80.8396 10 80.8396H70C75.5133 80.8396 80 76.2868 80 70.6923V30.2377C80 28.371 78.5065 26.8555 76.6669 26.8555V26.8555Z" fill="#D6EEFF"/>
<path d="M20.8253 37.5723H12.4922C11.1122 37.5723 9.99219 38.6346 9.99219 39.9436V47.8477C9.99219 49.1566 11.1122 50.219 12.4922 50.219H20.8253C22.2053 50.219 23.3253 49.1566 23.3253 47.8477V39.9436C23.3253 38.6346 22.2053 37.5723 20.8253 37.5723Z" fill="#00B1FF"/>
<path d="M20.8253 56.5435H12.4922C11.1122 56.5435 9.99219 57.6058 9.99219 58.9147V66.8189C9.99219 68.1278 11.1122 69.1902 12.4922 69.1902H20.8253C22.2053 69.1902 23.3253 68.1278 23.3253 66.8189V58.9147C23.3253 57.6058 22.2053 56.5435 20.8253 56.5435V56.5435Z" fill="#00B1FF"/>
<path d="M44.1658 37.5723H35.832C34.452 37.5723 33.332 38.6346 33.332 39.9436V47.8477C33.332 49.1566 34.452 50.219 35.832 50.219H44.1658C45.5458 50.219 46.6658 49.1566 46.6658 47.8477V39.9436C46.6658 38.6346 45.5458 37.5723 44.1658 37.5723Z" fill="white"/>
<path d="M67.9705 56.9912H59.6367C58.2567 56.9912 57.1367 58.0535 57.1367 59.3625V67.2666C57.1367 68.5756 58.2567 69.6379 59.6367 69.6379H67.9705C69.3505 69.6379 70.4705 68.5756 70.4705 67.2666V59.3625C70.4705 58.0535 69.3505 56.9912 67.9705 56.9912Z" fill="white"/>
<path d="M44.1658 56.5435H35.832C34.452 56.5435 33.332 57.6058 33.332 58.9147V66.8189C33.332 68.1278 34.452 69.1902 35.832 69.1902H44.1658C45.5458 69.1902 46.6658 68.1278 46.6658 66.8189V58.9147C46.6658 57.6058 45.5458 56.5435 44.1658 56.5435V56.5435Z" fill="#00B1FF"/>
<path d="M67.5011 37.5703H59.168C57.788 37.5703 56.668 38.6326 56.668 39.9416V47.8457C56.668 49.1547 57.788 50.217 59.168 50.217H67.5011C68.8811 50.217 70.0011 49.1547 70.0011 47.8457V39.9416C70.0011 38.6326 68.8811 37.5703 67.5011 37.5703Z" fill="#00B1FF"/>
<path d="M70 10.3237H10C4.47693 10.3237 0 14.5702 0 19.8089V29.4203H80V19.8089C80 14.5702 75.5231 10.3237 70 10.3237Z" fill="#00B1FF"/>
<path d="M20.0028 0.839844H16.6697C14.8295 0.839844 13.3359 2.25648 13.3359 4.00137V16.6487C13.3359 18.3935 14.8295 19.8102 16.6697 19.8102H20.0028C21.843 19.8102 23.3359 18.3935 23.3359 16.6487V4.00137C23.3359 2.25648 21.843 0.839844 20.0028 0.839844Z" fill="#006EAF"/>
<path d="M63.3342 0.839844H60.0011C58.1609 0.839844 56.668 2.25648 56.668 4.00137V16.6487C56.668 18.3935 58.1609 19.8102 60.0011 19.8102H63.3342C65.1744 19.8102 66.668 18.3935 66.668 16.6487V4.00137C66.668 2.25648 65.1744 0.839844 63.3342 0.839844V0.839844Z" fill="#006EAF"/>
</svg>
