<svg width="21" height="21" viewBox="0 0 21 21" fill="none" xmlns="http://www.w3.org/2000/svg">
<path d="M19.9844 18.8203L15.2578 14.0938C15.1406 14.0156 15.0234 13.9375 14.9062 13.9375H14.3984C15.6094 12.5312 16.3906 10.6562 16.3906 8.625C16.3906 4.17188 12.7188 0.5 8.26562 0.5C3.77344 0.5 0.140625 4.17188 0.140625 8.625C0.140625 13.1172 3.77344 16.75 8.26562 16.75C10.2969 16.75 12.1328 16.0078 13.5781 14.7969V15.3047C13.5781 15.4219 13.6172 15.5391 13.6953 15.6562L18.4219 20.3828C18.6172 20.5781 18.9297 20.5781 19.0859 20.3828L19.9844 19.4844C20.1797 19.3281 20.1797 19.0156 19.9844 18.8203ZM8.26562 14.875C4.78906 14.875 2.01562 12.1016 2.01562 8.625C2.01562 5.1875 4.78906 2.375 8.26562 2.375C11.7031 2.375 14.5156 5.1875 14.5156 8.625C14.5156 12.1016 11.7031 14.875 8.26562 14.875Z" fill="#222222"/>
</svg>
