<svg width="70" height="70" viewBox="0 0 70 70" fill="none" xmlns="http://www.w3.org/2000/svg">
<path d="M35 44.8447C31.2812 44.8447 29.9687 43.9697 28.7656 43.0947C28.4375 42.876 28.2188 42.6572 27.8906 42.5479C24.6094 40.5791 22.2031 37.1885 21.1094 32.376C19.5781 31.8291 17.5 30.1885 17.5 26.251C17.5 23.1885 18.9219 22.2041 19.0312 22.0947C19.5781 21.7666 20.2344 21.876 20.5625 22.4229C20.8906 22.9697 20.7812 23.626 20.2344 23.9541C19.6875 24.2822 19.5781 24.501 19.5781 26.3604C19.5781 30.0791 21.875 30.5166 22.0938 30.5166C22.5313 30.626 22.9688 30.9541 23.0781 31.3916C23.7344 34.4541 25.1562 38.6104 28.875 40.7979C29.3125 41.0166 29.6406 41.2354 29.9688 41.4541C31.0625 42.2197 31.9375 42.7666 34.8906 42.7666C37.9531 42.7666 38.7188 42.2197 39.8125 41.4541C40.1406 41.2354 40.4688 41.0166 40.9063 40.7979C44.625 38.6104 46.1562 34.5635 46.7031 31.3916C46.8125 30.9541 47.25 30.5166 47.6875 30.5166C47.9062 30.5166 50.2031 30.0791 50.2031 26.3604C50.2031 24.501 49.5469 23.9541 49.5469 23.9541C49 23.626 48.8906 22.9697 49.3281 22.4229C49.6562 21.876 50.4219 21.7666 50.8594 22.2041C50.9688 22.3135 52.3906 23.4072 52.3906 26.3604C52.3906 30.2979 50.3125 31.9385 48.7812 32.4854C47.6875 37.1885 45.3906 40.6885 42 42.6572C41.6719 42.876 41.3437 43.0947 41.125 43.2041C40.0312 43.9697 38.7188 44.8447 35 44.8447Z" fill="black"/>
<path d="M19.6873 24.0625C19.2498 24.0625 18.9217 23.8437 18.703 23.4062C18.4842 22.8594 18.703 22.2031 19.2498 21.9844C22.0936 20.6719 24.2811 17.8281 26.3592 12.6875C26.4686 12.3594 26.7967 12.1406 27.1248 12.0312C27.453 11.9219 27.8905 12.0313 28.1092 12.3594C31.2811 15.3125 35.7655 14.6562 38.7186 14.2187C39.5936 14.1094 40.3592 14 40.9061 14C45.2811 14 47.0311 17.1719 48.2342 19.4687C48.9998 21 49.5467 21.9844 50.3123 21.9844C50.9686 21.9844 51.4061 22.4219 51.4061 23.0781C51.4061 23.7344 50.9686 24.1719 50.3123 24.1719C48.2342 24.1719 47.2498 22.3125 46.2655 20.5625C45.0623 18.375 43.9686 16.2969 40.9061 16.2969C40.4686 16.2969 39.8123 16.4062 39.0467 16.5156C36.203 16.9531 31.4998 17.6094 27.7811 15.0937C25.5936 19.9062 23.1873 22.75 20.1248 24.1719C20.0155 24.0625 19.7967 24.0625 19.6873 24.0625Z" fill="black"/>
<path d="M67.8125 68.9062C67.1562 68.9062 66.7188 68.4688 66.7188 67.8125C66.7188 61.7969 66.7188 56.9844 58.1875 54.9062C51.0781 53.2656 42.6562 49.9844 42.6562 44.4062V39.9219C42.6562 39.2656 43.0937 38.8281 43.75 38.8281C44.4062 38.8281 44.8438 39.2656 44.8438 39.9219V44.4062C44.8438 47.5781 49.875 50.6406 58.625 52.8281C68.9062 55.2344 68.9062 61.9063 68.9062 67.7031C68.9062 68.3594 68.4688 68.9062 67.8125 68.9062Z" fill="black"/>
<path d="M2.1875 67.8125H1.09375C1.09375 61.9062 1.09375 55.2344 11.375 52.8281C20.125 50.75 25.1562 47.6875 25.1562 44.4062V39.9219C25.1562 39.2656 25.5938 38.8281 26.25 38.8281C26.9062 38.8281 27.3438 39.2656 27.3438 39.9219V44.4062C27.3438 49.9844 18.9219 53.2656 11.8125 54.9062C3.28125 56.9844 3.28125 61.7969 3.28125 67.7031L2.1875 67.8125Z" fill="black"/>
<path d="M34.9997 60.1555C28.7653 60.1555 22.7497 57.3117 18.5935 52.3898C18.156 51.9523 18.2653 51.2961 18.7028 50.8586C19.1403 50.4211 19.7966 50.5305 20.2341 50.968C24.0622 55.4523 29.4216 57.968 34.9997 57.968C40.5778 57.968 45.9372 55.4523 49.7653 50.968C50.2028 50.5305 50.8591 50.4211 51.2966 50.8586C51.7341 51.2961 51.8435 51.9523 51.406 52.3898C47.2497 57.3117 41.2341 60.1555 34.9997 60.1555Z" fill="black"/>
<path d="M19.3594 24.3906C18.9219 24.3906 18.4844 24.1719 18.375 23.7344C17.5 21.4375 17.5 20.6719 17.5 15.3125C17.5 10.7188 20.3437 7 23.2969 5.6875C25.5937 2.51562 29.2031 1.09375 35 1.09375C37.8438 1.09375 40.5781 1.64063 42.875 2.625C46.7031 3.71875 50.0938 3.28125 50.0938 3.28125C50.6406 3.17188 51.1875 3.60938 51.2969 4.15625C51.2969 4.26562 51.8438 6.67188 50.4219 8.75C51.8438 11.0469 52.3906 14.3281 52.3906 16.625C52.3906 18.7031 52.3906 21.4375 51.5156 23.7344C51.2969 24.2812 50.6406 24.6094 50.0938 24.3906C49.5469 24.1719 49.2188 23.5156 49.4375 22.9688C50.2031 21.1094 50.2031 18.7031 50.2031 16.625C50.2031 14.4375 49.5469 11.1562 48.2344 9.40625C47.9062 8.96875 47.9062 8.42188 48.2344 7.98438C48.8906 7.10938 49.1094 6.23438 49.1094 5.46875C47.6875 5.46875 45.0625 5.46875 42.2187 4.70313C42.1094 4.70313 42.1094 4.70312 42 4.59375C40.0313 3.71875 37.625 3.28125 35 3.28125C28.5469 3.28125 26.3594 5.14062 24.9375 7.21875C24.8281 7.4375 24.6094 7.54688 24.3906 7.65625C22.0937 8.53125 19.6875 11.4844 19.6875 15.3125C19.6875 20.5625 19.6875 21 20.4531 22.8594C20.6719 23.4062 20.3438 24.0625 19.7969 24.2812C19.6875 24.3906 19.4688 24.3906 19.3594 24.3906Z" fill="black"/>
</svg>
