<svg width="70" height="70" viewBox="0 0 70 70" fill="none" xmlns="http://www.w3.org/2000/svg">
<path d="M65.6255 68.9063C64.9692 68.9063 64.5317 68.4688 64.5317 67.8125C64.5317 65.1875 63.438 60.1563 55.6724 55.8906C54.2505 55.125 52.5005 54.4688 50.5317 53.7031C45.8286 51.9531 40.3599 49.875 40.3599 45.5V41.125C40.3599 40.4688 40.7974 40.0312 41.4536 40.0312C42.1099 40.0312 42.5474 40.4688 42.5474 41.125V45.5C42.5474 48.3438 47.0317 50.0938 51.2974 51.7344C53.2661 52.5 55.1255 53.1563 56.6567 54.0313C65.4067 58.8438 66.7192 64.75 66.7192 67.8125C66.7192 68.4688 66.2817 68.9063 65.6255 68.9063Z" fill="black"/>
<path d="M4.375 68.9063C3.71875 68.9063 3.28125 68.4688 3.28125 67.8125C3.28125 64.75 4.59375 58.7344 13.2344 54.0313C14.7656 53.1563 16.625 52.5 18.5938 51.7344C22.8594 50.0938 27.3438 48.4531 27.3438 45.5V41.125C27.3438 40.4688 27.7812 40.0312 28.4375 40.0312C29.0938 40.0312 29.5312 40.4688 29.5312 41.125V45.5C29.5312 49.875 24.1719 51.9531 19.3594 53.7031C17.5 54.4688 15.6406 55.125 14.2188 55.8906C6.5625 60.1563 5.46875 65.1875 5.46875 67.8125C5.46875 68.4688 5.03125 68.9063 4.375 68.9063Z" fill="black"/>
<path d="M34.9998 62.3455C28.4373 62.3455 22.4217 58.5174 19.7967 52.5018C19.578 51.9549 19.7967 51.2987 20.3436 51.0799C20.8905 50.8612 21.5467 51.0799 21.7655 51.6268C24.0623 56.7674 29.3123 60.158 34.9998 60.158C40.6873 60.158 45.9373 56.7674 48.2342 51.6268C48.453 51.0799 49.1092 50.8612 49.6561 51.0799C50.203 51.2987 50.4217 51.9549 50.203 52.5018C47.578 58.5174 41.5623 62.3455 34.9998 62.3455Z" fill="black"/>
<path d="M35 44.8438C29.2031 44.8438 23.625 39.375 21.9844 32.375C20.4531 31.8281 18.5938 30.1875 18.5938 26.25C18.5938 25.2656 18.7031 24.2813 19.0312 23.5156C19.3594 22.5313 20.2344 21.875 21.3281 21.7656C24.2812 21.4375 25.1562 19.1406 26.1406 15.75C26.7969 13.3438 27.5625 10.8281 30.0781 10.8281C31.3906 10.8281 32.4844 11.2656 33.25 11.5938C33.7969 11.1563 34.7812 10.8281 36.4219 10.8281C38.9375 10.8281 40.6875 13.3438 42.6562 16.0781C44.5156 18.7031 46.4844 21.4375 48.8906 21.7656C49.875 21.875 50.6406 22.5313 51.0781 23.4063C51.2969 24.2813 51.4062 25.1563 51.4062 26.25C51.4062 30.1875 49.4375 31.8281 48.0156 32.375C46.375 39.375 40.7969 44.8438 35 44.8438ZM21.5469 24.0625C21.3281 24.0625 21.2187 24.1719 21.1094 24.3906C20.8906 24.8281 20.7812 25.4844 20.7812 26.25C20.7812 30.0781 22.9688 30.4063 23.0781 30.4063C23.5156 30.4063 23.9531 30.8438 24.0625 31.2813C25.375 38.2813 30.7344 42.6563 35 42.6563C39.2656 42.6563 44.625 38.2813 45.9375 31.2813C46.0469 30.8438 46.375 30.4063 46.9219 30.4063C47.1406 30.4063 49.2188 29.9688 49.2188 26.25C49.2188 25.2656 49 24.7188 48.8906 24.3906C48.7812 24.1719 48.6719 24.0625 48.4531 24.0625C45.0625 23.625 42.7656 20.3438 40.6875 17.5C39.1562 15.4219 37.625 13.2344 36.3125 13.2344C34.6719 13.2344 34.2344 13.7813 34.2344 13.7813C34.125 14 33.9063 14.2188 33.5781 14.2188C33.25 14.3281 32.9219 14.2188 32.7031 14C32.7031 14 31.6094 13.125 30.0781 13.125C29.3125 13.125 28.875 14.4375 28.2187 16.5156C27.3437 19.4688 26.1406 23.625 21.5469 24.0625Z" fill="black"/>
<path d="M52.6088 44.8438C48.6713 44.8438 47.14 44.0781 47.0306 44.0781C46.4838 43.8594 46.265 43.2031 46.5931 42.6562C46.8119 42.1094 47.4681 41.8906 48.015 42.2188C48.5619 42.5469 49.3275 42.7656 52.6088 42.7656C55.7806 42.7656 56.8744 40.4688 56.8744 38.3906C56.8744 35.1094 55.2338 31.6094 54.4681 29.9688C53.8119 28.5469 53.9213 26.7969 54.0306 25.0469C54.14 23.4062 54.2494 21.7656 53.8119 20.125C53.265 17.9375 51.8431 16.2969 50.5306 14.875C49.8744 14.2188 49.3275 13.5625 48.89 12.9062C48.4525 12.25 48.015 11.375 47.5775 10.3906C46.1556 7.10938 44.4056 3.28125 39.3744 3.28125C35.2181 3.28125 33.6869 5.03125 33.6869 5.03125C33.3588 5.46875 32.5931 5.57812 32.1556 5.14062C31.7181 4.8125 31.6088 4.04688 31.9369 3.60938C32.0463 3.60938 34.015 1.09375 39.3744 1.09375C45.8275 1.09375 48.1244 6.01562 49.6556 9.29688C50.0931 10.1719 50.4213 10.9375 50.7494 11.375C51.1869 11.9219 51.7338 12.5781 52.2806 13.125C53.7025 14.7656 55.4525 16.625 56.1088 19.3594C56.5463 21.3281 56.4369 23.2969 56.3275 24.9375C56.2181 26.5781 56.1088 27.8906 56.5463 28.875C57.4213 30.7344 59.0619 34.4531 59.0619 38.1719C59.0619 41.5625 57.0931 44.8438 52.6088 44.8438Z" fill="black"/>
<path d="M17.3906 44.8438C12.9062 44.8438 10.9375 41.5625 10.9375 38.2812C10.9375 34.5625 12.6875 30.7344 13.4531 28.9844C13.8906 28.1094 13.7812 26.6875 13.6719 25.0469C13.5625 23.2969 13.4531 21.4375 13.8906 19.4688C14.5469 16.625 16.1875 14.875 17.7188 13.2344C18.2656 12.5781 18.8125 12.0312 19.25 11.4844C19.5781 10.9375 20.0156 10.1719 20.3438 9.40625C21.6562 6.45313 23.625 2.1875 29.5312 2.1875C31.3906 2.1875 33.25 3.28125 33.3594 3.5C33.9062 3.82813 34.0156 4.48438 33.6875 5.03125C33.3594 5.57812 32.7031 5.6875 32.1562 5.35938C31.8281 5.03125 30.5156 4.375 29.5312 4.375C25.0469 4.375 23.625 7.4375 22.3125 10.2812C21.875 11.1562 21.5469 12.0312 21 12.6875C20.4531 13.3438 19.9063 14 19.3594 14.6562C18.0469 16.1875 16.625 17.7188 16.0781 19.9062C15.75 21.5469 15.75 23.2969 15.8594 24.8281C15.9688 26.6875 16.0781 28.3281 15.4219 29.75C14.7656 31.5 13.125 35 13.125 38.2812C13.125 40.3594 14.2187 42.6562 17.3906 42.6562C20.7812 42.6562 21.9844 42.1094 22.0938 42.1094C22.6406 41.8906 23.2969 42.1094 23.5156 42.6562C23.7344 43.2031 23.5156 43.8594 23.0781 44.0781C22.8594 44.0781 21.3281 44.8438 17.3906 44.8438Z" fill="black"/>
</svg>
