<svg width="384" height="304" viewBox="0 0 384 304" fill="none" xmlns="http://www.w3.org/2000/svg">
<path d="M104.54 72.6017H0.221809C-0.806969 69.7679 1.91534 64.6229 4.71678 63.5623C10.747 61.2668 17.6161 61.2509 23.678 63.4989C23.219 53.193 33.6651 44.3278 43.9528 45.0402C54.2406 45.7526 62.9299 54.602 65.0666 64.6862C78.3616 58.6863 95.6292 61.0451 104.54 72.6017Z" fill="#F1F2F5"/>
<path d="M304 73H384C378.525 67.1073 373.196 63.8175 365.908 65.0472C368.253 55.0663 362.405 43.7918 354.132 40.7576C352.32 40.1028 350.388 39.7675 348.523 40.1827C344.833 41.0291 341.955 44.734 340.49 48.8861C339.024 53.0381 338.744 57.6373 338.465 62.1248C336.466 59.6814 333.282 58.7073 330.551 59.7134C327.82 60.7195 325.635 63.6419 325.116 67.0274C322.704 62.8753 317.575 61.9012 313.699 63.9134C309.822 65.9095 305.665 68.3369 304 73Z" fill="#F1F2F5"/>
<path d="M187.958 32.9669H141.995C144.48 31.0988 147.661 28.3918 150.748 28.7401C151.017 24.3074 154.103 20.1756 158.266 18.6558C162.428 17.1361 167.461 18.3234 170.516 21.537C172.336 23.4526 173.428 25.938 174.426 28.3759C174.71 29.0883 175.09 29.8957 175.834 30.1173C176.23 30.2281 176.657 30.149 177.069 30.0857C180.298 29.5791 185.711 30.6081 187.958 32.9669Z" fill="#F1F2F5"/>
<path d="M153.007 156.197H200.42C205.943 156.197 210.42 160.674 210.42 166.197V293.664C210.42 299.187 205.943 303.664 200.42 303.664H153.007C147.484 303.664 143.007 299.187 143.007 293.664V166.197C143.007 160.674 147.484 156.197 153.007 156.197Z" fill="#C8E771"/>
<path d="M61.9978 212.656H109.411C114.934 212.656 119.411 217.133 119.411 222.656V293.664C119.411 299.187 114.934 303.664 109.411 303.664H61.9978C56.4749 303.664 51.9978 299.187 51.9978 293.664V222.656C51.9978 217.133 56.4749 212.656 61.9978 212.656Z" fill="#FCE6D2"/>
<path d="M246.543 84.5703H293.956C299.479 84.5703 303.956 89.0475 303.956 94.5703V293.664C303.956 299.187 299.479 303.664 293.956 303.664H246.543C241.02 303.664 236.543 299.187 236.543 293.664V94.5703C236.543 89.0475 241.02 84.5703 246.543 84.5703Z" fill="#A0DDFF"/>
<path d="M272 0V34L320 15.2817L272 0Z" fill="#FB2193"/>
<path d="M270 0H272V85H270V0Z" fill="#1D2238"/>
<path d="M143.55 137.619C143.55 137.619 145.955 136.986 147.538 141.577L141.334 138.981L143.55 137.619Z" fill="#1D2238"/>
<path d="M140.383 161.699C140.13 161.541 139.924 161.304 139.797 161.034L134.685 149.985L134.748 149.953C132.786 146.486 133.783 142.038 137.154 139.774C140.161 137.747 143.533 137.969 146.397 140.423C147.141 141.056 147.774 141.784 148.312 142.592L149.357 144.159C151.731 147.689 150.797 152.47 147.268 154.845C146.983 155.035 146.698 155.193 146.397 155.351L148.756 159.879C149.515 161.335 148.597 163.108 146.967 163.314C146.951 163.314 146.935 163.314 146.935 163.314C144.799 163.599 142.615 163.108 140.779 161.953L140.383 161.699Z" fill="#EB8B5D"/>
<path d="M146.396 155.336C146.396 155.336 143.896 156.492 142.297 156.175C142.297 156.175 143.69 157.362 146.935 156.381L146.396 155.336Z" fill="#1D2238"/>
<path d="M130.362 141.198C130.362 141.198 127.861 141.689 126.278 146.122C126.278 146.122 126.737 140.628 130.33 139.71C130.694 135.642 134.667 132.713 137.089 132.285C139.906 131.779 140.064 129.515 140.064 129.515C141.014 130.417 140.76 131.826 140.76 131.826C142.011 131.668 142.201 128.66 142.201 128.66C144.147 129.61 143.799 131.779 143.799 131.779C144.923 131.272 144.622 129.373 144.622 129.373C149.687 133.552 144.464 139.346 144.464 139.346C142.406 141.8 135.427 143.066 135.427 143.066C135.427 143.066 137.215 145.108 137.073 146.581C136.978 147.562 136.234 149.367 136.234 149.367L135.917 152.644L136.804 154.559C136.804 154.559 132.514 153.958 128.779 148.275C127.165 145.821 128.352 142.196 130.362 141.198Z" fill="#1D2238"/>
<path d="M134.337 151.693C134.923 152.564 135.967 152.881 136.664 152.406C137.36 151.931 137.455 150.854 136.885 149.984C136.3 149.113 135.255 148.796 134.559 149.271C133.847 149.746 133.752 150.839 134.337 151.693Z" fill="#EB8B5D"/>
<path d="M136.06 149.89C135.949 149.748 135.775 149.637 135.569 149.59C135.364 149.558 135.126 149.59 134.92 149.716C134.873 149.748 134.825 149.78 134.778 149.827C134.73 149.875 134.699 149.906 134.667 149.969C134.604 150.064 134.541 150.175 134.509 150.286C134.446 150.508 134.446 150.745 134.493 150.951C134.525 151.062 134.556 151.157 134.604 151.252C134.636 151.299 134.651 151.347 134.683 151.394C134.715 151.442 134.73 151.473 134.778 151.537C134.825 151.584 134.889 151.648 134.984 151.695C135.079 151.743 135.237 151.758 135.348 151.711C135.553 151.632 135.601 151.521 135.664 151.442C135.886 151.109 135.933 150.793 136.107 150.492V150.476C136.107 150.46 136.107 150.46 136.107 150.444H136.092C135.949 150.539 135.838 150.682 135.743 150.824C135.648 150.967 135.553 151.109 135.443 151.236C135.395 151.299 135.332 151.363 135.253 151.378C135.189 151.394 135.11 151.363 135.079 151.299C134.984 151.173 134.92 151.014 134.889 150.856C134.81 150.539 134.889 150.175 135.142 149.954C135.269 149.843 135.427 149.795 135.601 149.795C135.759 149.795 135.933 149.843 136.076 149.922C136.092 149.922 136.092 149.922 136.107 149.922C136.076 149.906 136.076 149.906 136.06 149.89Z" fill="#1D2238"/>
<path d="M143.783 143.604C143.894 143.81 144.005 144 144.131 144.19C144.195 144.285 144.258 144.38 144.321 144.475C144.385 144.57 144.448 144.665 144.527 144.744C144.67 144.918 144.796 145.092 144.955 145.266L145.176 145.52L145.398 145.757L145.651 146.026L145.936 145.757C146.031 145.662 146.142 145.567 146.237 145.456L146.363 145.33C146.395 145.314 146.411 145.282 146.442 145.282C146.506 145.25 146.569 145.235 146.648 145.25C146.727 145.25 146.791 145.282 146.854 145.33C146.98 145.425 147.075 145.599 147.044 145.805C147.028 145.852 147.012 145.9 146.996 145.963C146.98 146.01 146.933 146.074 146.885 146.137C146.806 146.264 146.727 146.39 146.664 146.517C146.664 146.533 146.664 146.533 146.68 146.549C146.696 146.549 146.696 146.549 146.711 146.549L147.012 146.248C147.06 146.2 147.107 146.153 147.17 146.09C147.218 146.026 147.25 145.963 147.281 145.9C147.408 145.63 147.344 145.282 147.123 145.076C146.917 144.855 146.585 144.791 146.3 144.902C146.237 144.934 146.173 144.966 146.11 145.013C146.047 145.061 145.999 145.108 145.952 145.155L145.651 145.456H145.714L143.831 143.572C143.815 143.557 143.815 143.557 143.799 143.572C143.783 143.588 143.783 143.604 143.783 143.604Z" fill="#1D2238"/>
<path d="M140.319 144.878C140.477 145.037 140.968 144.815 141.427 144.372C141.886 143.929 142.123 143.438 141.965 143.28C141.806 143.121 141.316 143.343 140.857 143.786C140.398 144.214 140.16 144.704 140.319 144.878Z" fill="#1D2238"/>
<path d="M143.801 141.993C143.896 142.199 144.434 142.151 145.019 141.898C145.605 141.644 145.985 141.249 145.89 141.043C145.795 140.837 145.257 140.885 144.671 141.138C144.101 141.407 143.706 141.787 143.801 141.993Z" fill="#1D2238"/>
<path d="M142.22 145.573C141.937 145.518 141.753 145.243 141.808 144.96C141.863 144.677 142.138 144.492 142.421 144.548C142.704 144.603 142.889 144.878 142.833 145.161C142.778 145.444 142.503 145.629 142.22 145.573Z" fill="#1D2238"/>
<path d="M145.429 142.944C145.587 143.182 145.92 143.245 146.157 143.087C146.395 142.928 146.458 142.596 146.3 142.358C146.141 142.121 145.809 142.058 145.572 142.216C145.334 142.39 145.271 142.707 145.429 142.944Z" fill="#1D2238"/>
<path d="M149.405 147.882C149.405 147.882 147.11 146.283 144.435 149.639C144.435 149.639 146.635 145.064 149.405 147.882Z" fill="white"/>
<path d="M144.181 148.881C144.197 149.023 144.213 149.15 144.245 149.277C144.276 149.403 144.292 149.514 144.324 149.641L144.419 150.005C144.45 150.131 144.482 150.242 144.53 150.385C144.688 150.131 144.688 149.831 144.625 149.577C144.593 149.451 144.545 149.308 144.466 149.197C144.403 149.071 144.308 148.96 144.181 148.881Z" fill="#1D2238"/>
<path d="M189.448 138.962L193.373 135.622L201.872 131.822L201.35 135.384L194.956 138.645L191.838 140.957L189.448 138.962Z" fill="#1D2238"/>
<path d="M147.094 156.949C147.094 156.949 152.048 156.3 162.937 166.986C173.827 177.672 173.938 189.766 173.938 189.766L162.779 195.038L147.094 156.949Z" fill="#1D2238"/>
<path d="M149.153 157.424L168.446 155.334L189.449 138.965L171.453 159.26H149.675L149.153 157.424Z" fill="#008BED"/>
<path d="M205.401 259.931L204.419 258.047L212.238 253.979L212.903 255.245L224.457 254.39C226.182 254.263 227.828 255.182 228.604 256.733L208.107 267.482L205.401 259.931Z" fill="#FF725E"/>
<path d="M207.395 266.138C209.136 265.347 210.846 264.508 212.555 263.653C213.41 263.225 214.264 262.798 215.103 262.37L217.636 261.056L220.168 259.711C221.007 259.252 221.846 258.808 222.684 258.349C224.362 257.431 226.024 256.497 227.654 255.516C225.913 256.307 224.204 257.146 222.495 258.001C221.64 258.428 220.785 258.856 219.946 259.299L217.414 260.613L214.882 261.959C214.043 262.418 213.204 262.861 212.365 263.32C210.687 264.223 209.025 265.157 207.395 266.138Z" fill="#1D2238"/>
<path d="M208.249 261.787C207.709 260.757 208.107 259.484 209.137 258.944C210.166 258.405 211.439 258.802 211.978 259.832C212.518 260.862 212.12 262.135 211.09 262.674C210.061 263.214 208.788 262.817 208.249 261.787Z" fill="#1D2238"/>
<path d="M222.797 254.328C222.496 254.36 222.275 254.471 222.069 254.629C221.863 254.787 221.705 254.977 221.578 255.199C221.452 255.42 221.372 255.674 221.357 255.943C221.341 256.212 221.388 256.481 221.562 256.719H221.61C221.626 256.608 221.626 256.497 221.657 256.386C221.673 256.339 221.673 256.275 221.689 256.228L221.736 256.07C221.816 255.864 221.895 255.658 222.006 255.452C222.116 255.262 222.227 255.072 222.37 254.882C222.433 254.787 222.512 254.708 222.575 254.613C222.654 254.518 222.718 254.439 222.797 254.36V254.328Z" fill="#1D2238"/>
<path d="M219.855 254.566C219.555 254.598 219.333 254.709 219.127 254.867C218.922 255.026 218.763 255.215 218.637 255.437C218.51 255.659 218.431 255.912 218.415 256.181C218.399 256.45 218.447 256.719 218.621 256.957H218.668C218.684 256.846 218.684 256.735 218.716 256.624C218.732 256.577 218.732 256.514 218.748 256.466L218.795 256.308C218.874 256.102 218.953 255.896 219.064 255.69C219.175 255.5 219.286 255.31 219.428 255.12C219.491 255.026 219.571 254.946 219.634 254.851C219.713 254.756 219.776 254.677 219.855 254.598V254.566Z" fill="#1D2238"/>
<path d="M217.146 254.805C216.846 254.836 216.624 254.947 216.418 255.105C216.213 255.264 216.054 255.454 215.928 255.675C215.801 255.897 215.722 256.15 215.706 256.419C215.69 256.689 215.738 256.958 215.912 257.195H215.959C215.975 257.084 215.975 256.974 216.007 256.863C216.023 256.815 216.023 256.752 216.039 256.704L216.086 256.546C216.165 256.34 216.244 256.134 216.355 255.929C216.466 255.739 216.577 255.549 216.719 255.359C216.782 255.264 216.862 255.185 216.925 255.09C217.004 254.995 217.067 254.915 217.146 254.836V254.805Z" fill="#1D2238"/>
<path d="M228.561 180.51L226.297 180.573L226.202 171.692H227.864L232.454 161.054C233.135 159.455 234.718 158.442 236.459 158.473L236.49 181.634L228.561 180.51Z" fill="#FF725E"/>
<path d="M234.973 181.62C235.083 179.72 235.131 177.805 235.162 175.905C235.178 174.955 235.194 174.005 235.194 173.04L235.21 170.174L235.194 167.309C235.178 166.359 235.178 165.409 235.147 164.443C235.099 162.544 235.052 160.628 234.941 158.729C234.83 160.628 234.783 162.544 234.751 164.443C234.735 165.393 234.719 166.343 234.719 167.309L234.703 170.174L234.719 173.04C234.735 173.989 234.735 174.939 234.767 175.905C234.814 177.805 234.862 179.72 234.973 181.62Z" fill="#1D2238"/>
<path d="M231.537 178.848C232.692 178.848 233.642 177.898 233.642 176.742C233.642 175.587 232.692 174.637 231.537 174.637C230.381 174.637 229.432 175.587 229.432 176.742C229.432 177.914 230.381 178.848 231.537 178.848Z" fill="#1D2238"/>
<path d="M231.649 162.494C231.538 162.763 231.538 163.033 231.57 163.286C231.617 163.539 231.712 163.777 231.854 163.982C231.997 164.188 232.187 164.378 232.408 164.521C232.63 164.663 232.899 164.742 233.2 164.695L233.231 164.647C233.136 164.584 233.042 164.521 232.962 164.442C232.915 164.41 232.867 164.378 232.836 164.331L232.709 164.22C232.551 164.062 232.408 163.887 232.298 163.698C232.171 163.508 232.06 163.318 231.965 163.112C231.918 163.017 231.87 162.906 231.839 162.795C231.791 162.684 231.76 162.589 231.728 162.479L231.649 162.494Z" fill="#1D2238"/>
<path d="M230.496 165.221C230.386 165.49 230.386 165.759 230.417 166.012C230.465 166.266 230.56 166.503 230.702 166.709C230.845 166.915 231.035 167.105 231.256 167.247C231.478 167.39 231.747 167.469 232.047 167.421L232.079 167.374C231.984 167.311 231.889 167.247 231.81 167.168C231.763 167.137 231.715 167.105 231.683 167.057L231.557 166.947C231.399 166.788 231.256 166.614 231.145 166.424C231.019 166.234 230.908 166.044 230.813 165.838C230.765 165.743 230.718 165.633 230.686 165.522C230.639 165.411 230.607 165.316 230.576 165.205L230.496 165.221Z" fill="#1D2238"/>
<path d="M229.447 167.731C229.337 168 229.337 168.269 229.368 168.522C229.416 168.776 229.511 169.013 229.653 169.219C229.796 169.425 229.986 169.615 230.207 169.757C230.429 169.899 230.698 169.979 230.999 169.931L231.03 169.884C230.935 169.82 230.84 169.757 230.761 169.678C230.714 169.646 230.666 169.615 230.635 169.567L230.508 169.456C230.35 169.298 230.207 169.124 230.096 168.934C229.97 168.744 229.859 168.554 229.764 168.348C229.717 168.253 229.669 168.142 229.637 168.031C229.59 167.921 229.558 167.826 229.527 167.715L229.447 167.731Z" fill="#1D2238"/>
<path d="M190.586 191.053L226.419 183.834L226.134 168.826L181.517 174.24C180.346 174.414 165.072 181.807 155.892 186.303C149.878 189.248 146.95 196.245 149.229 202.53C150.764 206.741 154.468 210.113 162.714 209.005C170.216 208.008 190.586 191.053 190.586 191.053Z" fill="#1D2238"/>
<path d="M179.269 229.599L201.142 262.305L214.374 252.617L191.092 214.623C190.475 213.61 177.623 202.544 169.852 195.895C164.771 191.541 157.19 191.621 152.331 196.227C149.07 199.314 147.456 204.048 151.745 211.172C155.639 217.631 179.269 229.599 179.269 229.599Z" fill="#1D2238"/>
<path d="M138.738 158.329C141.271 175.458 146.969 193.03 148.488 206.755C158.934 208.591 165.313 196.307 169.697 187.79C169.776 187.647 169.507 186.096 165.028 176.977C160.533 167.811 154.36 158.55 147.095 156.936C144.31 157.426 141.524 157.87 138.738 158.329Z" fill="white"/>
<path d="M138.737 158.326C137.914 159.703 137.439 161.239 137.217 162.838C136.964 164.722 134.447 169.52 137.217 178.826L148.249 212.325C152.301 213.037 156.479 212.151 159.866 209.808C164.741 206.404 168.603 201.623 169.869 195.877C169.853 195.893 156.606 157.788 138.737 158.326Z" fill="#008BED"/>
<path d="M156.434 199.011L163.619 191.744L162.321 188.42L154.835 195.575L156.434 199.011ZM163.429 191.713L156.481 198.742L155.025 195.623L162.258 188.721L163.429 191.713Z" fill="#1D2238"/>
<path d="M176.608 201.688C176.213 201.198 175.785 200.754 175.342 200.311C174.899 199.884 174.44 199.472 173.965 199.076C173.49 198.68 173 198.301 172.493 197.952C171.987 197.604 171.464 197.256 170.911 196.971C171.306 197.461 171.734 197.905 172.177 198.348C172.62 198.775 173.079 199.187 173.554 199.583C174.029 199.979 174.519 200.359 175.026 200.707C175.516 201.055 176.039 201.387 176.608 201.688Z" fill="#008BED"/>
<path d="M56.2923 257.11C68.9226 255.86 80.714 253.533 91.3341 250.192C103.141 246.472 113.999 241.343 123.574 234.963C132.501 229.011 140.985 221.824 148.787 213.607C156.179 205.819 163.016 197.048 169.11 187.534C180.316 170.025 191.949 149.888 199.736 136.084C204.896 126.918 212.497 118.866 218.005 110.27C225.112 99.1568 233.907 90.2205 240.158 78.0783L274.125 66.0821L273.888 65.3223L239.604 77.4292L239.525 77.5717C233.273 89.7298 224.285 99.1251 217.163 110.27C211.655 118.866 204.231 126.506 199.055 135.688C191.284 149.477 179.651 169.598 168.445 187.091C162.383 196.558 155.577 205.296 148.218 213.037C140.462 221.206 132.026 228.362 123.131 234.282C113.603 240.631 102.825 245.728 91.0967 249.417C80.524 252.741 68.7801 255.068 56.2132 256.303L56.2923 257.11Z" fill="#1D2238"/>
<path d="M272.687 65.2116C272.877 65.2116 273.067 65.2116 273.257 65.1958C273.431 65.1799 273.558 65.0375 273.558 64.8633C273.542 64.6892 273.399 64.5467 273.225 64.5625C272.418 64.61 271.611 64.5467 270.804 64.3567C270.63 64.3092 270.455 64.4201 270.424 64.5942C270.376 64.7683 270.487 64.9425 270.661 64.9741C271.326 65.1325 272.007 65.2116 272.687 65.2116Z" fill="#1D2238"/>
<path d="M272.1 66.3643C272.543 66.3643 272.987 66.2693 273.398 66.1743C273.572 66.1426 273.683 65.9685 273.635 65.7944C273.604 65.6202 273.43 65.5094 273.256 65.5569C272.812 65.6519 272.353 65.7627 271.926 65.731C271.467 65.6994 271.087 65.4936 270.802 65.1611C270.692 65.0345 270.486 65.0028 270.359 65.1295C270.233 65.2403 270.201 65.4461 270.328 65.5727C270.723 66.0476 271.261 66.3168 271.894 66.3801C271.942 66.3643 272.021 66.3643 272.1 66.3643Z" fill="#1D2238"/>
<path d="M272.513 67.6496C272.829 67.6496 273.114 67.5387 273.367 67.4438C273.526 67.3804 273.621 67.1905 273.557 67.0322C273.494 66.8738 273.304 66.7789 273.146 66.8422C272.924 66.9213 272.687 67.0163 272.481 67.0163C271.959 67.0005 271.421 66.3356 271.025 65.8448C270.914 65.7023 270.708 65.6865 270.582 65.7973C270.439 65.9081 270.424 66.114 270.534 66.2406C271.009 66.8264 271.658 67.6179 272.465 67.6496C272.481 67.6496 272.497 67.6496 272.513 67.6496Z" fill="#1D2238"/>
<path d="M138.735 158.328L171.45 159.246L189.446 138.951L197.502 144.777L183.168 162.43C181.285 165.533 179.405 168.507 176.081 169.964C174.023 170.866 172.127 172.543 169.88 172.623L142.09 175.853C142.09 175.853 134.683 165.088 138.735 158.328Z" fill="#008BED"/>
<path d="M190.524 139.726L193.373 136.417L198.913 135.673L202.268 131.066C202.268 131.066 203.487 133.995 203.503 134.011C204.136 135.515 203.883 137.32 203.518 138.855C203.329 139.663 202.996 140.549 202.442 141.182C201.872 141.816 200.939 142.1 200.195 142.465C199.039 143.035 197.868 143.573 196.713 144.127C196.697 144.127 196.681 144.143 196.665 144.143L190.524 139.726Z" fill="#EB8B5D"/>
<path d="M193.373 136.415C193.61 135.94 194.18 135.481 194.512 135.069C194.908 134.595 195.304 134.12 195.699 133.661C196.095 133.186 196.491 132.711 196.902 132.252C197.171 131.935 197.63 130.858 198.168 131.238C198.311 131.333 198.406 131.508 198.469 131.682C198.912 132.774 199.039 133.866 198.532 134.99L197.203 137.935L193.373 136.415Z" fill="#EB8B5D"/>
<path d="M203.312 133.555C203.217 133.729 203.137 133.887 203.058 134.061C202.979 134.235 202.916 134.41 202.837 134.584C202.71 134.932 202.568 135.28 202.457 135.644L202.504 135.565C202.124 135.977 201.76 136.404 201.412 136.848C201.238 137.069 201.064 137.291 200.906 137.528C200.747 137.766 200.589 138.003 200.447 138.256C200.684 138.082 200.89 137.892 201.112 137.702C201.317 137.512 201.523 137.307 201.729 137.117C202.124 136.721 202.504 136.293 202.868 135.866L202.9 135.818L202.916 135.771C203.011 135.407 203.09 135.043 203.169 134.679C203.201 134.489 203.232 134.315 203.264 134.125C203.264 133.935 203.296 133.745 203.312 133.555Z" fill="#1D2238"/>
<path d="M203.887 136.812C203.792 136.987 203.713 137.145 203.633 137.319C203.554 137.493 203.491 137.667 203.412 137.842C203.285 138.19 203.143 138.538 203.032 138.902L203.08 138.823C202.7 139.235 202.336 139.662 201.987 140.105C201.813 140.327 201.639 140.549 201.481 140.786C201.323 141.024 201.164 141.261 201.022 141.514C201.259 141.34 201.465 141.15 201.687 140.96C201.892 140.77 202.098 140.564 202.304 140.374C202.7 139.979 203.08 139.551 203.444 139.124L203.475 139.076L203.491 139.029C203.586 138.665 203.665 138.301 203.744 137.936C203.776 137.747 203.808 137.572 203.839 137.382C203.855 137.192 203.871 137.002 203.887 136.812Z" fill="#1D2238"/>
<path d="M156.526 175.346C155.387 175.219 154.247 175.14 153.108 175.093C152.538 175.061 151.968 175.061 151.398 175.045L149.689 175.029L147.98 175.045C147.41 175.061 146.84 175.061 146.27 175.093C145.131 175.14 143.991 175.203 142.852 175.346C143.991 175.473 145.131 175.552 146.27 175.599C146.84 175.631 147.41 175.631 147.98 175.647L149.689 175.663L151.398 175.647C151.968 175.631 152.538 175.631 153.108 175.599C154.247 175.536 155.387 175.473 156.526 175.346Z" fill="#1D2238"/>
</svg>
