<svg width="31" height="30" viewBox="0 0 31 30" fill="none" xmlns="http://www.w3.org/2000/svg">
<rect width="31" height="30" rx="6" fill="#03D670"/>
<path d="M23.625 6.75H7.375C6.32031 6.75 5.5 7.60938 5.5 8.625V22.375C5.5 23.4297 6.32031 24.25 7.375 24.25H23.625C24.6406 24.25 25.5 23.4297 25.5 22.375V8.625C25.5 7.60938 24.6406 6.75 23.625 6.75ZM20.3438 18.1172C20.5391 18.3125 20.5391 18.625 20.3438 18.7812L18.7422 20.3828C18.5859 20.5781 18.2734 20.5781 18.0781 20.3828L15.5 17.7656L12.8828 20.3828C12.6875 20.5781 12.375 20.5781 12.2188 20.3828L10.6172 18.7812C10.4219 18.625 10.4219 18.3125 10.6172 18.1172L13.2344 15.5L10.6172 12.9219C10.4219 12.7266 10.4219 12.4141 10.6172 12.2578L12.2188 10.6562C12.375 10.4609 12.6875 10.4609 12.8828 10.6562L15.5 13.2734L18.0781 10.6562C18.2734 10.4609 18.5859 10.4609 18.7422 10.6562L20.3438 12.2578C20.5391 12.4141 20.5391 12.7266 20.3438 12.9219L17.7266 15.5L20.3438 18.1172Z" fill="white"/>
</svg>
