<svg width="32" height="32" viewBox="0 0 32 32" fill="none" xmlns="http://www.w3.org/2000/svg">
<rect width="32" height="32" rx="6" fill="#F9B301"/>
<path d="M16 7.75C10.4531 7.75 6 11.4219 6 15.875C6 17.8281 6.82031 19.5859 8.22656 20.9922C7.71875 22.9844 6.07812 24.7031 6.07812 24.7422C6 24.8203 5.96094 24.9766 6 25.0938C6.07812 25.2109 6.15625 25.25 6.3125 25.25C8.89062 25.25 10.8438 24.0391 11.7812 23.2578C13.0703 23.7266 14.4766 24 16 24C21.5078 24 26 20.3672 26 15.875C26 11.4219 21.5078 7.75 16 7.75ZM17.25 18.0625C17.25 18.2578 17.0938 18.375 16.9375 18.375H11.3125C11.1172 18.375 11 18.2578 11 18.0625V17.4375C11 17.2812 11.1172 17.125 11.3125 17.125H16.9375C17.0938 17.125 17.25 17.2812 17.25 17.4375V18.0625ZM21 14.3125C21 14.5078 20.8438 14.625 20.6875 14.625H11.3125C11.1172 14.625 11 14.5078 11 14.3125V13.6875C11 13.5312 11.1172 13.375 11.3125 13.375H20.6875C20.8438 13.375 21 13.5312 21 13.6875V14.3125Z" fill="white"/>
</svg>
