<svg width="31" height="30" viewBox="0 0 31 30" fill="none" xmlns="http://www.w3.org/2000/svg">
<rect width="31" height="30" rx="6" fill="#FB2193"/>
<path d="M23.625 6.75H18.9375L18.5469 6.04688C18.3906 5.73438 18.0391 5.5 17.7266 5.5H13.2344C12.9219 5.5 12.5312 5.73438 12.4141 6.04688L12.0625 6.75H7.375C7.02344 6.75 6.75 7.0625 6.75 7.375V8.625C6.75 8.97656 7.02344 9.25 7.375 9.25H23.625C23.9375 9.25 24.25 8.97656 24.25 8.625V7.375C24.25 7.0625 23.9375 6.75 23.625 6.75ZM8.82031 23.7422C8.85938 24.7188 9.71875 25.5 10.6953 25.5H20.2656C21.2422 25.5 22.1016 24.7188 22.1406 23.7422L23 10.5H8L8.82031 23.7422Z" fill="white"/>
</svg>
