<svg width="31" height="30" viewBox="0 0 31 30" fill="none" xmlns="http://www.w3.org/2000/svg">
<rect width="31" height="30" rx="6" fill="#00B1FF"/>
<path d="M24.9141 16.1641C25.2656 15.8125 25.2656 15.2266 24.9141 14.8359L18.3516 8.27344C17.7266 7.6875 16.75 8.11719 16.75 8.9375V12.6875H11.4375C10.8906 12.6875 10.5 13.1172 10.5 13.625V17.375C10.5 17.9219 10.8906 18.3125 11.4375 18.3125H16.75V22.0625C16.75 22.9219 17.7656 23.3125 18.3516 22.7266L24.9141 16.1641ZM13 22.5312V20.9688C13 20.7344 12.7656 20.5 12.5312 20.5H9.25C8.54688 20.5 8 19.9531 8 19.25V11.75C8 11.0859 8.54688 10.5 9.25 10.5H12.5312C12.7656 10.5 13 10.3047 13 10.0312V8.46875C13 8.23438 12.7656 8 12.5312 8H9.25C7.17969 8 5.5 9.67969 5.5 11.75V19.25C5.5 21.3203 7.17969 23 9.25 23H12.5312C12.7656 23 13 22.8047 13 22.5312Z" fill="white"/>
</svg>
