<svg width="31" height="30" viewBox="0 0 31 30" fill="none" xmlns="http://www.w3.org/2000/svg">
<rect width="31" height="30" rx="6" fill="#03D670"/>
<path d="M25.1094 12.9609C24.2109 13.6641 23.0781 14.5234 19.0938 17.4141C18.3125 18 16.8672 19.2891 15.5 19.2891C14.0938 19.2891 12.6875 18 11.8672 17.4141C7.88281 14.5234 6.75 13.6641 5.85156 12.9609C5.69531 12.8438 5.5 12.9609 5.5 13.1562V21.125C5.5 22.1797 6.32031 23 7.375 23H23.625C24.6406 23 25.5 22.1797 25.5 21.125V13.1562C25.5 12.9609 25.2656 12.8438 25.1094 12.9609ZM15.5 18C16.3984 18.0391 17.6875 16.8672 18.3516 16.3984C23.5469 12.6484 23.9375 12.2969 25.1094 11.3594C25.3438 11.2031 25.5 10.9297 25.5 10.6172V9.875C25.5 8.85938 24.6406 8 23.625 8H7.375C6.32031 8 5.5 8.85938 5.5 9.875V10.6172C5.5 10.9297 5.61719 11.2031 5.85156 11.3594C7.02344 12.2969 7.41406 12.6484 12.6094 16.3984C13.2734 16.8672 14.5625 18.0391 15.5 18Z" fill="white"/>
</svg>
