<svg width="31" height="30" viewBox="0 0 31 30" fill="none" xmlns="http://www.w3.org/2000/svg">
<rect width="31" height="30" rx="6" fill="#00B1FF"/>
<path d="M22.375 14.25H21.4375V11.4375C21.4375 8.19531 18.7422 5.5 15.5 5.5C12.2188 5.5 9.5625 8.19531 9.5625 11.4375V14.25H8.625C7.57031 14.25 6.75 15.1094 6.75 16.125V23.625C6.75 24.6797 7.57031 25.5 8.625 25.5H22.375C23.3906 25.5 24.25 24.6797 24.25 23.625V16.125C24.25 15.1094 23.3906 14.25 22.375 14.25ZM18.3125 14.25H12.6875V11.4375C12.6875 9.91406 13.9375 8.625 15.5 8.625C17.0234 8.625 18.3125 9.91406 18.3125 11.4375V14.25Z" fill="white"/>
</svg>
