<svg width="31" height="30" viewBox="0 0 31 30" fill="none" xmlns="http://www.w3.org/2000/svg">
<rect width="31" height="30" rx="6" fill="#FB2193"/>
<path d="M19.1328 9.36719C17.0234 9.36719 15.3047 8 12.6875 8C11.7109 8 10.8516 8.19531 10.0312 8.50781C10.1094 8.27344 10.1875 7.92188 10.1875 7.72656C10.1875 7.6875 10.1484 7.60938 10.1484 7.57031C10.1094 6.47656 9.17188 5.57812 8.07812 5.53906C6.82812 5.46094 5.8125 6.47656 5.8125 7.6875C5.8125 8.46875 6.16406 9.09375 6.75 9.48438V24.5625C6.75 25.1094 7.14062 25.5 7.6875 25.5H8.3125C8.82031 25.5 9.25 25.1094 9.25 24.5625V20.8906C10.3438 20.4219 11.7109 20.0312 13.7031 20.0312C15.8125 20.0312 17.5312 21.3984 20.1484 21.3984C22.0234 21.3984 23.5469 20.7344 24.9531 19.7969C25.2656 19.5625 25.5 19.1719 25.5 18.7812V9.25C25.5 8.35156 24.5234 7.76562 23.7031 8.11719C22.375 8.74219 20.7344 9.36719 19.1328 9.36719Z" fill="white"/>
</svg>
