<svg xmlns="http://www.w3.org/2000/svg" width="120.696" height="124" viewBox="0 0 120.696 124">
  <g id="value-icon3" transform="translate(-1008.001 -3401.784)">
    <path id="Path_23365" data-name="Path 23365" d="M43.985,36.765C7.068,64.83,26.1,124.515,54.023,135.855c29.543,11.973,69.124,4.051,82.247-25.7C165.185,42.763,110.886-14.108,43.985,36.765Z" transform="translate(984.474 3384.577)" fill="#ffc800" opacity="0.1"/>
    <g id="heart_3_" data-name="heart (3)" transform="translate(1039.842 3432.532)">
      <path id="Path_23384" data-name="Path 23384" d="M60.555,36.383a5.114,5.114,0,0,0-6.615-.8L40.657,44.388a12.92,12.92,0,0,1-2.79,1.4A4.892,4.892,0,0,0,35.856,39.9L25.728,33.658a16.171,16.171,0,0,0-15.552-.817L.79,37.348a1.209,1.209,0,1,0,1.047,2.18l9.386-4.507a13.762,13.762,0,0,1,13.235.7l10.129,6.246a2.47,2.47,0,0,1-2.416,4.3L21.924,41.058a1.209,1.209,0,0,0-1.1,2.156l10.247,5.209a4.9,4.9,0,0,0,2.225.537c.07,0,.139,0,.209-.007h.018A15.274,15.274,0,0,0,41.994,46.4L55.277,37.6a2.717,2.717,0,0,1,3.063,4.488l-3.565,2.5a1.209,1.209,0,1,0,1.39,1.979l3.565-2.5a5.136,5.136,0,0,0,.825-7.681Zm0,0" transform="translate(-0.003 -1.08)" fill="#222"/>
      <path id="Path_23385" data-name="Path 23385" d="M53.211,47.686a1.21,1.21,0,1,0,.854.354A1.218,1.218,0,0,0,53.211,47.686Zm0,0" transform="translate(-1.698 -1.618)" fill="#222"/>
      <path id="Path_23386" data-name="Path 23386" d="M46.855,50.74l-1.4.986A20.841,20.841,0,0,1,26.187,54.2L13.026,49.3a1.208,1.208,0,0,0-1.061.107l-11.4,7.1a1.209,1.209,0,1,0,1.279,2.052l10.89-6.787,12.6,4.7a23.254,23.254,0,0,0,21.5-2.764l1.4-.985a1.209,1.209,0,0,0-1.391-1.979Zm0,0" transform="translate(0 -1.668)" fill="#222"/>
      <path id="Path_24234" data-name="Path 24234" d="M20.208,18.808c.525-.412-1.859-.271-1.346.157,2.82,2.359,11.807,10.583,11.9,10.649a1.21,1.21,0,0,0,1.361,0,73.739,73.739,0,0,0,7.719-6.194c5.286-4.89,7.967-9.11,7.967-12.543,0-5.963-4.481-10.815-9.988-10.815a9.58,9.58,0,0,0-6.378,2.492A9.58,9.58,0,0,0,25.07.062c-5.508,0-9.988,4.851-9.988,10.815,0,2.225,1.154,4.824,3.429,7.726a1.209,1.209,0,0,0,1.7.2Zm0,0" transform="translate(-0.493 -0.062)" fill="#ffc800"/>
      <path id="Path_23387" data-name="Path 23387" d="M20.208,18.808a1.209,1.209,0,0,0,.2-1.7c-1.906-2.431-2.914-4.586-2.914-6.233,0-4.63,3.4-8.4,7.571-8.4a7.171,7.171,0,0,1,5.463,2.587,1.209,1.209,0,0,0,1.829,0,7.174,7.174,0,0,1,5.464-2.587c4.174,0,7.57,3.766,7.57,8.4,0,5.276-9.49,13.1-13.943,16.261-.879-.631-9.2-8.49-11.039-10.028a1.209,1.209,0,1,0-1.551,1.855c2.82,2.359,11.807,10.583,11.9,10.649a1.21,1.21,0,0,0,1.361,0,73.739,73.739,0,0,0,7.719-6.194c5.286-4.89,7.967-9.11,7.967-12.543,0-5.963-4.481-10.815-9.988-10.815a9.58,9.58,0,0,0-6.378,2.492A9.58,9.58,0,0,0,25.07.062c-5.508,0-9.988,4.851-9.988,10.815,0,2.225,1.154,4.824,3.429,7.726a1.209,1.209,0,0,0,1.7.2Zm0,0" transform="translate(-0.493 -0.062)" fill="#222"/>
      <path id="Union_27" data-name="Union 27" d="M4.838,10.884V9.212a1.209,1.209,0,0,1,2.417,0v1.672a1.209,1.209,0,0,1-2.417,0ZM9.212,7.255a1.209,1.209,0,1,1,0-2.417h1.669a1.209,1.209,0,1,1,0,2.417Zm-8,0a1.209,1.209,0,0,1,0-2.417H2.88a1.209,1.209,0,1,1,0,2.417ZM4.838,2.881V1.209a1.209,1.209,0,0,1,2.417,0V2.878a1.209,1.209,0,1,1-2.417,0Z" transform="translate(0.268 2.433)" fill="#222"/>
      <path id="Path_23393" data-name="Path 23393" d="M55.959,22.417a1.209,1.209,0,0,0,1.209-1.209v-1.67a1.209,1.209,0,1,0-2.418,0v1.67A1.209,1.209,0,0,0,55.959,22.417Zm0,0" transform="translate(-1.788 -0.659)" fill="#222"/>
      <path id="Path_23394" data-name="Path 23394" d="M55.959,30.69a1.209,1.209,0,0,0,1.209-1.209v-1.67a1.209,1.209,0,1,0-2.418,0v1.67A1.209,1.209,0,0,0,55.959,30.69Zm0,0" transform="translate(-1.788 -0.929)" fill="#222"/>
      <path id="Path_23395" data-name="Path 23395" d="M59.233,25.747H60.9a1.209,1.209,0,1,0,0-2.418h-1.67a1.209,1.209,0,1,0,0,2.418Zm0,0" transform="translate(-1.895 -0.822)" fill="#222"/>
      <path id="Path_23396" data-name="Path 23396" d="M50.959,25.747h1.67a1.209,1.209,0,0,0,0-2.418h-1.67a1.209,1.209,0,1,0,0,2.418Zm0,0" transform="translate(-1.625 -0.822)" fill="#222"/>
    </g>
  </g>
</svg>
