<svg xmlns="http://www.w3.org/2000/svg" width="120.696" height="124" viewBox="0 0 120.696 124">
  <g id="value-icon2" transform="translate(-645.696 -3401.784)">
    <path id="Path_23365" data-name="Path 23365" d="M43.985,36.765C7.068,64.83,26.1,124.515,54.023,135.855c29.543,11.973,69.124,4.051,82.247-25.7C165.185,42.763,110.886-14.108,43.985,36.765Z" transform="translate(622.168 3384.577)" fill="#00a0ff" opacity="0.1"/>
    <g id="XMLID_806_" transform="translate(669.852 3428.041)">
      <g id="XMLID_386_">
        <path id="Union_39" data-name="Union 39" d="M3,11V6h8v5ZM0,5V0H14V5Z" transform="translate(33.148 1.959)" fill="#00a0ff"/>
        <path id="XMLID_389_" d="M65.236,35.673A25.767,25.767,0,0,0,45.2,13.079V9.835a4.34,4.34,0,0,0-1.048-8.552H34.96a4.34,4.34,0,0,0-1.048,8.552v3.253A25.633,25.633,0,0,0,21.341,20a25.911,25.911,0,0,0-2.168,2.46c-.032,0-.064,0-.1,0h-9.1a1.277,1.277,0,1,0,0,2.553h7.457a25.592,25.592,0,0,0-2.265,4.907H1.277a1.277,1.277,0,1,0,0,2.553H14.449a25.957,25.957,0,0,0-.634,4.907H8.17a1.277,1.277,0,1,0,0,2.553h5.686a25.919,25.919,0,0,0,.8,4.907H6.383a1.277,1.277,0,0,0,0,2.553h9.085A25.784,25.784,0,0,0,37.026,63.9q1.265.125,2.53.124a25.85,25.85,0,0,0,14.073-4.159,1.277,1.277,0,1,0-1.393-2.14,23.234,23.234,0,1,1,6.843-6.852,1.277,1.277,0,1,0,2.141,1.39A25.87,25.87,0,0,0,65.236,35.673ZM33.173,5.623A1.789,1.789,0,0,1,34.96,3.836h9.192a1.787,1.787,0,0,1,0,3.575H34.96A1.789,1.789,0,0,1,33.173,5.623Zm3.293,7.026V9.964h6.18v2.681A26.012,26.012,0,0,0,36.465,12.649Z" transform="translate(0 -1.283)" fill="#222"/>
        <path id="XMLID_391_" d="M55.749,53.188a1.277,1.277,0,1,0,.9.374A1.284,1.284,0,0,0,55.749,53.188Z" transform="translate(1.159 -0.178)" fill="#222"/>
        <path id="XMLID_397_" d="M49.632,27.868l-7.459,7.459a4.668,4.668,0,0,0-4.134,0L34.7,31.988a1.506,1.506,0,0,0-2.13,2.13l3.338,3.338a4.679,4.679,0,1,0,8.394,0l7.24-7.24h0L51.762,30a1.506,1.506,0,1,0-2.13-2.13ZM40.106,41.191a1.668,1.668,0,1,1,1.668-1.668A1.67,1.67,0,0,1,40.106,41.191Z" transform="translate(-0.845 -2.004)" fill="#00a0ff"/>
        <path id="XMLID_398_" d="M52.563,36.233H51.19a1.482,1.482,0,1,0,0,2.965h1.373a1.482,1.482,0,1,0,0-2.965Z" transform="translate(2.861 -0.742)" fill="#00a0ff"/>
        <path id="XMLID_399_" d="M26.991,36.2H25.618a1.482,1.482,0,1,0,0,2.965h1.373a1.482,1.482,0,1,0,0-2.965Z" transform="translate(-1.892 -0.748)" fill="#00a0ff"/>
        <path id="XMLID_400_" d="M39,27.191a1.482,1.482,0,0,0,1.482-1.482V24.335a1.482,1.482,0,0,0-2.965,0v1.373A1.482,1.482,0,0,0,39,27.191Z" transform="translate(0.595 -3.229)" fill="#00a0ff"/>
        <path id="XMLID_424_" d="M38.968,48.425a1.482,1.482,0,0,0-1.482,1.482V51.28a1.482,1.482,0,0,0,2.965,0V49.907A1.482,1.482,0,0,0,38.968,48.425Z" transform="translate(0.589 1.524)" fill="#00a0ff"/>
        <path id="XMLID_425_" d="M1.277,43.931a1.277,1.277,0,1,0,.9,2.179,1.277,1.277,0,0,0-.9-2.179Z" transform="translate(0 -0.375)" fill="#222"/>
      </g>
    </g>
  </g>
</svg>
