<svg width="31" height="30" viewBox="0 0 31 30" fill="none" xmlns="http://www.w3.org/2000/svg">
<rect width="31" height="30" rx="6" fill="#03D670"/>
<path d="M25.5 15.5C25.5 14.0547 24.5625 12.8047 23.2344 12.2969C23.8203 11.0469 23.5859 9.48438 22.5703 8.42969C21.5156 7.41406 19.9531 7.17969 18.7031 7.76562C18.1953 6.4375 16.9453 5.5 15.5 5.5C14.0156 5.5 12.7656 6.4375 12.2578 7.76562C11.0078 7.17969 9.44531 7.41406 8.42969 8.42969C7.375 9.48438 7.14062 11.0469 7.72656 12.2969C6.39844 12.8047 5.5 14.0547 5.5 15.5C5.5 16.9844 6.39844 18.2344 7.72656 18.7422C7.14062 19.9922 7.375 21.5547 8.42969 22.5703C9.44531 23.625 11.0078 23.8594 12.2578 23.2734C12.7656 24.6016 14.0156 25.5 15.5 25.5C16.9453 25.5 18.1953 24.6016 18.7031 23.2734C19.9922 23.8594 21.5156 23.625 22.5703 22.5703C23.5859 21.5547 23.8203 19.9922 23.2344 18.7422C24.5625 18.2344 25.5 16.9844 25.5 15.5ZM19.8359 13.7812L14.7188 18.8594C14.5234 19.0547 14.25 19.0156 14.0938 18.8594L11.125 15.8906C10.9688 15.7344 10.9688 15.4609 11.125 15.2656L12.1406 14.25C12.3359 14.0938 12.6094 14.0938 12.7656 14.2891L14.4062 15.9297L18.1953 12.1797C18.3906 11.9844 18.6641 11.9844 18.8203 12.1797L19.8359 13.1953C19.9922 13.3516 19.9922 13.625 19.8359 13.7812Z" fill="white"/>
</svg>
