<svg width="31" height="30" viewBox="0 0 31 30" fill="none" xmlns="http://www.w3.org/2000/svg">
<rect width="31" height="30" rx="6" fill="#FB2193"/>
<path d="M14.25 9.25L14.875 8L16.125 7.375L14.875 6.75L14.25 5.5L13.625 6.75L12.375 7.375L13.625 8L14.25 9.25ZM8.625 11.75L9.64062 9.67969L11.75 8.625L9.64062 7.60938L8.625 5.5L7.57031 7.60938L5.5 8.625L7.57031 9.67969L8.625 11.75ZM22.375 16.75L21.3203 18.8594L19.25 19.875L21.3203 20.9297L22.375 23L23.3906 20.9297L25.5 19.875L23.3906 18.8594L22.375 16.75ZM25.1094 9.21094L21.7891 5.89062C21.5547 5.65625 21.2422 5.5 20.9297 5.5C20.5781 5.5 20.2656 5.65625 20.0312 5.89062L5.85156 20.0703C5.34375 20.5781 5.34375 21.3594 5.85156 21.8281L9.17188 25.1484C9.40625 25.3828 9.71875 25.5 10.0312 25.5C10.3828 25.5 10.6953 25.3828 10.9297 25.1484L25.1094 10.9688C25.6172 10.4609 25.6172 9.67969 25.1094 9.21094ZM19.5234 13.4688L17.5312 11.4766L20.9297 8.07812L22.9219 10.0703L19.5234 13.4688Z" fill="white"/>
</svg>
