<svg width="31" height="32" viewBox="0 0 31 32" fill="none" xmlns="http://www.w3.org/2000/svg">
<rect width="31" height="31.3953" rx="6" fill="#00B1FF"/>
<path d="M15.5 5.8125C10.1484 5.8125 5.8125 10.1875 5.8125 15.5C5.8125 20.8516 10.1484 25.1875 15.5 25.1875C20.8125 25.1875 25.1875 20.8516 25.1875 15.5C25.1875 10.1875 20.8125 5.8125 15.5 5.8125ZM15.5 10.1094C16.3984 10.1094 17.1406 10.8516 17.1406 11.75C17.1406 12.6875 16.3984 13.3906 15.5 13.3906C14.5625 13.3906 13.8594 12.6875 13.8594 11.75C13.8594 10.8516 14.5625 10.1094 15.5 10.1094ZM17.6875 20.0312C17.6875 20.3047 17.4531 20.5 17.2188 20.5H13.7812C13.5078 20.5 13.3125 20.3047 13.3125 20.0312V19.0938C13.3125 18.8594 13.5078 18.625 13.7812 18.625H14.25V16.125H13.7812C13.5078 16.125 13.3125 15.9297 13.3125 15.6562V14.7188C13.3125 14.4844 13.5078 14.25 13.7812 14.25H16.2812C16.5156 14.25 16.75 14.4844 16.75 14.7188V18.625H17.2188C17.4531 18.625 17.6875 18.8594 17.6875 19.0938V20.0312Z" fill="white"/>
</svg>
