<svg width="31" height="30" viewBox="0 0 31 30" fill="none" xmlns="http://www.w3.org/2000/svg">
<rect width="31" height="30" rx="6" fill="#00B1FF"/>
<path d="M15.5 25.5C16.8672 25.5 17.9609 24.4062 17.9609 23H13C13 24.4062 14.0938 25.5 15.5 25.5ZM23.8984 19.6797C23.1562 18.8594 21.7109 17.6484 21.7109 13.625C21.7109 10.6172 19.6016 8.19531 16.7109 7.57031V6.75C16.7109 6.08594 16.1641 5.5 15.5 5.5C14.7969 5.5 14.25 6.08594 14.25 6.75V7.57031C11.3594 8.19531 9.25 10.6172 9.25 13.625C9.25 17.6484 7.80469 18.8594 7.0625 19.6797C6.82812 19.9141 6.71094 20.2266 6.75 20.5C6.75 21.1641 7.21875 21.75 8 21.75H22.9609C23.7422 21.75 24.2109 21.1641 24.25 20.5C24.25 20.2266 24.1328 19.9141 23.8984 19.6797Z" fill="white"/>
</svg>
