<svg id="Layer_1" data-name="Layer 1" xmlns="http://www.w3.org/2000/svg" width="69.2" height="69.2" viewBox="0 0 69.2 69.2"><defs><style>.cls-1{fill:#ffebf6;}.cls-2{fill:none;stroke:#fddcee;}.cls-3{fill:#fb2193;}</style></defs><circle class="cls-1" cx="34.6" cy="34.6" r="34.6"/><circle class="cls-2" cx="34.6" cy="34.6" r="34"/><path class="cls-3" d="M51.4,39.4a2,2,0,0,0-1.8-1.9H46.3V34.1L49,31.4a1.8,1.8,0,1,0-2.6-2.6l-3.2,3.1H29.9l-3.2-3.1a1.8,1.8,0,0,0-2.6,2.6l2.8,2.7v3.4H23.6a1.8,1.8,0,0,0-1.8,1.9,1.7,1.7,0,0,0,1.8,1.8h3.3v.9a8.6,8.6,0,0,0,.7,3.6l-3.5,3.5a1.9,1.9,0,0,0,0,2.6,1.7,1.7,0,0,0,2.6,0l3.2-3.2a8.4,8.4,0,0,0,5.3,1.9V36.3a.7.7,0,0,1,.7-.6h1.4c.3,0,.7.3.7.6V50.5a8.3,8.3,0,0,0,5.2-1.9l3.2,3.2a1.7,1.7,0,0,0,2.6,0,1.9,1.9,0,0,0,0-2.6l-3.5-3.5a8.6,8.6,0,0,0,.8-3.6v-.9h3.2A1.8,1.8,0,0,0,51.4,39.4ZM36.6,22.7a6.5,6.5,0,0,0-6.4,6.5H43.1A6.5,6.5,0,0,0,36.6,22.7Z" transform="translate(-2 -2.6)"/></svg>