<svg width="42" height="34" viewBox="0 0 42 34" fill="none" xmlns="http://www.w3.org/2000/svg">
<path d="M39.7175 27.3803L37.598 27.7623C35.9615 28.053 34.4492 28.8262 33.2554 29.9828C31.8372 31.3467 30.0472 32.2607 28.1107 32.6097L21.0384 33.8845C20.5511 33.9704 20.0516 33.9578 19.5693 33.8476C19.0869 33.7373 18.6316 33.5315 18.2301 33.2424C17.8565 32.9796 17.5404 32.6436 17.3008 32.2547C17.0612 31.8659 16.9033 31.4324 16.8365 30.9806C16.7434 30.3163 16.8472 29.6393 17.1349 29.0334C16.3648 29.0267 15.6157 28.7817 14.9904 28.3321C14.6175 28.0695 14.3019 27.7338 14.0627 27.3455C13.8235 26.9572 13.6657 26.5242 13.5989 26.0731C13.5099 25.4348 13.6028 24.7843 13.867 24.1965L4.69571 25.8496C4.20694 25.9355 3.70591 25.9226 3.22222 25.8116C2.73853 25.7006 2.28199 25.4938 1.87957 25.2034C1.50625 24.9415 1.19016 24.6063 0.950586 24.2182C0.711008 23.8302 0.552954 23.3974 0.486051 22.9463C0.368124 22.0574 0.595282 21.1571 1.12081 20.4305C1.64635 19.7039 2.43031 19.2063 3.31146 19.0401L10.2668 17.7864L5.24915 16.4053C4.56329 16.4165 3.88962 16.2233 3.31391 15.8504C2.7382 15.4774 2.2865 14.9416 2.01633 14.3111C1.74615 13.6806 1.66972 12.984 1.79678 12.3099C1.92383 11.6358 2.24862 11.0148 2.72978 10.5259C3.37019 9.86377 4.24566 9.48055 5.16659 9.45923L17.9624 10.3309C18.4625 10.3247 18.9014 10.3186 19.293 10.3154L15.3373 7.16794C14.5823 6.66158 14.0258 5.9095 13.7623 5.0394C13.4988 4.1693 13.5446 3.23482 13.8919 2.39465C14.1238 1.87475 14.4667 1.41192 14.8966 1.03867C15.3264 0.665421 15.8328 0.390791 16.3801 0.234067C16.9274 0.0773425 17.5023 0.0423231 18.0646 0.131468C18.6269 0.220613 19.1628 0.431761 19.6348 0.750086L19.6254 0.763534C20.1681 1.11122 22.2962 2.55671 31.5559 8.83137C33.0185 9.83907 34.8208 10.2263 36.5682 9.90836C37.1726 9.79942 37.7956 9.93504 38.3 10.2854C38.8044 10.6357 39.149 11.1721 39.2579 11.7765L41.5856 24.6906C41.6946 25.295 41.559 25.918 41.2086 26.4224C40.8583 26.9268 40.3219 27.2714 39.7175 27.3803ZM37.7386 12.0504C37.7023 11.8489 37.5875 11.6701 37.4193 11.5533C37.2512 11.4366 37.0435 11.3913 36.8421 11.4277C34.6958 11.8191 32.4818 11.3438 30.6853 10.106L18.7608 2.02372C18.4762 1.83399 18.1537 1.70844 17.8157 1.65577C17.4777 1.6031 17.1323 1.62457 16.8034 1.71869C16.4745 1.81281 16.1701 1.97733 15.9111 2.20085C15.6522 2.42437 15.4449 2.70153 15.3038 3.01312C15.0996 3.53424 15.0828 4.11011 15.2562 4.64224C15.4297 5.17438 15.7826 5.62973 16.2547 5.93041L21.9315 10.4461C22.0283 10.5158 22.1066 10.6079 22.1598 10.7146C22.2129 10.8214 22.2392 10.9394 22.2364 11.0586C22.2332 11.1919 22.1972 11.3223 22.1317 11.4383C22.0662 11.5543 21.9731 11.6525 21.8606 11.724C21.7424 11.7956 21.6068 11.8334 21.4685 11.8331L5.18301 11.0038C4.67166 11.0165 4.18631 11.2318 3.83361 11.6023C3.65574 11.78 3.51506 11.9913 3.41977 12.2239C3.32448 12.4566 3.27649 12.7059 3.2786 12.9572C3.28271 13.2127 3.33728 13.4647 3.43918 13.699C3.54108 13.9332 3.6883 14.145 3.87236 14.3221C4.05642 14.4993 4.27369 14.6382 4.51167 14.7311C4.74965 14.8239 5.00364 14.8688 5.25902 14.8631L17.8405 16.4385C18.0312 16.4437 18.2133 16.5192 18.3515 16.6507C18.4898 16.7821 18.5745 16.9601 18.5893 17.1503C18.6041 17.3405 18.5479 17.5294 18.4316 17.6807C18.3153 17.8319 18.1472 17.9347 17.9595 17.9693L3.58545 20.5601C3.09972 20.658 2.66855 20.9349 2.37758 21.3359C2.0866 21.7369 1.9571 22.2328 2.0148 22.7249C2.05387 22.9701 2.14219 23.2048 2.27443 23.415C2.40667 23.6252 2.58009 23.8064 2.78425 23.9478C3.01812 24.1167 3.2834 24.2373 3.5645 24.3023C3.8456 24.3673 4.13686 24.3755 4.42117 24.3265L16.4236 22.1631C16.6251 22.1267 16.8328 22.1719 17.0009 22.2887C17.169 22.4055 17.2839 22.5843 17.3202 22.7858C17.3565 22.9873 17.3113 23.1949 17.1945 23.363C17.0778 23.5312 16.899 23.646 16.6975 23.6824C16.211 23.7804 15.7794 24.0581 15.4885 24.4601C15.1975 24.8621 15.0687 25.3589 15.1277 25.8516C15.1668 26.0972 15.2552 26.3323 15.3875 26.5428C15.5198 26.7533 15.6933 26.935 15.8975 27.0768C16.1313 27.2461 16.3966 27.367 16.6777 27.4323C16.9589 27.4976 17.2503 27.506 17.5347 27.457L19.6618 27.0736C19.8632 27.0373 20.0709 27.0825 20.239 27.1993C20.4071 27.3161 20.522 27.4949 20.5583 27.6964C20.5946 27.8978 20.5494 28.1055 20.4326 28.2736C20.3159 28.4418 20.1371 28.5566 19.9356 28.5929C19.4492 28.691 19.0175 28.9686 18.7266 29.3706C18.4356 29.7727 18.3068 30.2695 18.3658 30.7622C18.4044 31.0083 18.4925 31.244 18.6249 31.455C18.7574 31.666 18.9312 31.8479 19.1361 31.9897C19.3688 32.1577 19.6327 32.2774 19.9124 32.3419C20.192 32.4064 20.4818 32.4143 20.7646 32.3652L27.8369 31.0904C29.4728 30.7952 30.985 30.0233 32.1837 28.8716C33.5967 27.5022 35.3869 26.5868 37.3242 26.243L39.4436 25.861C39.6451 25.8247 39.8239 25.7098 39.9407 25.5417C40.0574 25.3736 40.1027 25.1659 40.0663 24.9644L37.7386 12.0504Z" fill="#F9B301"/>
</svg>
