<svg width="24" height="24" viewBox="0 0 24 24" fill="none" xmlns="http://www.w3.org/2000/svg">
<path d="M23.7656 12C23.7656 5.625 18.5156 0.375 12.1406 0.375C5.71875 0.375 0.515625 5.625 0.515625 12C0.515625 18.4219 5.71875 23.625 12.1406 23.625C18.5156 23.625 23.7656 18.4219 23.7656 12ZM10.7812 18.1875C10.5 18.4688 9.98438 18.4688 9.70312 18.1875L4.82812 13.3125C4.54688 13.0312 4.54688 12.5156 4.82812 12.2344L5.90625 11.2031C6.1875 10.875 6.65625 10.875 6.9375 11.2031L10.2656 14.4844L17.2969 7.45312C17.5781 7.125 18.0469 7.125 18.3281 7.45312L19.4062 8.48438C19.6875 8.76562 19.6875 9.28125 19.4062 9.5625L10.7812 18.1875Z" fill="#FB2193"/>
</svg>
