<svg width="39" height="41" viewBox="0 0 39 41" fill="none" xmlns="http://www.w3.org/2000/svg">
<path d="M37.4581 3.57856H31.3339V1.83043C31.3339 1.11965 30.7555 0.541016 30.0444 0.541016H9.0098C8.29873 0.541016 7.72039 1.11965 7.72039 1.83043V3.57856H1.5961C1.26691 3.57856 1 3.84518 1 4.17466V5.67947C1 10.4849 3.3422 15.0069 7.26516 17.7761L7.97274 18.2756C8.0657 18.3408 8.17117 18.3715 8.27687 18.3785C9.36872 21.8067 11.9896 24.5498 15.3317 25.8264V28.8616H10.8132C10.484 28.8616 10.2171 29.1282 10.2171 29.4577V33.5227H7.55011C7.22092 33.5227 6.95401 33.7893 6.95401 34.1188V39.2875C6.95401 39.617 7.22092 39.8836 7.55011 39.8836H31.5041C31.8333 39.8836 32.1002 39.617 32.1002 39.2875V34.1188C32.1002 33.7893 31.8333 33.5227 31.5041 33.5227H28.8371V29.4577C28.8371 29.1282 28.5702 28.8616 28.241 28.8616H23.7225V25.8264C27.0646 24.5498 29.6855 21.8067 30.7774 18.3785C30.8831 18.3715 30.9886 18.3408 31.0815 18.2756L31.7891 17.7761C35.7121 15.0069 38.0542 10.4849 38.0542 5.67947V4.17466C38.0542 3.84518 37.7873 3.57856 37.4581 3.57856ZM2.1922 5.67947V4.77076H7.72039V14.8038C7.72039 15.4712 7.7893 16.1216 7.89626 16.7592C4.32385 14.2101 2.1922 10.0742 2.1922 5.67947ZM30.908 38.6914H8.14621V34.7149H10.8132H28.241H30.908V38.6914V38.6914ZM27.6449 33.5227H11.4093V30.0538H27.6449V33.5227V33.5227ZM22.5303 28.8616H16.5239V26.2087C17.4848 26.462 18.4878 26.6105 19.5271 26.6105C20.5664 26.6105 21.5695 26.462 22.5303 26.2087V28.8616ZM30.1417 14.8038C30.1417 19.4768 27.1024 23.4461 22.8995 24.8598C22.8969 24.8609 22.8943 24.8616 22.8916 24.8627C21.8329 25.2179 20.7039 25.4183 19.5271 25.4183C18.3503 25.4183 17.2213 25.2179 16.1626 24.8627C16.16 24.8616 16.1573 24.8609 16.1547 24.8598C11.9519 23.4461 8.91259 19.4768 8.91259 14.8038V1.83043C8.91259 1.77688 8.95625 1.73322 9.0098 1.73322H30.0444C30.098 1.73322 30.1417 1.77688 30.1417 1.83043V14.8038ZM36.862 5.67947C36.862 10.0742 34.7304 14.2101 31.158 16.7592C31.265 16.1216 31.3339 15.4712 31.3339 14.8038V4.77076H36.862V5.67947Z" fill="#03D670" stroke="#03D670" stroke-width="0.5"/>
<path d="M25.8402 9.29025L21.8465 8.70929L20.0602 5.09077C19.8594 4.68328 19.1923 4.68328 18.9915 5.09077L17.2052 8.70929L13.2115 9.29025C12.9871 9.32285 12.8005 9.48003 12.7304 9.696C12.6602 9.91138 12.7187 10.1483 12.8814 10.3066L15.7711 13.1236L15.0889 17.1013C15.0507 17.3248 15.1427 17.5507 15.3261 17.684C15.5103 17.8179 15.7537 17.8359 15.9539 17.7294L19.5259 15.8514L23.0978 17.7294C23.1851 17.7754 23.2803 17.7981 23.3752 17.7981C23.4986 17.7981 23.6217 17.7596 23.7256 17.684C23.909 17.5507 24.001 17.3248 23.9628 17.1013L23.2806 13.1236L26.1703 10.3066C26.333 10.1483 26.3915 9.91138 26.3213 9.696C26.2512 9.48003 26.0646 9.32285 25.8402 9.29025V9.29025ZM22.2243 12.4885C22.0837 12.6253 22.0197 12.8226 22.0526 13.0159L22.5835 16.1122L19.8032 14.6505C19.7165 14.6045 19.621 14.5818 19.5259 14.5818C19.4307 14.5818 19.3352 14.6045 19.2485 14.6505L16.4682 16.1122L16.9991 13.0159C17.032 12.8226 16.968 12.6253 16.8274 12.4885L14.5783 10.2962L17.6869 9.84386C17.881 9.81591 18.0487 9.69367 18.1354 9.51786L19.5259 6.70152L20.9163 9.51786C21.003 9.69367 21.1707 9.81591 21.3648 9.84386L24.4734 10.2962L22.2243 12.4885Z" fill="#03D670" stroke="#03D670" stroke-width="0.5"/>
</svg>
