<svg width="41" height="41" viewBox="0 0 41 41" fill="none" xmlns="http://www.w3.org/2000/svg">
<path d="M36.5528 16.7311H27.1225C30.7945 11.6404 29.7096 6.5497 29.8765 4.71371V4.63026C29.8765 2.377 28.124 0.541016 25.8707 0.541016C23.1168 0.541016 22.1988 2.87773 21.2808 5.29789C20.1959 8.13533 18.7771 11.7238 14.1037 13.9771L11.0994 15.5627V15.3958C11.0994 14.4778 10.3483 13.7267 9.4303 13.7267H4.1727C1.83599 13.7267 0 15.5627 0 17.8994V35.842C0 38.1788 1.83599 40.0147 4.1727 40.0147H9.4303C10.3483 40.0147 11.0994 39.2637 11.0994 38.3457V38.2622C12.5181 38.596 13.6865 38.9298 14.7714 39.1802C17.9426 40.0147 20.2793 40.6824 23.6175 40.6824H32.4636C34.383 40.6824 35.9687 39.0968 35.9687 37.0939C35.9687 36.2593 35.7183 35.5082 35.2176 34.9241C36.5528 34.4233 37.4708 33.0881 37.4708 31.5859C37.4708 30.7514 37.2205 30.0003 36.7197 29.4161C38.055 28.9154 38.973 27.5801 38.973 26.0779C38.973 25.1599 38.6392 24.4089 38.1385 23.7412C39.3068 23.157 40.1414 21.9052 40.1414 20.4865C40.0579 18.3167 38.4723 16.7311 36.5528 16.7311ZM4.1727 38.2622C2.75398 38.2622 1.66908 37.1773 1.66908 35.7586V17.816C1.66908 16.3973 2.75398 15.3124 4.1727 15.3124H9.4303V38.1788H4.1727V38.2622ZM36.5528 22.239C36.4694 22.239 31.5456 22.239 31.6291 22.239C31.1283 22.239 30.7945 22.5729 30.7945 23.0736C30.7945 23.5743 31.1283 23.9081 31.6291 23.9081H35.3845C36.3859 23.9081 37.2205 24.7427 37.2205 25.8276C37.2205 26.9125 36.3859 27.747 35.3845 27.747C34.8003 27.747 29.96 27.747 30.1269 27.747C29.6262 27.747 29.2923 28.0808 29.2923 28.5816C29.2923 29.0823 29.6262 29.4161 30.1269 29.4161C30.3772 29.4161 33.9658 29.4161 33.8823 29.4161C34.8838 29.4161 35.7183 30.2506 35.7183 31.3355C35.7183 32.4204 34.8838 33.255 33.8823 33.255C33.2981 33.255 28.4578 33.255 28.6247 33.255C28.124 33.255 27.7902 33.5888 27.7902 34.0895C27.7902 35.5082 29.8765 34.7571 32.3801 34.9241C33.3816 34.9241 34.2161 35.7586 34.2161 36.8435C34.2161 37.9284 33.3816 38.9298 32.3801 38.9298H23.534C20.3628 38.9298 18.2764 38.3457 15.1052 37.5111C13.9368 37.1773 12.6015 36.8435 11.0159 36.4262V17.3987L14.8548 15.5627C20.1124 12.9757 21.698 8.88641 22.8664 5.96552C23.8678 3.46191 24.3686 2.29355 25.8707 2.29355C27.1225 2.29355 28.124 3.37845 28.2074 4.63026C28.0405 6.71661 29.042 11.2231 25.7038 15.8131L24.7858 17.0649C24.3686 17.5656 24.7858 18.4002 25.4535 18.4002H36.5528C37.5543 18.4002 38.3888 19.2347 38.3888 20.3196C38.3888 21.4045 37.5543 22.239 36.5528 22.239Z" fill="#FB2193"/>
</svg>
