<svg id="Layer_1" data-name="Layer 1" xmlns="http://www.w3.org/2000/svg" width="295" height="230.9" viewBox="0 0 295 230.9"><defs><style>.cls-1{fill:#a9a9a9;}.cls-2,.cls-3,.cls-4{fill:none;}.cls-2{stroke:#f2f2f6;opacity:0.7;isolation:isolate;}.cls-2,.cls-3{stroke-linecap:round;stroke-linejoin:round;stroke-width:8px;}.cls-3{stroke:#ccc;}.cls-4{stroke:#e0e0e0;}</style></defs><path class="cls-1" d="M36.5,18.5h5.7c2.7,0,4.4-1.4,4.4-3.7h0a3,3,0,0,0-2.9-3v-.2A2.6,2.6,0,0,0,46,9h0c0-1.9-1.5-3.1-4-3.1H36.5ZM41.4,7.7a1.8,1.8,0,0,1,2,1.7h0c0,1.1-.8,1.7-2.2,1.7h-2V7.7Zm.1,5.1c1.5,0,2.4.6,2.4,1.8h0c0,1.2-.9,1.9-2.4,1.9H39.2V12.8Zm10.4,5.9A2.8,2.8,0,0,0,54.7,17h.2v1.5h2.6V8.8H54.9v5.6a1.9,1.9,0,0,1-2,2.1c-1.2,0-1.7-.7-1.7-2V8.8H48.6V15C48.6,17.3,49.8,18.7,51.9,18.7ZM61.3,7.3a1.5,1.5,0,0,0,1.5-1.4,1.5,1.5,0,0,0-1.5-1.5,1.5,1.5,0,0,0-1.4,1.5A1.4,1.4,0,0,0,61.3,7.3ZM60,18.5h2.6V8.8H60Zm5.3,0h2.6V5.1H65.3Zm8.7.1A3.1,3.1,0,0,0,76.9,17H77v1.5h2.6V5.1H77v5.2h-.1A3.2,3.2,0,0,0,74,8.6c-2.5,0-4,1.9-4,5h0C70,16.7,71.5,18.6,74,18.6Zm.8-2.1c-1.3,0-2.2-1.1-2.2-2.9h0c0-1.8.9-2.8,2.2-2.8s2.2,1,2.2,2.8h0C77,15.4,76.2,16.5,74.8,16.5Zm8.7-9.2A1.5,1.5,0,0,0,85,5.9a1.5,1.5,0,0,0-1.5-1.5,1.5,1.5,0,0,0-1.4,1.5A1.4,1.4,0,0,0,83.5,7.3ZM82.2,18.5h2.6V8.8H82.2Zm5.2,0H90V12.9c0-1.3.7-2.2,1.9-2.2s1.7.7,1.7,2.1v5.7h2.6V12.2c0-2.3-1.1-3.6-3.3-3.6a2.8,2.8,0,0,0-2.8,1.7H90V8.8H87.4ZM103,21.9c2.9,0,4.8-1.5,4.8-3.7V8.8h-2.6v1.6h-.1a3.2,3.2,0,0,0-2.9-1.8c-2.5,0-4,1.9-4,4.8h0c0,2.8,1.5,4.6,3.9,4.6a3,3,0,0,0,2.9-1.5h.2v1.8c0,1.1-.8,1.7-2.2,1.7s-1.8-.4-1.9-.9H98.5C98.7,20.7,100.3,21.9,103,21.9Zm0-5.8c-1.4,0-2.2-1.1-2.2-2.7h0c0-1.6.8-2.7,2.2-2.7s2.2,1.1,2.2,2.7h0C105.2,15,104.4,16.1,103,16.1ZM23.3,42.8c3.5,0,5.6-2.1,5.6-5.5V35.7H23.6v1.9h2.7v.3c0,1.6-1.2,2.6-3,2.6s-3.4-1.7-3.4-4.4h0c0-2.7,1.3-4.4,3.3-4.4a3,3,0,0,1,3,2h2.6c-.4-2.5-2.6-4.2-5.6-4.2s-6,2.5-6,6.6h0C17.2,40.2,19.5,42.8,23.3,42.8Zm12.2-.1c3,0,4.8-1.9,4.8-5.1h0c0-3.1-1.8-5-4.8-5s-4.8,1.9-4.8,5h0C30.7,40.8,32.5,42.7,35.5,42.7Zm0-2c-1.4,0-2.1-1.2-2.1-3.1h0c0-1.9.7-3,2.1-3s2.2,1.1,2.2,3h0C37.7,39.5,36.9,40.7,35.5,40.7Zm11.2,2c2.9,0,4.7-1.9,4.7-5.1h0c0-3.1-1.8-5-4.7-5s-4.8,1.9-4.8,5h0C41.9,40.8,43.7,42.7,46.7,42.7Zm0-2c-1.4,0-2.2-1.2-2.2-3.1h0c0-1.9.8-3,2.2-3s2.1,1.1,2.1,3h0C48.8,39.5,48,40.7,46.7,40.7ZM57,42.6A3,3,0,0,0,59.9,41H60v1.5h2.6V29.1H60v5.2h-.1A3.2,3.2,0,0,0,57,32.6c-2.5,0-3.9,1.9-3.9,5h0C53.1,40.7,54.6,42.6,57,42.6Zm.9-2.1c-1.4,0-2.2-1.1-2.2-2.9h0c0-1.8.8-2.8,2.2-2.8s2.2,1,2.2,2.8h0C60.1,39.4,59.2,40.5,57.9,40.5Zm12.3,2h2.6V37.1h5.7v5.4h2.7V29.8H78.5v5.1H72.8V29.8H70.2Zm16.4.1a3,3,0,0,0,2.8-1.4h.2v1.3h2.5V35.9c0-2.1-1.4-3.3-4-3.3s-4.1,1.1-4.3,2.8h2.4a1.7,1.7,0,0,1,1.7-.9c1.1,0,1.7.5,1.7,1.4v.8H87.2c-2.4.1-3.7,1.2-3.7,2.9h0A2.8,2.8,0,0,0,86.6,42.6Zm-.6-3h0c0-.7.5-1.1,1.6-1.2h2v.7a1.9,1.9,0,0,1-2.1,1.8C86.6,40.7,86,40.3,86,39.6Zm14.3,3c2.4,0,4-1.9,4-5h0c0-3.1-1.5-5-4-5a3.2,3.2,0,0,0-2.9,1.7h-.1V29.1H94.7V42.5h2.6V41h.1A3.1,3.1,0,0,0,100.3,42.6Zm-.9-2.1c-1.3,0-2.2-1.1-2.2-2.9h0c0-1.8.9-2.8,2.2-2.8s2.2,1,2.2,2.8h0C101.6,39.4,100.8,40.5,99.4,40.5Zm8.2-9.2a1.5,1.5,0,0,0,1.5-1.4,1.5,1.5,0,1,0-2.9,0A1.4,1.4,0,0,0,107.6,31.3Zm-1.2,11.2h2.5V32.8h-2.5Zm9.1,0h1.3V40.5h-.7c-.9,0-1.3-.4-1.3-1.2V34.7h2V32.8h-2V30.5h-2.6v2.3h-1.5v1.9h1.5v5.2C112.2,41.7,113.2,42.5,115.5,42.5Zm7.2.2c2.5,0,4.2-1.3,4.2-3.2h0c0-1.4-.9-2.3-2.8-2.7l-1.6-.3c-1-.2-1.4-.5-1.4-1h0c0-.6.7-1,1.6-1a1.5,1.5,0,0,1,1.6,1h2.4c-.1-1.6-1.5-2.8-4-2.8s-4.1,1.2-4.1,3h0c0,1.5.9,2.4,2.8,2.8l1.6.3c1,.2,1.4.6,1.4,1.1h0c0,.6-.7,1.1-1.7,1.1a1.7,1.7,0,0,1-1.8-1.1h-2.5C118.6,41.5,120.1,42.7,122.7,42.7Z" transform="translate(-12 -0.5)"/><path class="cls-2" d="M72,188.5c30.9,0,56-26,56-58s-25.1-58-56-58-56,25.9-56,58S41.1,188.5,72,188.5Z" transform="translate(-12 -0.5)"/><path class="cls-3" d="M67.6,188.5c-12.4-1.9-20-4.2-29.8-12.1a57.8,57.8,0,0,1-20-31.4,59.2,59.2,0,0,1,2.8-37.4A57.6,57.6,0,0,1,44.9,79.7a55.3,55.3,0,0,1,35.8-6.6,56.1,56.1,0,0,1,32.2,17.4A60,60,0,0,1,128,124.7" transform="translate(-12 -0.5)"/><path class="cls-1" d="M44.3,126.5h2v-7.8h.1l5.5,7.8h1.8V115.2H51.8V123h-.2l-5.5-7.8H44.3Zm15.7.1c2.5,0,4.1-1.6,4.1-4.4h0c0-2.8-1.6-4.4-4.1-4.4s-4.1,1.6-4.1,4.4h0C55.9,125,57.4,126.6,60,126.6Zm0-1.5c-1.4,0-2.2-1.1-2.2-2.9h0c0-1.8.8-2.9,2.2-2.9s2.1,1.1,2.1,2.9h0C62.1,124,61.3,125.1,60,125.1Zm13.4,1.5a2.7,2.7,0,0,0,2.6-1.5h.1v1.4H78V114.6H76.1v4.7H76a3,3,0,0,0-2.6-1.5c-2.2,0-3.5,1.7-3.5,4.4h0C69.9,124.9,71.2,126.6,73.4,126.6ZM74,125c-1.4,0-2.2-1.1-2.2-2.8h0c0-1.7.9-2.8,2.2-2.8s2.1,1.1,2.1,2.8h0C76.1,123.9,75.3,125,74,125Zm8.8,1.6a2.7,2.7,0,0,0,2.5-1.3h.2v1.2h1.9v-5.9c0-1.8-1.3-2.8-3.5-2.8s-3.4.9-3.5,2.3h1.8c.2-.6.8-.9,1.7-.9s1.6.5,1.6,1.3v.8H83.3c-2.1.1-3.3,1-3.3,2.5h0A2.6,2.6,0,0,0,82.8,126.6Zm-.9-2.6h0c0-.7.5-1.1,1.6-1.1l2-.2v.7a1.9,1.9,0,0,1-2.1,1.8C82.6,125.1,81.9,124.7,81.9,124Zm11.2,2.5h1v-1.5h-.7c-.8,0-1.1-.3-1.1-1.2v-4.3h1.8v-1.5H92.3v-2.1h-2v2.1H89v1.5h1.3v4.8C90.3,125.8,91.1,126.5,93.1,126.5Zm5.3.1a2.9,2.9,0,0,0,2.5-1.3h.1v1.2h1.9v-5.9c0-1.8-1.2-2.8-3.4-2.8s-3.4.9-3.6,2.3h1.8c.2-.6.8-.9,1.7-.9s1.6.5,1.6,1.3v.8H98.8c-2.1.1-3.3,1-3.3,2.5h0A2.6,2.6,0,0,0,98.4,126.6Zm-.9-2.6h0c0-.7.5-1.1,1.6-1.1l1.9-.2v.7a1.9,1.9,0,0,1-2.1,1.8C98.1,125.1,97.5,124.7,97.5,124ZM42.4,148.6a2.6,2.6,0,0,0,2.5-1.3h.2v1.2H47v-5.9c0-1.8-1.2-2.8-3.4-2.8s-3.4.9-3.6,2.3h1.8c.2-.6.8-.9,1.7-.9s1.6.5,1.6,1.3v.8H42.9c-2.1.1-3.3,1-3.3,2.5h0A2.6,2.6,0,0,0,42.4,148.6Zm-.8-2.6h0c0-.7.5-1.1,1.5-1.1l2-.2v.7a1.9,1.9,0,0,1-2.1,1.8C42.2,147.1,41.6,146.7,41.6,146Zm9.8,2.5h2.1l3-8.6h-2l-2,6.7h-.1l-2-6.7H48.3Zm8.8.1a2.9,2.9,0,0,0,2.5-1.3h.1v1.2h1.9v-5.9c0-1.8-1.2-2.8-3.4-2.8s-3.4.9-3.6,2.3h1.9c.2-.6.7-.9,1.6-.9s1.6.5,1.6,1.3v.8H60.6c-2.1.1-3.2,1-3.2,2.5h0A2.6,2.6,0,0,0,60.2,148.6Zm-.9-2.6h0c0-.7.5-1.1,1.6-1.1l1.9-.2v.7a1.8,1.8,0,0,1-2,1.8C59.9,147.1,59.3,146.7,59.3,146Zm8.8-7.5a1.1,1.1,0,0,0,1.1-1.2,1.1,1.1,0,0,0-1.1-1.1,1.1,1.1,0,0,0-1.2,1.1A1.2,1.2,0,0,0,68.1,138.5Zm-1,10H69v-8.6H67.1Zm4.4,0h2V136.6h-2Zm6.7.1a2.9,2.9,0,0,0,2.6-1.3h.1v1.2h1.9v-5.9c0-1.8-1.2-2.8-3.4-2.8s-3.4.9-3.6,2.3h1.8c.2-.6.8-.9,1.7-.9s1.6.5,1.6,1.3v.8H78.7c-2.1.1-3.3,1-3.3,2.5h0A2.6,2.6,0,0,0,78.2,148.6Zm-.8-2.6h0c0-.7.5-1.1,1.6-1.1l1.9-.2v.7a1.9,1.9,0,0,1-2.1,1.8C78,147.1,77.4,146.7,77.4,146Zm12.5,2.6c2.1,0,3.5-1.7,3.5-4.4h0c0-2.7-1.3-4.4-3.5-4.4a2.8,2.8,0,0,0-2.6,1.5h-.1v-4.7h-2v11.9h2v-1.4h.1A2.7,2.7,0,0,0,89.9,148.6Zm-.6-1.6c-1.3,0-2.2-1.1-2.2-2.8h0c0-1.7.9-2.8,2.2-2.8s2.1,1.1,2.1,2.8h0C91.4,145.9,90.6,147,89.3,147Zm6.1,1.5h2V136.6h-2Zm8.1.1a3.5,3.5,0,0,0,3.7-2.4h-1.8a2,2,0,0,1-1.9.9c-1.3,0-2.1-.9-2.1-2.4h5.9V144c0-2.5-1.5-4.2-3.9-4.2s-4,1.7-4,4.4h0C99.4,146.9,100.9,148.6,103.5,148.6Zm-.1-7.3a2,2,0,0,1,2,2.1h-4A2,2,0,0,1,103.4,141.3Z" transform="translate(-12 -0.5)"/><path class="cls-1" d="M19.1,228.5h2.3v-7.4h.1l5.1,7.4h2V217.2H26.3v7.3h-.1l-5.1-7.3h-2Zm15.2.1c2.6,0,4.2-1.6,4.2-4.3h0c0-2.8-1.7-4.4-4.2-4.4s-4.1,1.7-4.1,4.4h0C30.2,227,31.8,228.6,34.3,228.6Zm0-1.8c-1.1,0-1.8-.9-1.8-2.5h0c0-1.7.7-2.6,1.8-2.6s1.9.9,1.9,2.6h0C36.2,225.9,35.4,226.8,34.3,226.8Zm14.1,1.9a4.7,4.7,0,0,0,4.9-4.2H51a2.6,2.6,0,0,1-2.6,2.2c-1.8,0-3-1.5-3-3.9h0c0-2.4,1.2-3.8,3-3.8a2.3,2.3,0,0,1,2.5,2v.2h2.3a4.6,4.6,0,0,0-4.9-4.1c-3.3,0-5.4,2.2-5.4,5.8h0C43,226.5,45.1,228.7,48.4,228.7Zm6.4-.2H57v-4.8a1.7,1.7,0,0,1,1.7-1.9c1,0,1.6.7,1.6,1.9v4.8h2.3v-5.3c0-2-1.1-3.3-2.9-3.3a2.6,2.6,0,0,0-2.6,1.6H57v-4.3H54.8Zm11.9.1a2.7,2.7,0,0,0,2.5-1.4h0v1.3h2.3v-5.8c0-1.7-1.4-2.8-3.5-2.8s-3.6,1.1-3.7,2.7h2.1c.1-.5.6-.9,1.5-.9s1.3.4,1.3,1.2v.5h-2c-2.1.1-3.3,1-3.3,2.5h0A2.6,2.6,0,0,0,66.7,228.6Zm-.5-2.7h0c0-.6.4-.9,1.3-1h1.7v.6a1.5,1.5,0,0,1-1.7,1.5C66.7,226.9,66.2,226.6,66.2,225.9Zm7,2.6h2.3V217.2H73.2Zm4,0h2.3V217.2H77.2Zm7.8.1c2.4,0,3.6-1.4,3.8-2.6h-2a1.8,1.8,0,0,1-1.7,1,1.8,1.8,0,0,1-1.9-2.1h5.7v-.7c0-2.5-1.5-4.2-4-4.2s-4,1.7-4,4.4h0C80.9,227,82.5,228.6,85,228.6Zm0-7c.9,0,1.6.6,1.7,1.8H83.2A1.7,1.7,0,0,1,85,221.6Zm5.3,6.9h2.3v-4.9a1.6,1.6,0,0,1,1.6-1.8c1.1,0,1.6.6,1.6,1.7v5h2.3v-5.4c0-2-1.1-3.2-2.9-3.2a2.6,2.6,0,0,0-2.6,1.6h0v-1.4H90.3Zm13.3,2.9c2.5,0,4.1-1.3,4.1-3.2v-8.1h-2.3v1.4h-.1a2.5,2.5,0,0,0-2.5-1.6c-2.1,0-3.4,1.6-3.4,4.3h0c0,2.6,1.2,4.1,3.3,4.1a2.6,2.6,0,0,0,2.6-1.4h.1v1.3c0,.9-.7,1.5-1.8,1.5s-1.6-.3-1.8-.7H99.6C99.8,230.3,101.3,231.4,103.6,231.4Zm-.1-4.7c-1.1,0-1.8-1-1.8-2.5h0c0-1.5.7-2.4,1.8-2.4s1.9.9,1.9,2.4h0C105.4,225.7,104.6,226.7,103.5,226.7Zm9.6,1.9c2.4,0,3.6-1.4,3.8-2.6h-2.1a1.5,1.5,0,0,1-1.6,1,1.8,1.8,0,0,1-1.9-2.1H117v-.7c0-2.5-1.5-4.2-4-4.2s-4,1.7-4,4.4h0C109,227,110.6,228.6,113.1,228.6Zm0-7c.9,0,1.6.6,1.7,1.8h-3.5A1.7,1.7,0,0,1,113.1,221.6Zm8.7,7c2.2,0,3.7-1,3.7-2.7h0c0-1.2-.7-1.9-2.5-2.3l-1.4-.3c-.9-.2-1.1-.4-1.1-.9h0c0-.5.4-.9,1.2-.9s1.4.5,1.4,1.1h2.2c-.1-1.5-1.3-2.7-3.6-2.7s-3.5,1-3.5,2.6h0c0,1.3.8,2.1,2.5,2.5l1.4.3c.8.1,1.1.4,1.1.8h0c0,.6-.5.9-1.4.9s-1.4-.4-1.5-1H118C118.2,227.6,119.5,228.6,121.8,228.6Z" transform="translate(-12 -0.5)"/><path class="cls-4" d="M159.5.5v227" transform="translate(-12 -0.5)"/><path class="cls-1" d="M208.3,18.5H214c2.7,0,4.4-1.4,4.4-3.7h0a3,3,0,0,0-2.9-3v-.2A2.6,2.6,0,0,0,217.8,9h0c0-1.9-1.5-3.1-3.9-3.1h-5.6Zm4.9-10.8a1.8,1.8,0,0,1,2,1.7h0c0,1.1-.8,1.7-2.2,1.7h-2V7.7Zm.1,5.1c1.5,0,2.4.6,2.4,1.8h0c0,1.2-.8,1.9-2.4,1.9H211V12.8Zm7.2,5.7h2.6V13a2.2,2.2,0,0,1,2.4-2.2l1.2.2V8.7h-1a2.2,2.2,0,0,0-2.4,1.7h-.2V8.8h-2.6Zm11.9.2c2.8,0,4.1-1.7,4.4-2.9h-2.4a2.2,2.2,0,0,1-1.9.9,2.2,2.2,0,0,1-2.3-2.5h6.7v-.8c0-2.9-1.8-4.8-4.6-4.8s-4.6,2-4.6,5h0C227.7,16.7,229.5,18.7,232.4,18.7Zm-.1-8.2a2,2,0,0,1,2.1,2.1h-4.2A2.2,2.2,0,0,1,232.3,10.5Zm9.3,8.1a3,3,0,0,0,2.8-1.4h.1v1.3h2.6V11.9c0-2.1-1.5-3.3-4-3.3s-4.1,1.1-4.3,2.8h2.4a1.7,1.7,0,0,1,1.7-.9c1.1,0,1.6.5,1.6,1.4v.8h-2.3c-2.4.1-3.7,1.2-3.7,2.9h0A2.8,2.8,0,0,0,241.6,18.6Zm-.6-3h0c0-.7.5-1.1,1.6-1.2h1.9v.7a1.8,1.8,0,0,1-2,1.8C241.6,16.7,241,16.3,241,15.6Zm8.7,2.9h2.5V15.2l.7-.7,2.9,4h3l-4-5.6,3.7-4.1h-2.9l-3.2,3.8h-.2V5.1h-2.5Zm12-11.2a1.5,1.5,0,0,0,1.5-1.4,1.5,1.5,0,0,0-1.5-1.5,1.5,1.5,0,0,0-1.4,1.5A1.4,1.4,0,0,0,261.7,7.3Zm-1.3,11.2H263V8.8h-2.6Zm5.2,0h2.6V12.9c0-1.3.7-2.2,1.9-2.2s1.7.7,1.7,2.1v5.7h2.6V12.2c0-2.3-1.2-3.6-3.3-3.6a2.8,2.8,0,0,0-2.8,1.7h-.1V8.8h-2.6Zm15.6,3.4c2.9,0,4.7-1.5,4.7-3.7V8.8h-2.5v1.6h-.1a3.2,3.2,0,0,0-2.9-1.8c-2.5,0-4,1.9-4,4.8h0c0,2.8,1.5,4.6,3.9,4.6a3,3,0,0,0,2.9-1.5h.2v1.8c0,1.1-.8,1.7-2.2,1.7s-1.8-.4-1.9-.9h-2.6C276.9,20.7,278.5,21.9,281.2,21.9Zm0-5.8c-1.4,0-2.2-1.1-2.2-2.7h0c0-1.6.8-2.7,2.2-2.7s2.2,1.1,2.2,2.7h0C283.4,15,282.6,16.1,281.2,16.1Zm-82,26.4h5.7c2.7,0,4.4-1.4,4.4-3.7h0a3,3,0,0,0-2.9-3v-.2a2.6,2.6,0,0,0,2.3-2.6h0c0-1.9-1.5-3.1-3.9-3.1h-5.6Zm4.9-10.8c1.3,0,2,.7,2,1.7h0c0,1.1-.8,1.7-2.2,1.7h-2V31.7Zm.1,5.1q2.4,0,2.4,1.8h0c0,1.2-.8,1.9-2.4,1.9h-2.3V36.8Zm9.9,5.8a3,3,0,0,0,2.8-1.4h.1v1.3h2.6V35.9c0-2.1-1.5-3.3-4.1-3.3s-4,1.1-4.2,2.8h2.4a1.7,1.7,0,0,1,1.7-.9c1.1,0,1.6.5,1.6,1.4v.8h-2.3c-2.4.1-3.8,1.2-3.8,2.9h0C210.9,41.5,212.2,42.6,214.1,42.6Zm-.7-3h0c0-.7.6-1.1,1.7-1.2H217v.7a1.8,1.8,0,0,1-2,1.8C214.1,40.7,213.4,40.3,213.4,39.6Zm12.1,3a3,3,0,0,0,2.9-1.6h.2v1.5h2.5V29.1h-2.5v5.2h-.2a3.1,3.1,0,0,0-2.9-1.7c-2.4,0-3.9,1.9-3.9,5h0C221.6,40.7,223.1,42.6,225.5,42.6Zm.9-2.1c-1.4,0-2.2-1.1-2.2-2.9h0c0-1.8.8-2.8,2.2-2.8s2.2,1,2.2,2.8h0C228.6,39.4,227.8,40.5,226.4,40.5Zm12.3,2h2.6V37.1h5.8v5.4h2.6V29.8h-2.6v5.1h-5.8V29.8h-2.6Zm16.5.1a3.1,3.1,0,0,0,2.8-1.4h.1v1.3h2.5V35.9c0-2.1-1.4-3.3-4-3.3s-4,1.1-4.2,2.8h2.4a1.7,1.7,0,0,1,1.7-.9c1,0,1.6.5,1.6,1.4v.8h-2.3c-2.4.1-3.8,1.2-3.8,2.9h0C252,41.5,253.3,42.6,255.2,42.6Zm-.7-3h0c0-.7.6-1.1,1.7-1.2h1.9v.7a1.9,1.9,0,0,1-2.1,1.8C255.1,40.7,254.5,40.3,254.5,39.6Zm14.4,3c2.4,0,3.9-1.9,3.9-5h0c0-3.1-1.5-5-3.9-5a3.1,3.1,0,0,0-2.9,1.7h-.2V29.1h-2.6V42.5h2.6V41h.2A3,3,0,0,0,268.9,42.6Zm-.9-2.1c-1.4,0-2.2-1.1-2.2-2.9h0c0-1.8.8-2.8,2.2-2.8s2.2,1,2.2,2.8h0C270.2,39.4,269.4,40.5,268,40.5Zm8.2-9.2a1.4,1.4,0,0,0,1.4-1.4,1.5,1.5,0,0,0-1.4-1.5,1.5,1.5,0,0,0-1.5,1.5A1.5,1.5,0,0,0,276.2,31.3Zm-1.3,11.2h2.6V32.8h-2.6Zm9.2,0h1.2V40.5h-.7c-.9,0-1.2-.4-1.2-1.2V34.7h1.9V32.8h-1.9V30.5h-2.6v2.3h-1.5v1.9h1.5v5.2C280.8,41.7,281.7,42.5,284.1,42.5Zm7.1.2c2.5,0,4.3-1.3,4.3-3.2h0c0-1.4-.9-2.3-2.9-2.7l-1.6-.3c-1-.2-1.3-.5-1.3-1h0c0-.6.6-1,1.5-1a1.7,1.7,0,0,1,1.7,1h2.4c-.1-1.6-1.6-2.8-4.1-2.8s-4,1.2-4,3h0c0,1.5.9,2.4,2.7,2.8l1.7.3c.9.2,1.3.6,1.3,1.1h0c0,.6-.6,1.1-1.6,1.1a1.7,1.7,0,0,1-1.8-1.1h-2.6C287.1,41.5,288.6,42.7,291.2,42.7Z" transform="translate(-12 -0.5)"/><path class="cls-2" d="M247,186.5c30.9,0,56-25.6,56-57s-25.1-57-56-57-56,25.5-56,57S216.1,186.5,247,186.5Z" transform="translate(-12 -0.5)"/><path class="cls-1" d="M219.3,126.5h2v-7.8h.1l5.5,7.8h1.8V115.2h-1.9V123h-.2l-5.5-7.8h-1.8Zm15.7.1c2.5,0,4.1-1.6,4.1-4.4h0c0-2.8-1.6-4.4-4.1-4.4s-4.1,1.6-4.1,4.4h0C230.9,125,232.4,126.6,235,126.6Zm0-1.5c-1.4,0-2.2-1.1-2.2-2.9h0c0-1.8.8-2.9,2.2-2.9s2.1,1.1,2.1,2.9h0C237.1,124,236.3,125.1,235,125.1Zm13.4,1.5a2.7,2.7,0,0,0,2.6-1.5h.1v1.4H253V114.6h-1.9v4.7H251a3,3,0,0,0-2.6-1.5c-2.2,0-3.5,1.7-3.5,4.4h0C244.9,124.9,246.2,126.6,248.4,126.6Zm.6-1.6c-1.4,0-2.2-1.1-2.2-2.8h0c0-1.7.9-2.8,2.2-2.8s2.1,1.1,2.1,2.8h0C251.1,123.9,250.3,125,249,125Zm8.8,1.6a2.7,2.7,0,0,0,2.5-1.3h.2v1.2h1.9v-5.9c0-1.8-1.3-2.8-3.5-2.8s-3.4.9-3.5,2.3h1.8c.2-.6.8-.9,1.7-.9s1.6.5,1.6,1.3v.8h-2.2c-2.1.1-3.3,1-3.3,2.5h0A2.6,2.6,0,0,0,257.8,126.6Zm-.9-2.6h0c0-.7.5-1.1,1.6-1.1l2-.2v.7a1.9,1.9,0,0,1-2.1,1.8C257.6,125.1,256.9,124.7,256.9,124Zm11.2,2.5h1v-1.5h-.7c-.8,0-1.1-.3-1.1-1.2v-4.3h1.8v-1.5h-1.8v-2.1h-2v2.1H264v1.5h1.3v4.8C265.3,125.8,266.1,126.5,268.1,126.5Zm5.3.1a2.9,2.9,0,0,0,2.5-1.3h.1v1.2h1.9v-5.9c0-1.8-1.2-2.8-3.4-2.8s-3.4.9-3.6,2.3h1.8c.2-.6.8-.9,1.7-.9s1.6.5,1.6,1.3v.8h-2.2c-2.1.1-3.3,1-3.3,2.5h0A2.6,2.6,0,0,0,273.4,126.6Zm-.9-2.6h0c0-.7.5-1.1,1.6-1.1l1.9-.2v.7a1.9,1.9,0,0,1-2.1,1.8C273.1,125.1,272.5,124.7,272.5,124Zm-55.1,24.6a2.6,2.6,0,0,0,2.5-1.3h.2v1.2H222v-5.9c0-1.8-1.2-2.8-3.4-2.8s-3.4.9-3.6,2.3h1.8c.2-.6.8-.9,1.7-.9s1.6.5,1.6,1.3v.8h-2.2c-2.1.1-3.3,1-3.3,2.5h0A2.6,2.6,0,0,0,217.4,148.6Zm-.8-2.6h0c0-.7.5-1.1,1.5-1.1l2-.2v.7a1.9,1.9,0,0,1-2.1,1.8C217.2,147.1,216.6,146.7,216.6,146Zm9.8,2.5h2.1l3-8.6h-2l-2,6.7h-.1l-2-6.7h-2.1Zm8.8.1a2.9,2.9,0,0,0,2.5-1.3h.1v1.2h1.9v-5.9c0-1.8-1.2-2.8-3.4-2.8s-3.4.9-3.6,2.3h1.9c.2-.6.7-.9,1.6-.9s1.6.5,1.6,1.3v.8h-2.2c-2.1.1-3.2,1-3.2,2.5h0A2.6,2.6,0,0,0,235.2,148.6Zm-.9-2.6h0c0-.7.5-1.1,1.6-1.1l1.9-.2v.7a1.8,1.8,0,0,1-2,1.8C234.9,147.1,234.3,146.7,234.3,146Zm8.8-7.5a1.1,1.1,0,0,0,1.1-1.2,1.1,1.1,0,0,0-1.1-1.1,1.1,1.1,0,0,0-1.2,1.1A1.2,1.2,0,0,0,243.1,138.5Zm-1,10H244v-8.6h-1.9Zm4.4,0h2V136.6h-2Zm6.7.1a2.9,2.9,0,0,0,2.6-1.3h.1v1.2h1.9v-5.9c0-1.8-1.2-2.8-3.4-2.8s-3.4.9-3.6,2.3h1.8c.2-.6.8-.9,1.7-.9s1.6.5,1.6,1.3v.8h-2.2c-2.1.1-3.3,1-3.3,2.5h0A2.6,2.6,0,0,0,253.2,148.6Zm-.8-2.6h0c0-.7.5-1.1,1.6-1.1l1.9-.2v.7a1.9,1.9,0,0,1-2.1,1.8C253,147.1,252.4,146.7,252.4,146Zm12.5,2.6c2.1,0,3.5-1.7,3.5-4.4h0c0-2.7-1.3-4.4-3.5-4.4a2.8,2.8,0,0,0-2.6,1.5h-.1v-4.7h-2v11.9h2v-1.4h.1A2.7,2.7,0,0,0,264.9,148.6Zm-.6-1.6c-1.3,0-2.2-1.1-2.2-2.8h0c0-1.7.9-2.8,2.2-2.8s2.1,1.1,2.1,2.8h0C266.4,145.9,265.6,147,264.3,147Zm6.1,1.5h2V136.6h-2Zm8.1.1a3.5,3.5,0,0,0,3.7-2.4h-1.8a2,2,0,0,1-1.9.9c-1.3,0-2.1-.9-2.1-2.4h5.9V144c0-2.5-1.5-4.2-3.9-4.2s-4,1.7-4,4.4h0C274.4,146.9,275.9,148.6,278.5,148.6Zm-.1-7.3a2,2,0,0,1,2,2.1h-4A2,2,0,0,1,278.4,141.3Z" transform="translate(-12 -0.5)"/><path class="cls-1" d="M194.1,226.5h2.3v-7.4h.1l5.1,7.4h2V215.2h-2.3v7.3h-.1l-5.1-7.3h-2Zm15.2.1c2.6,0,4.2-1.6,4.2-4.3h0c0-2.8-1.7-4.4-4.2-4.4s-4.1,1.7-4.1,4.4h0C205.2,225,206.8,226.6,209.3,226.6Zm0-1.8c-1.1,0-1.8-.9-1.8-2.5h0c0-1.7.7-2.6,1.8-2.6s1.9.9,1.9,2.6h0C211.2,223.9,210.4,224.8,209.3,224.8Zm14.1,1.9a4.7,4.7,0,0,0,4.9-4.2H226a2.6,2.6,0,0,1-2.6,2.2c-1.8,0-3-1.5-3-3.9h0c0-2.4,1.2-3.8,3-3.8a2.3,2.3,0,0,1,2.5,2v.2h2.3a4.6,4.6,0,0,0-4.9-4.1c-3.3,0-5.4,2.2-5.4,5.8h0C218,224.5,220.1,226.7,223.4,226.7Zm6.4-.2H232v-4.8a1.7,1.7,0,0,1,1.7-1.9c1,0,1.6.7,1.6,1.9v4.8h2.3v-5.3c0-2-1.1-3.3-2.9-3.3a2.6,2.6,0,0,0-2.6,1.6H232v-4.3h-2.2Zm11.9.1a2.7,2.7,0,0,0,2.5-1.4h0v1.3h2.3v-5.8c0-1.7-1.4-2.8-3.5-2.8s-3.6,1.1-3.7,2.7h2.1c.1-.5.6-.9,1.5-.9s1.3.4,1.3,1.2v.5h-2c-2.1.1-3.3,1-3.3,2.5h0A2.6,2.6,0,0,0,241.7,226.6Zm-.5-2.7h0c0-.6.4-.9,1.3-1h1.7v.6a1.5,1.5,0,0,1-1.7,1.5C241.7,224.9,241.2,224.6,241.2,223.9Zm7,2.6h2.3V215.2h-2.3Zm4,0h2.3V215.2h-2.3Zm7.8.1c2.4,0,3.6-1.4,3.8-2.6h-2a1.8,1.8,0,0,1-1.7,1,1.8,1.8,0,0,1-1.9-2.1h5.7v-.7c0-2.5-1.5-4.2-4-4.2s-4,1.7-4,4.4h0C255.9,225,257.5,226.6,260,226.6Zm0-7c.9,0,1.6.6,1.8,1.8h-3.6A1.7,1.7,0,0,1,260,219.6Zm5.3,6.9h2.3v-4.9a1.6,1.6,0,0,1,1.6-1.8c1.1,0,1.6.6,1.6,1.7v5H273v-5.4c0-2-1-3.2-2.8-3.2a2.6,2.6,0,0,0-2.6,1.6h0v-1.4h-2.3Zm13.3,2.9c2.5,0,4.1-1.3,4.1-3.2v-8.1h-2.3v1.4h-.1a2.5,2.5,0,0,0-2.5-1.6c-2.1,0-3.4,1.6-3.4,4.3h0c0,2.6,1.2,4.1,3.3,4.1a2.6,2.6,0,0,0,2.6-1.4h.1v1.3c0,.9-.7,1.5-1.8,1.5s-1.6-.3-1.8-.7h-2.2C274.8,228.3,276.3,229.4,278.6,229.4Zm-.1-4.7c-1.1,0-1.8-1-1.8-2.5h0c0-1.5.7-2.4,1.8-2.4s1.9.9,1.9,2.4h0C280.4,223.7,279.6,224.7,278.5,224.7Zm9.6,1.9c2.4,0,3.6-1.4,3.8-2.6h-2.1a1.5,1.5,0,0,1-1.6,1,1.8,1.8,0,0,1-1.9-2.1H292v-.7c0-2.5-1.5-4.2-4-4.2s-4,1.7-4,4.4h0C284,225,285.6,226.6,288.1,226.6Zm0-7c.9,0,1.6.6,1.7,1.8h-3.5A1.7,1.7,0,0,1,288.1,219.6Zm8.7,7c2.2,0,3.7-1,3.7-2.7h0c0-1.2-.7-1.9-2.5-2.3l-1.4-.3c-.9-.2-1.1-.4-1.1-.9h0c0-.5.4-.9,1.2-.9s1.4.5,1.4,1.1h2.2c-.1-1.5-1.3-2.7-3.6-2.7s-3.5,1-3.5,2.6h0c0,1.3.8,2.1,2.5,2.5l1.4.3c.8.1,1.1.4,1.1.8h0c0,.6-.5.9-1.4.9s-1.4-.4-1.5-1H293C293.2,225.6,294.5,226.6,296.8,226.6Z" transform="translate(-12 -0.5)"/><path class="cls-3" d="M242.5,186.5c-12.3-1.9-19.8-4.2-29.5-12a57.2,57.2,0,0,1-19.7-31,59.4,59.4,0,0,1,2.7-37" transform="translate(-12 -0.5)"/></svg>