<svg width="31" height="30" viewBox="0 0 31 30" fill="none" xmlns="http://www.w3.org/2000/svg">
<rect width="31" height="30" rx="6" fill="#F9B301"/>
<path d="M25.1875 15.5C25.1875 10.1875 20.8125 5.8125 15.5 5.8125C10.1484 5.8125 5.8125 10.1875 5.8125 15.5C5.8125 20.8516 10.1484 25.1875 15.5 25.1875C20.8125 25.1875 25.1875 20.8516 25.1875 15.5ZM15.7344 9.01562C17.9609 9.01562 20.3047 10.7344 20.3047 13C20.3047 16.0469 17.0625 16.0859 17.0625 17.1797V17.2188C17.0625 17.4922 16.8281 17.6875 16.5938 17.6875H14.4062C14.1328 17.6875 13.9375 17.4922 13.9375 17.2188V17.0625C13.9375 15.4609 15.1484 14.8359 16.0469 14.3281C16.8281 13.8984 17.3359 13.5859 17.3359 13C17.3359 12.2188 16.3203 11.7109 15.5391 11.7109C14.4844 11.7109 14.0156 12.2188 13.3125 13.1172C13.1562 13.3125 12.8438 13.3516 12.6484 13.1953L11.2812 12.1797C11.0859 12.0234 11.0469 11.75 11.2031 11.5156C12.2578 9.91406 13.625 9.01562 15.7344 9.01562ZM15.5 18.7031C16.4766 18.7031 17.2969 19.5234 17.2969 20.5C17.2969 21.5156 16.4766 22.2969 15.5 22.2969C14.4844 22.2969 13.7031 21.5156 13.7031 20.5C13.7031 19.5234 14.4844 18.7031 15.5 18.7031Z" fill="white"/>
</svg>
