<svg width="32" height="32" viewBox="0 0 32 32" fill="none" xmlns="http://www.w3.org/2000/svg">
<rect width="32" height="32" rx="6" fill="#006EAF"/>
<path d="M9.4375 15.7578C9.28125 15.2891 9.125 14.4297 9.125 14.4297H9.08594C9.08594 14.4297 8.92969 15.2891 8.8125 15.7578L8.34375 17.2031H9.86719L9.4375 15.7578ZM27.5625 10.25H16.625V22.75H27.5625C28.0703 22.75 28.5 22.3594 28.5 21.8125V11.1875C28.5 10.6797 28.0703 10.25 27.5625 10.25ZM26.625 14.9375C26.625 15.2109 26.3906 15.4062 26.1562 15.4062H25.6875C25.4141 16.3438 24.8281 17.2812 24.0078 18.1406C24.3594 18.4141 24.7109 18.6484 25.0625 18.8438C25.2578 19 25.3359 19.2734 25.2188 19.5078L24.9062 20.0156C24.75 20.25 24.4766 20.3281 24.2422 20.2109C23.7344 19.8984 23.3047 19.5859 22.875 19.2344C22.4453 19.5859 21.9766 19.8984 21.4688 20.2109C21.2344 20.3281 20.9609 20.25 20.8438 20.0156L20.5312 19.5078C20.375 19.2734 20.4531 19 20.6875 18.8438C21.0391 18.6484 21.3906 18.4141 21.7031 18.1406C21.3906 17.8281 21.1172 17.4766 20.8828 17.1641C20.7266 16.9297 20.8047 16.6172 21.0391 16.5L21.2734 16.3438L21.5469 16.1484C21.7812 16.0312 22.0547 16.1094 22.1719 16.3047C22.3672 16.5781 22.6016 16.8516 22.875 17.125C23.3828 16.5391 23.8125 15.9922 24.0469 15.4062H19.5938C19.3203 15.4062 19.125 15.2109 19.125 14.9375V14.3125C19.125 14.0781 19.3203 13.8438 19.5938 13.8438H22.0938V13.2188C22.0938 12.9844 22.2891 12.75 22.5625 12.75H23.1875C23.4219 12.75 23.6562 12.9844 23.6562 13.2188V13.8438H26.1562C26.3906 13.8438 26.625 14.0781 26.625 14.3125V14.9375ZM3.5 11.1875V21.8125C3.5 22.3594 3.89062 22.75 4.4375 22.75H15.375V10.25H4.4375C3.89062 10.25 3.5 10.6797 3.5 11.1875ZM5.76562 19.6641L8.03125 13.0234C8.10938 12.8672 8.26562 12.7109 8.46094 12.7109H9.75C9.94531 12.7109 10.1406 12.8672 10.1797 13.0234L12.4453 19.6641C12.5234 19.9375 12.3281 20.25 11.9766 20.25H11.0781C10.8828 20.25 10.6875 20.1328 10.6484 19.9375L10.2969 18.6875H7.91406L7.5625 19.9375C7.52344 20.1328 7.32812 20.25 7.13281 20.25H6.23438C5.92188 20.25 5.6875 19.9375 5.76562 19.6641Z" fill="white"/>
</svg>
