<svg width="31" height="30" viewBox="0 0 31 30" fill="none" xmlns="http://www.w3.org/2000/svg">
<rect width="31" height="30" rx="6" fill="#F9B301"/>
<path d="M23.7031 8.78125L16.2031 5.65625C16.0078 5.57812 15.6953 5.53906 15.5 5.53906C15.2656 5.53906 14.9531 5.57812 14.7578 5.65625L7.25781 8.78125C6.55469 9.09375 6.125 9.75781 6.125 10.5C6.125 18.2734 10.5781 23.625 14.7578 25.3828C15.2266 25.5781 15.7344 25.5781 16.2031 25.3828C19.5625 23.9766 24.875 19.1719 24.875 10.5C24.875 9.75781 24.4062 9.09375 23.7031 8.78125ZM15.5 22.9609V8.07812L22.3359 10.9297C22.2188 16.8281 19.1328 21.125 15.5 22.9609Z" fill="white"/>
</svg>
