<svg width="52" height="49" viewBox="0 0 52 49" fill="none" xmlns="http://www.w3.org/2000/svg">
<path d="M37.5557 23.1269C36.9017 18.0241 32.6903 14.0069 27.3526 13.3945C26.893 13.3443 26.4308 13.3192 25.9682 13.3191C21.251 13.326 17.0035 16.0523 15.2097 20.2244C13.4158 24.3965 14.4296 29.1914 17.7775 32.3694C19.5578 33.9998 20.5774 36.2466 20.6065 38.6037V39.8912H31.3623V38.5971C31.3704 36.2846 32.3542 34.0731 34.0907 32.4636C36.7135 30.0437 37.9964 26.5869 37.5556 23.1272V23.1269H37.5557Z" fill="#F9B301"/>
<path d="M25.9884 48.4611C27.1276 48.4599 28.1427 47.7735 28.5238 46.7468H23.4531C23.8341 47.7735 24.8492 48.4599 25.9884 48.4611Z" fill="#F9B301"/>
<path d="M21.5059 44.1777C21.5065 44.6508 21.9074 45.0341 22.4022 45.0348H29.5728C30.0675 45.0341 30.4684 44.6508 30.4691 44.1777V41.6062H21.5059V44.1777Z" fill="#F9B301"/>
<path d="M25.986 8.17592C26.9761 8.17592 27.7787 7.4084 27.7787 6.46162V2.17597C27.7787 1.22919 26.9761 0.46167 25.986 0.46167C24.996 0.46167 24.1934 1.22919 24.1934 2.17597V6.46162C24.1934 7.4084 24.996 8.17592 25.986 8.17592Z" fill="#F9B301"/>
<path d="M10.856 12.4185C11.5653 13.0664 12.682 13.0664 13.3913 12.4185C13.7276 12.097 13.9165 11.6609 13.9165 11.2062C13.9165 10.7515 13.7276 10.3154 13.3913 9.99395L10.2222 6.96388C9.88611 6.64232 9.43015 6.46167 8.95478 6.46167C8.47941 6.46167 8.02344 6.64232 7.68728 6.96388C7.35102 7.28526 7.16211 7.72128 7.16211 8.17597C7.16211 8.63065 7.35102 9.06659 7.68728 9.38805L10.856 12.4185Z" fill="#F9B301"/>
<path d="M8.95557 24.4611C8.95557 23.5144 8.15296 22.7468 7.16291 22.7468H2.68134C1.69168 22.7478 0.889652 23.5147 0.888672 24.4611C0.889652 25.4075 1.69168 26.1745 2.68134 26.1754H7.16291C8.15296 26.1754 8.95557 25.4079 8.95557 24.4611Z" fill="#F9B301"/>
<path d="M12.5888 36.057C11.9693 35.8986 11.3085 36.0688 10.8559 36.5033L7.68728 39.5338C7.35102 39.8552 7.16211 40.2912 7.16211 40.7459C7.16211 41.2006 7.35102 41.6365 7.68728 41.958C8.39647 42.6059 9.51299 42.6059 10.2222 41.958L13.3912 38.9279C13.8455 38.4951 14.0236 37.8632 13.858 37.2707C13.6924 36.6782 13.2084 36.2153 12.5888 36.057Z" fill="#F9B301"/>
<path d="M41.1136 36.5033C40.661 36.0688 40.0003 35.8986 39.3807 36.0569C38.7611 36.2153 38.2772 36.678 38.1116 37.2705C37.946 37.863 38.124 38.4949 38.5784 38.9277L41.7474 41.9578C42.4566 42.6057 43.5731 42.6057 44.2823 41.9578C44.6186 41.6364 44.8075 41.2004 44.8075 40.7457C44.8075 40.291 44.6186 39.8551 44.2823 39.5336L41.1136 36.5033Z" fill="#F9B301"/>
<path d="M49.2879 22.7468H44.8063C43.8163 22.7468 43.0137 23.5144 43.0137 24.4611C43.0137 25.4079 43.8163 26.1754 44.8063 26.1754H49.2879C50.278 26.1754 51.0806 25.4079 51.0806 24.4611C51.0806 23.5144 50.278 22.7468 49.2879 22.7468Z" fill="#F9B301"/>
<path d="M41.1134 12.4185L44.282 9.38792C44.7348 8.95489 44.9116 8.32377 44.7459 7.73222C44.5801 7.14066 44.097 6.67866 43.4784 6.52013C42.8598 6.3616 42.1998 6.53073 41.747 6.96375L38.5779 9.99382C38.2416 10.3153 38.0527 10.7514 38.0527 11.2061C38.0527 11.6608 38.2416 12.0969 38.5779 12.4184C39.2874 13.0664 40.4041 13.0664 41.1134 12.4185Z" fill="#F9B301"/>
</svg>
